<svg id="Layer_1" data-name="Layer 1" xmlns="http://www.w3.org/2000/svg" width="710" height="135" viewBox="0 0 710 135"><defs><style>.cls-1{fill:#4bc881;}.cls-2{fill:#fff;}</style></defs><rect class="cls-1" x="5" y="5.5" width="124" height="124"/><polygon class="cls-2" points="67 88.89 94.46 108.85 87.5 87.43 67 88.89"/><polygon class="cls-2" points="111.43 56.5 77.48 56.5 67 24.22 56.52 56.5 22.57 56.5 50.03 76.44 39.54 108.73 67 88.78 83.97 76.44 111.43 56.5"/><rect class="cls-1" x="149" y="5.5" width="124" height="124"/><polygon class="cls-2" points="210.85 88.89 238.31 108.85 231.35 87.43 210.85 88.89"/><polygon class="cls-2" points="255.28 56.5 221.34 56.5 210.85 24.22 200.37 56.5 166.43 56.5 193.88 76.44 183.39 108.73 210.85 88.78 227.82 76.44 255.28 56.5"/><rect class="cls-1" x="293" y="5.5" width="124" height="124"/><polygon class="cls-2" points="355 88.89 382.46 108.85 375.5 87.43 355 88.89"/><polygon class="cls-2" points="399.43 56.5 365.48 56.5 355 24.22 344.52 56.5 310.57 56.5 338.03 76.44 327.54 108.73 355 88.78 371.97 76.44 399.43 56.5"/><rect class="cls-1" x="437" y="5.5" width="124" height="124"/><polygon class="cls-2" points="498.85 88.89 526.31 108.85 519.35 87.43 498.85 88.89"/><polygon class="cls-2" points="543.28 56.5 509.33 56.5 498.85 24.22 488.37 56.5 454.43 56.5 481.88 76.44 471.39 108.73 498.85 88.78 515.82 76.44 543.28 56.5"/><rect class="cls-1" x="581" y="5.5" width="124" height="124"/><polygon class="cls-2" points="642.85 88.89 670.31 108.85 663.35 87.43 642.85 88.89"/><polygon class="cls-2" points="687.28 56.5 653.34 56.5 642.85 24.22 632.37 56.5 598.43 56.5 625.88 76.44 615.39 108.73 642.85 88.78 659.82 76.44 687.28 56.5"/></svg>