<svg id="Layer_1" data-name="Layer 1" xmlns="http://www.w3.org/2000/svg" width="400" height="400" viewBox="0 0 400 400"><path d="M205.9,395C96.25,393.38,5.13,311.51,5.13,199.62,5.13,91.55,91.24,4.89,200.16,5c107.36.11,195.41,84.44,194.71,189.63C394.13,305.3,311.17,394,205.9,395ZM339.51,104.51c-2.09-3-3.45-5.23-5.06-7.25-3.14-3.91-6.21-7.91-9.67-11.53C286,45.23,238.87,26.52,182.72,31.78,145.48,35.26,113,50,85.7,75.27Q38,119.42,31.63,184.51c-2.77,28.05,1.94,54.72,12.29,80.61,3.17,7.94,3.72,7.92,11.4,3.48,14.49-8.36,28.95-16.8,43.46-25.14,2.73-1.57,5.64-2.81,10.07-5-2.67,11.35,1.3,17.81,12.16,21.48-21.23,12.36-40.69,23.69-59.92,34.87a9.83,9.83,0,0,0,.56,2.27c32.93,45.3,77.66,70,133.32,71.69,55.42,1.68,102.25-19.51,136.63-63.33,41-52.26,48.42-110.26,23.9-172.18-2.14-5.41-4.65-6-9.67-3-15.37,9.23-31,18-46.58,26.92-2.11,1.21-4.37,2.16-8.47,4.16.87-14-1.79-15-13.12-21Z"/><path d="M275.47,150.62a1.43,1.43,0,0,1-.31,2.28c-17.11,9.91-34.11,19.82-51.19,29.6-8.05,4.61-16.24,12.33-24.41,12.4-7.86.06-15.82-7.89-23.68-12.42Q150.41,167.81,125,153l0,0a1.44,1.44,0,0,1-.11-2.36,18.92,18.92,0,0,1,2.28-1.61c22.76-13.14,45.5-26.31,68.39-39.22,2.06-1.16,5.72-1.64,7.6-.59,24.17,13.56,48.15,27.44,72.16,41.27A.91.91,0,0,1,275.47,150.62Z"/><path d="M118.22,241.17c.2-24.62.1-52.28.09-77.58a2.66,2.66,0,0,1,4-2.3c24.13,13.88,47.25,27.15,70.28,40.59a6.85,6.85,0,0,1,3,4.84c.18,26.77.14,53.54.13,81a2.65,2.65,0,0,1-3.86,2.36c-2.5-1.27-40.18-23.94-44.08-26.49-6-3.92-20.37-13-26.63-17A6.37,6.37,0,0,1,118.22,241.17Z"/><path d="M280.27,159.94a1.36,1.36,0,0,1,1.36,1.36c0,27.62.07,54.91-.14,82.19a8.38,8.38,0,0,1-3.34,6.13c-23.88,14-47.91,27.79-71.93,41.6h0a1.39,1.39,0,0,1-2.09-1.2c0-13.4,0-27.33,0-40.63,0-13.63-.16-27.27.15-40.89.06-2.34,1.51-5.69,3.36-6.79,23.85-14.08,47.88-27.84,71.88-41.65A1.4,1.4,0,0,1,280.27,159.94Z"/></svg>