<svg id="Layer_1" data-name="Layer 1" xmlns="http://www.w3.org/2000/svg" width="395" height="400" viewBox="0 0 395 400"><path d="M183.78,382.86c-2.51-.4-3.32-2.46-4.17-4.23-19.28-40.42-44.3-77.47-68-115.27-18.46-29.43-35-59.89-47.79-92.28a6.56,6.56,0,0,0-2-2.69c14.59,66.67,50.68,122.39,91.71,176-8.05,5.14-15.41,6.11-22.66,6.94-28.36,3.22-53.33-6.25-76.82-21-3.65-2.29-4.07-4.81-.6-7.6,1.24-1,2.63-1.84,4.65-3.23-14.39-11-27.27-21.41-37-34.46.75-4.41,5.41-3.24,6.92-6.59-1.74-5-5.82-8.92-8.51-13.66A211.06,211.06,0,0,1,9.17,244.31c-4-9.36-4-9.36,5-13.29-4.12-12.4-8.11-24.91-9.25-38.1-.79-9.18-.58-9.66,8.33-11.31,1.52-1.6.94-3.5.61-5.26-1.85-9.92-1.47-19.83.1-29.74,1.42-8.94,1.95-9.28,10.3-5.91,2.4-.81,2.71-3.11,3.27-5,4-13.74,9.21-27.2,10.35-41.66.4-5,3-6,7.65-4.63C57.58,93,67.67,99.8,77,107.87c1.39,1.2,2.81,2.39,4.69,4,3.32-7.83,7.9-5.33,12.93-2a126.34,126.34,0,0,1,25.49,22.28c7.34-6.6,8.69-6.61,15.68.06A101.91,101.91,0,0,1,146,142.61c4.33,5.56,4.57,11.68,1.31,17.8-5.1,0-8.15-4.86-13.61-3.46-1.68,14.63-.68,29.37.69,44.07.62,6.66,2.06,13.25,3.18,19.87,1.21,7.11.17,8.42-6.91,7.35-4.2-.65-6,.81-5.13,4.74,4.06,19.39,13.45,38.44,22.44,56.43,1,2,21.6,36,22.85,35.75a66.9,66.9,0,0,0,5.79,6.27,12.3,12.3,0,0,0-1.68,5.81,28.86,28.86,0,0,0,1.22,6.81c2.6,10.79,5.28,21.57,7.89,32.36C184.53,378.53,185.91,380.73,183.78,382.86Z"/><path d="M373.78,231.06c-2.69,5.16-3.45,8.58,4,9.31,5.32.52,4.14,3.72,2.21,6.93-8.64,14.34-18.4,27.82-30.5,39.45-4.46,4.29-5.93,7.52,1,10.69,4,1.82,4,5,.9,7.75-32.26,28.38-67.87,47.52-112.86,41.05-6-.86-7.39-3-4.94-8.7,31-72.52,51.69-148,63.45-225.88.61-4,1.64-8-.39-12.38-1.63,6.11-3.45,12.18-4.89,18.33-17.41,74.75-43.91,146.59-69.53,218.71-6.35,17.87-12.24,35.9-16.46,54.42-.44,1.93-.59,4.68-3.51,4.21s-2-3.26-2-5.16c-.17-9.78,3.47-19.13,3.26-29-.15-6.94.14-13.88-1.48-20.74-1.72-7.28-6.45-12.24-12.45-16-3.7-2.32-10,1.89-13,7.33a66.9,66.9,0,0,1-5.79-6.27c-16.89-23.84-23.49-41-25-44.41A163,163,0,0,1,134.47,243c-1-5.64.42-8.65,6.83-7.51,6,1.07,6.49-2,5.4-6.93-3.71-17-6.35-34.17-5-51.69.65-8.37,1.66-9.07,9.07-5.21,5.76,3,6.29-.51,6.54-4.71,1-16.61,5.4-32.3,12.29-47.42,2.46-5.36,4.61-8.46,10.41-3.06,4.11,3.83,5.42-.63,6.6-3.5a138.22,138.22,0,0,1,24.44-39.32c1.06-1.22,2.16-2.42,3.27-3.6,2.69-2.83,5.45-3.76,7.87.19,3.1,5.05,5.52,3.58,8.06-.48a122.23,122.23,0,0,1,26.92-30.66c7.56-6.08,7.52-6.14,13.27,1.28,3-.21,3.73-3.07,5.2-4.93C284.81,23.82,295.43,14,308.74,7.3c8.48-4.26,11.63-2.82,14.06,6.24,4.59,17.16,13.26,32.48,21.49,48,2,3.74,4.49,5.41,8.11,1.89,4.14-4,6.19-1.92,8,2.35,5.6,13.26,7.42,27.21,7.66,41.41.11,6,1,9.43,8.32,7.07,4.75-1.53,5.9,2.45,6.07,6.18.75,16,1.27,32-2.27,47.75-1.25,5.57-2.12,10.39,6.49,9.37,4-.48,4,2.53,3.4,5.71C386.68,199.91,381.62,216,373.78,231.06Z"/></svg>