<svg id="Layer_1" data-name="Layer 1" xmlns="http://www.w3.org/2000/svg" width="335" height="400" viewBox="0 0 335 400"><path d="M12.12,171a19.7,19.7,0,0,0-.72,2.51c-1.2,7.67-2.76,15.32-3.42,23-.51,5.93,0,11.95.3,17.92.06,1.35,1.08,2.65,1.92,4.55,1.06-1.45,1.65-2.23,2.21-3,1.17-1.62,2.23-3.34,3.52-4.85,1.81-2.1,3.46-2.25,5.22-.11a43.62,43.62,0,0,1,5,7.66,7.39,7.39,0,0,1-.39,7.11c-1.75,3.13-4.53,5.09-7.64,6.8-2-7.47-4.08-10.45-7.22-10.62a3.77,3.77,0,0,0-.18.86,120.36,120.36,0,0,1-5.73,40A9.54,9.54,0,0,0,7.43,273c1.12,1.15,2,2.51,3.16,3.67a83.6,83.6,0,0,0,6.26,6.09,4.47,4.47,0,0,0,5.77.37c2-1.38,2-3.24,1.48-5.35-.75-2.92-1.36-5.87-2.09-9.1.43.32.59.38.66.5a19.8,19.8,0,0,1,1.39,2.39,36,36,0,0,0,12.26,15.57A14.69,14.69,0,0,1,38,288.74a15.6,15.6,0,0,1,4.58,9.09,21.88,21.88,0,0,1-1,10.23,12.4,12.4,0,0,0,1.45,11.44,15.5,15.5,0,0,1,2.29,10.61c-.35,3.67-.89,7.33-1.31,11-.94,8.15,2.07,12,10.31,12.82,3.82.4,7.67.59,11.51.65,6.59.09,12.14,1.82,16.7,7.17,4,4.63,9.8,4.06,13.9-.51,2-2.28,3.9-4.75,5.89-7.1a11.2,11.2,0,0,1,6.89-4.11c-.44,3.32.55,4.81,3.12,4.37a8.5,8.5,0,0,0,3.17-1.69,31.29,31.29,0,0,0,2.85-2.73,10.74,10.74,0,0,0,.29,3,11.78,11.78,0,0,0,2.36,4c1.59,1.45,2.76.9,3.25-1.21.78-3.33-.65-6.13-2.67-8.49-6.28-7.31-13.54-12.91-24-12.33a8.1,8.1,0,0,1-.16-1.1c-.12-3.21,1.62-5.67,3.2-8.24a21.65,21.65,0,0,0,2.71-5.5c.76-2.88,2-4.26,5-4.44.84,0,1.7,0,2.54-.07,2.37-.2,6.43-3.17,6.92-5.16.68-2.73-1.74-3.64-3.17-5.12l-.17-.15c-2.73-2.46-3.16-4.45-1.64-7.8.41-.91,1-1.75,1.34-2.68.6-1.71,1.59-3.52,1.42-5.19-.14-1.4-1.7-2.65-2.68-4,3.65-4.29,2.87-6.54-3-7.83-1.24-.28-2.49-.49-3.74-.73l-.2-.63a53.06,53.06,0,0,1,5.52-3c3.4-1.41,7-2.37,10.35-3.89a37.61,37.61,0,0,0,6.73-4.26c.64-.48.72-1.7,1.06-2.58a12.87,12.87,0,0,0-2.47-.9c-1.05-.16-2.15,0-3.22-.07-4.55-.25-9.88-4.71-10.82-9.06,2-1.52,4.22-1.18,6.36-.41,2.53.91,5,2,7.49,3,4.93,1.94,9.35.93,13.38-2.32,3.24-2.61,3.75-5.55,1.19-8.82-1.7-2.17-3.8-4-5.69-6-1-1-1.85-2.12-2.87-3.28,7.84-2.85,8.52-2.81,14.86,1.33a7,7,0,0,0,5.71,1c1.71-.4,2.68-1.43,2-3.17a5.74,5.74,0,0,1,1.2-6.2c4.42-5.2,4.79-10.74,1.61-16.66a4.91,4.91,0,0,1-.58-1.5c-.41-2.63-1.4-5.36-1-7.88C158,193.21,163.4,187.67,170,183a3.54,3.54,0,0,1-.57,4.92c-1.08,1.09-2.48,1.92-3.35,3.15a12.69,12.69,0,0,0-1.83,4.29c-.27,1.14.25,2,1.83,1.87a35.11,35.11,0,0,1,4.79.25,55.74,55.74,0,0,0,0,5.66c.22,2.08,1.72,2.82,3.2,1.41a27.85,27.85,0,0,0,4.53-5.92c.92-1.55,1.17-3.49,1.9-5.17a4.17,4.17,0,0,1,4.53-2.8L184,193.37a17.55,17.55,0,0,0-.91,2.61,11.54,11.54,0,0,0-.31,3.4c.22,1.89,2.1,3,4.53,3.12,2.14.13,1.77-1.5,2.06-2.64,1.8-7.26,3.94-14.44,7.83-20.87a35.65,35.65,0,0,1,6.47-7.67c2.13-1.94,2.59-2.68.73-5a9.74,9.74,0,0,0-2-1.91,17.55,17.55,0,0,1-6.54-7.86,5.1,5.1,0,0,0-5.09-3.33,17,17,0,0,0-6,1.05c-6.19,2.62-15.32-.39-18.6-6.39-1.34-2.45-3.79-2.59-6-.94a35.12,35.12,0,0,1-6.8,3.55c-.28.13-1.35-.62-1.47-1.11a4.55,4.55,0,0,1,2.92-5.34c1.71-.68,3.52-1.14,5.17-2,3.27-1.59,3.6-4.53.71-6.71a38.75,38.75,0,0,0-5-2.82l-1.7-.92c1.72-.31,3.45-.23,4.77-.93,2.18-1.17,2.74-3.94,1.11-6.79-2.39-4.15-3.06-7.84,0-12.13,2-2.8.46-7.57-2.51-8.49-4.47-1.38-7-4.75-9.87-8a38.38,38.38,0,0,0-6.74-6.2,6.9,6.9,0,0,0-9.29.81,10.77,10.77,0,0,1-9.29,3.47c-3.44-.28-6.5.5-7.29,4.64,0,.17-.3.3-.19.19-2.45-1-4.74-1.85-6.92-2.92a9.77,9.77,0,0,0-9.93.26,50.45,50.45,0,0,0-8.5,6.94,6.72,6.72,0,0,0-2.06,6.57,11.88,11.88,0,0,1-.71,8.09,34.64,34.64,0,0,0-1.95,5.41,42.37,42.37,0,0,0-1.47,8.8c-.05,3.23,2.75,4.47,5.51,2.8a26.6,26.6,0,0,1,2.88-1.91,2.83,2.83,0,0,1,2.26,0c.42.24.58,1.34.47,2a14.46,14.46,0,0,1-1.1,3.51c-1.5,3.34-.89,6.25,1.44,9,1.26,1.47,2.37,3.08,3.62,4.71-2.73,1.28-4.1-.16-5.25-1.91-1.56-2.36-2.86-4.93-4.61-7.14-.76-.95-2.36-1.22-3.57-1.8a25.18,25.18,0,0,0-1.06,3c-.57,2.55-1.41,3-3.66,1.7-3.35-1.89-4.59-5-3.11-8.64,1.17-2.83,2.83-5.46,4-8.28,1.66-4,.28-7.93-3.15-9.78-3.27-1.76-8.49-.77-12,2.27-3.08,2.67-3.58,5-2.07,9.09A59.2,59.2,0,0,0,58.44,134c-2.78,2.69-4.8,6.3-9.63,6.65.74,1.2,1.17,1.89,1.59,2.59a15.43,15.43,0,0,1,2.5,9.2c-.21,2.9-1.59,3.49-3.95,1.88a7.14,7.14,0,0,1-3.1-4.62c-.8-3.52-3.34-5-5.78-3.4-2.15,1.44-3.64.9-5.29-.56a17.26,17.26,0,0,0-3.09-2.39c-1.19-.64-2.72-1.57-3.8-1.28-2.6.72-3.69-.78-4.82-2.43a46.94,46.94,0,0,1-2.47-4.16c-2.34-4.33-4-4.39-6.71-.19a2.12,2.12,0,0,1-.12.2c-6.25,9.61-6.47,20.29-5.51,31.17,0,.13.16.25.53.78,1.7-.7,3.53-1.36,5.29-2.19,3.61-1.72,3.78-1.78,5.75-.57-1.95.5-1.71,1.55-1.06,3a25.36,25.36,0,0,1,2.44,10.15C18.54,174.53,16,172,12.12,171ZM288,331.27A3.26,3.26,0,0,0,287,326.7c-1.14-.88-2.51-1.48-3.73-2.27-2.65-1.7-2.55-3.43.17-4.92,1.86-1,3.94-1.9,5.41-3.36a11.57,11.57,0,0,1,7.05-3.43,37.78,37.78,0,0,0,8.51-1.92c3.69-1.41,4.59-4.9,2.87-8.35a11.63,11.63,0,0,1-1.17-4.81,7.17,7.17,0,0,0-3.82-6.63c-2-1.13-4.1-2.11-6.13-3.22-3.41-1.87-4.39-4.07-3.52-7.85a17.6,17.6,0,0,1,5.88-9.7,7.71,7.71,0,0,1,4.92-1.93c4.44.37,7-1.56,8.51-5.45a3.85,3.85,0,0,1,.77-1.41c.82-.75,2-2.12,2.59-1.92,1.83.62.73,2.22.37,3.33-.6,1.89-1.68,3.64-2.19,5.55-.68,2.52.78,4.26,3.37,4.25a8.19,8.19,0,0,0,7.14-4c1.56-2.44.26-4.58-1.16-6.58-1.82-2.56-3.21-5.25-2.87-8.54a13.9,13.9,0,0,0-2.76-9.77,16.17,16.17,0,0,1-2.9-11.13,19.77,19.77,0,0,0,0-3.92c-.46-3.51.94-6.26,3.16-8.8,2.5-2.86,2.53-4.6-.07-7.45a22,22,0,0,0-12-6.81,20,20,0,0,1-5.37-1.92,9.37,9.37,0,0,0-9.26-.29,55.81,55.81,0,0,0-5.46,3.82c-3.27,2.26-6.58,4.46-9.85,6.72a73.6,73.6,0,0,0-6.48,4.68c-.81.7-1.64,2.42-1.31,3.13a4.21,4.21,0,0,0,3.13,1.75c4.53.29,7.12,2.9,8.86,6.72,2.65,5.82,3.23,12,2.86,18.28a2.29,2.29,0,0,1-.74,1.56c-2.84,2.11-5.75,4.15-8.64,6.2a16.81,16.81,0,0,1,4.4-4c3.58-2.27,5-5.57,4-9.49a135,135,0,0,0-4.79-13.9,7.35,7.35,0,0,0-2.61-3.14,3.4,3.4,0,0,0-2.92-.2A3,3,0,0,0,270,228c.05,1.75.76,3.5.72,5.23,0,1.92-.05,4.25-1.09,5.66a34.56,34.56,0,0,0-5.44,11.84,9.42,9.42,0,0,1-3.94,5.61A4.55,4.55,0,0,1,260,255c.36-1.56.8-3.1,1.21-4.65,1-3.67-1-6.13-4.75-5.91-.92.05-1.83.27-2.75.31-1.69.08-2.77-.61-2.92-2.67l2.34.38c3,.46,4.85-1.48,4.09-4.39a17.92,17.92,0,0,0-1.7-3.5c-.5-1-1-1.91-1.81-3.3,1.22.4,1.87.6,2.5.83,1.74.64,2.83-.08,3.46-1.68.92-2.34,1.81-4.7,2.69-7.06.74-2,0-2.91-2-2.41a17.34,17.34,0,0,0-5.12,2c-3.85,2.47-7.79,2.52-11.93,1.1-2-.67-3.9-1.46-5.91-1.94a61.13,61.13,0,0,0-7.71-1.3,3,3,0,0,0-2.48,1c-.29.65.26,1.88.76,2.64,1.54,2.32,4.15,2.29,6.53,2.87a15,15,0,0,1,5.19,2.17,3.34,3.34,0,0,1,.16,5.56,14.79,14.79,0,0,1-4.82,2.47c-2.13.71-3.49,1.89-3.8,4.13a16.69,16.69,0,0,0-.32,3.44,4.54,4.54,0,0,1-2.39,4.65,52.44,52.44,0,0,1-7.78,3.26c-1.6.52-2.36-.58-1.93-2.35.12-.52.11-1.08.28-1.58.62-1.94-.58-2.76-2.08-2.67a7.51,7.51,0,0,0-3.7,1.49c-2,1.45-3.91,2.2-6.39,1a9.48,9.48,0,0,0-4-.7c-1.58,0-3.2.38-3.48,2.31s.82,3.1,2.53,3.63c1.53.46,3.2.54,4.71,1a18.55,18.55,0,0,1,3.23,1.83l-.31.9c-1.26.13-2.54.19-3.79.39a29.94,29.94,0,0,0-2.92.78c.63,1,1.08,2.23,2,2.9a11.83,11.83,0,0,0,3.6,1.45c1.61.5,3.27.84,4.88,1.37,3.19,1,4.7,6.66,1.52,8.71a4.25,4.25,0,0,0-1.62,1.61c-.62,1.49-1.66,3.28-1.27,4.57.28.91,2.59,1.26,4,1.73.79.25,1.73.07,2.49.37a4.77,4.77,0,0,1,2.14,1.52,9.59,9.59,0,0,1-.33,10.95c-1,1.4-1.82,2.74-.15,4.09-2.59,3.47-2.4,5,.91,7.38,2.61,1.89,4.28,4.15,4.5,7.59.27,4,3.56,5.67,6.89,3.49s6.19-1.85,9.14.32c4.1,3,8.36,4.47,13.31,2,1.63-.81,2.69-.07,3.34,1.66a43.6,43.6,0,0,0,2.34,4.56c-3.39,1.8-3.88,4.13,1,7.62a19.12,19.12,0,0,0-3.47-.4c-.66,0-1.69.56-1.81,1a3.1,3.1,0,0,0,.69,2.21,6.11,6.11,0,0,0,2,1.55c2.64,1.42,5.4,2.62,8,4.17,6.29,3.78,12.45,3.64,19.06.58,5.49-2.55,6.37-3.82,1.38-7.87-1-.84-1.57-2.28-2.34-3.44l.59-.43ZM42.26,128.87l.48-.59c-.38-.8-.72-1.63-1.17-2.39-1.75-3-1.54-5.67.69-8.48,2.71-3.43,5-7.2,7.58-10.74a50.18,50.18,0,0,1,4.89-5.8,8.51,8.51,0,0,1,7-2.86,5.66,5.66,0,0,0,3.44-1C72,92.21,79.9,93.43,87.55,92.36c.07,2.85,1.6,3.18,3.73,2.47a37,37,0,0,0,3.93-1.33,27.76,27.76,0,0,1,13.92-2.44,25.18,25.18,0,0,0,12.59-2.25c4.41-2,8.8-3.22,13.79-1.75a8.73,8.73,0,0,0,6.57-.86c1.81-1.25,3-1,4.22,0a17.36,17.36,0,0,1,3.19,3.58c1.72,2.36,3.19,4.9,5,7.2,1.56,2,3.55,3.53,6.36,2.69A5.36,5.36,0,0,0,165,93.77c-.23-4.82,2.23-7.93,5.89-10.76,6.4-5,9.06-11.84,8.85-19.85-.12-5-.45-10-.47-15a25.32,25.32,0,0,0-4.09-14.41c-.94-1.41-1.76-2.89-2.58-4.37a8.54,8.54,0,0,1,.17-9,53.35,53.35,0,0,1,3.5-4.86C178,13.3,180,11.2,181.55,8.85c.63-.93.55-2.34.8-3.54-1.16-.08-2.44-.52-3.46-.18a27,27,0,0,0-6,2.84,49.45,49.45,0,0,0-5.28,4.46c-1.49,1.33-2.91,2.74-4.41,4.06a19.71,19.71,0,0,1-16.63,5.1c-8-1.22-13.79,1.92-17.89,8.59a37.83,37.83,0,0,0-3.08,5.92c-1.63,4.15-3.07,8.37-4.53,12.58C114.9,66.41,100.17,75.8,81.5,73.63c-6.61-.76-12.67-.41-17.8,4.6-2.2,2.15-5.09,2.34-8,1-1.81-.84-3.65-1.63-5.48-2.42a4.52,4.52,0,0,0-5.93,1.53,69.76,69.76,0,0,0-4.45,6.72q-5.58,9.81-11,19.74c-2.21,4-4.4,8.1-6.4,12.25a14.76,14.76,0,0,0-.89,10.36,10.71,10.71,0,0,0,.89,1.77l3.35-4.78c2,2.36,3.88,4.44,5.57,6.67,2.13,2.82,3.84,6,6.22,8.57,1.7,1.82,4.18,2.94,6.39,4.23a1.93,1.93,0,0,0,1.79-.39c4.51-4.82,2.69-11-3.62-12.59-1.65-.41-3.33-.68-4.94-1.16s-2-1.33-.74-2.57Zm83,164.73a6.6,6.6,0,0,1-.41.55c-2.59,3-2.67,3.53.85,5.14,3.7,1.69,4.57,5,5.55,8.24a3.54,3.54,0,0,1-.63,2.49c-1.42,2.24-1.35,4.36,1,5.44,3.05,1.43,4.24,3.77,4.76,6.79a4,4,0,0,0,.7,1.93,16.11,16.11,0,0,0,2.25,1.93c.66-.86,1.64-1.64,1.9-2.61s-.13-2.24-.24-3.35a4.35,4.35,0,0,1,5.54,1.87c1.26,2.29-.94,2.53-2,3.6a5,5,0,0,0-1.4,3.34c0,.8,1.27,1.66,2.14,2.26a20.43,20.43,0,0,0,4,2.22c1.1.46,2.63,1.08,3.5.66,1.61-.79.74-2.36.2-3.64,0-.1.08-.26.24-.74,1.69,1.19,3.22,2.44,4.91,3.43,6.86,4,14,5.54,21.77,2.6a13,13,0,0,1,4.61-1.17,6.33,6.33,0,0,0,6.11-3.73c1.25-2.29,2.43-4.63,3.65-6.94a10.75,10.75,0,0,0-.1-11.19,14.05,14.05,0,0,1-1.83-4.44,3.11,3.11,0,0,1,1.2-2.71c2.51-1.18,3-1.63,1.59-4-1.77-3-3.87-5.72-5.89-8.53-3-4.19-3-5,.33-8.92,2.21-2.55,2.89-5.4,1.08-8.27a75,75,0,0,0-6.47-8.61c-.87-1-2.42-1.44-3.66-2.13-.17,1.37-.32,2.74-.53,4.1-.14.91-.17,2.46-.61,2.6-2.37.78-1.81,2.07-1.24,3.8.38,1.14.58,3-.06,3.7a14.24,14.24,0,0,1-4.95,3.28c-1.36.57-3,.38-4.81.55.24-.86.23-1.09.32-1.14a12.27,12.27,0,0,1,1.42-.67c2.11-.84,3.46-6.74,1.88-8.34-2.6-2.63-5.17-5.28-7.85-7.82-1.29-1.22-2.8-2.21-4.52-3.55l-1.7,6.48c-1.65-3.56-1.77-3.6-4.74-1.9-.74.42-1.45.88-2.22,1.24-2.83,1.31-5.59,2.95-8.57,3.76-2.48.67-4.51,1.41-6.13,3.56-2.4,3.19-4.07,3.18-6.89.45s-6.83-3.36-9.82-.94a7.51,7.51,0,0,0-2.76,4.67c-.11,2,2.31,1.67,3.79,2.14a13.36,13.36,0,0,1,2.52,1.41l-.33.75a20.71,20.71,0,0,0-2.73,0c-.55.07-1.35.33-1.52.72a1.84,1.84,0,0,0,.51,1.6c1.17,1.1,2.54,2,3.69,3.1a9.37,9.37,0,0,1,1.48,2.32C124.49,291.82,124.79,292.64,125.22,293.6Zm120.06,69.3c-2.74-2-6.14-4.31-9.37-6.85-3.38-2.66-6.58-5.56-9.9-8.3a6.33,6.33,0,0,0-6.66-1,21.3,21.3,0,0,1-6.95.85,4.85,4.85,0,0,0-4.89,2.73c-1,2-1,3.83.6,5.53a38.75,38.75,0,0,1,3.4,3.75,3.33,3.33,0,0,1,.62,2.61c-.27.71-1.38,1.16-2.19,1.6-.37.2-.91.07-1.36.16-2,.35-4.31,2.38-4.41,3.94-.13,2.17,1.53,3.13,3.13,3.85a34.38,34.38,0,0,0,7.12,2.6c7,1.4,12.44,4.65,15.52,11.3a5.46,5.46,0,0,0,.54.75c4,5.89,11.34,7,15.63,1.1,1.64-2.25,4.11-2.83,6.82-2.35,3.48.62,7,1.29,10.45,1.85,1.88.3,3.74.16,5-1.6s.31-3.3-.46-5c-.65-1.41-1.46-3-1.32-4.47.31-3.12-.82-5.47-2.57-7.86-2-2.7-3.62-5.65-5.45-8.46a25.51,25.51,0,0,0-3.32-4.64c-2.17-2.06-4.58-1.15-5.34,1.74a4.26,4.26,0,0,1-.78,1.47C248,359.62,246.88,361,245.28,362.9Zm24.78,28.44-.42.37c.8,1.09,1.39,2.75,2.45,3.15,1.82.68,2.46-1.23,2.88-2.55a54.55,54.55,0,0,0,2-8c1.16-7.57,2.63-14.84,9.7-19.55,2.11-1.41,2.13-3.77.33-5.67a32.69,32.69,0,0,0-5.76-4.46,72,72,0,0,0-6.68-3.92,3.34,3.34,0,0,0-2.53-.2c-1.66.71-2.29.47-2.57-1.41s-2.85-3.29-3.94-2.12c-1.69,1.81-2.82,1.58-4.54,0s-5.21-.27-5.68,1.84c-.4,1.81.62,2.66,2.14,3.28,1.31.52,3.21.92,3.69,1.93,2.91,6.08,5.63,12.28,8.14,18.54,2.13,5.33,3.63,10.82,1.23,16.56A10.36,10.36,0,0,0,270.06,391.34ZM50.05,116.4c-2.35,1.55-4.61,2.95-6.74,4.52-.46.34-.88,1.58-.64,1.89a72.21,72.21,0,0,0,7.18,8.66c2.86,2.69,6.76,2,8.94-1.28a65.74,65.74,0,0,0,4.29-7.87c1.59-3.33,3-6.7,2-10.6-.5-1.87.3-3.4,2-4.49a18.3,18.3,0,0,0,3.39-2.75c1.56-1.65,1.56-5.6,0-6.77-2.11-1.57-3.64.1-5,1.38a24.62,24.62,0,0,0-3.79,4.61,5.38,5.38,0,0,1-3.84,2.82,11.79,11.79,0,0,0-7.22,4.2C48.54,113.34,48.48,114,50.05,116.4ZM199.41,323.87c-.85,6.44-4,11.64-7.77,16.6-1.75,2.34-3.45,4.71-5.19,7.06a5.81,5.81,0,0,0-1.07,5.43c.53,1.64-.1,2.7-1.39,3.75-2.36,1.92-4.57,4-6.9,6.1a14.5,14.5,0,0,0,1.34,1.84,10.19,10.19,0,0,1,3.32,8.27,4.56,4.56,0,0,0,.71,2.6c1.23,1.91,2.82,1.84,3.76-.18.73-1.58,1.13-3.33,1.71-5,1-3,2.1-5.89,3.16-8.83a23.85,23.85,0,0,0,1.4-3.89,40.23,40.23,0,0,1,6-14.85,30.35,30.35,0,0,0,2.79-5.55,50.32,50.32,0,0,0,2.55-8.33C204.38,325.79,202.73,324,199.41,323.87ZM129.8,352.94c-.6.74-1.6,1.62-1.46,1.87.64,1.17,1.38,2.66,2.48,3.15,3.5,1.56,9.4-1.56,10.41-5.35a2.65,2.65,0,0,0-.52-2.26c-2.42-1.88-3.11-4.45-3.4-7.28a4.6,4.6,0,0,0-4.09-4.34,7.88,7.88,0,0,1-4.76-2.91c-5-5.8-9.86-7-16.28-4-.62.28-1.53,1-1.47,1.45.1.69.82,1.34,1.4,1.89.4.38,1.36.48,1.44.86.74,3.13,3.11,3.15,5.58,3.18.71,0,1.77.15,2.07.61,1.51,2.35,2.82,4.83,4,7-.45.93-1.2,1.72-1.1,2.38C124.6,352.42,127.38,352.68,129.8,352.94Zm154.59-2.67c-.08,3,1.17,5.1,3.46,5.93s3.5.19,5.56-2.51l1.25-1.66c4-5.13,9.4-6.45,15.26-3.75a10.15,10.15,0,0,0,1.28.53c2,.59,3.25-.18,3.69-2.28.64-3.07-.56-5.52-3.61-6.61q-6.7-2.39-13.54-4.42c-3.08-.91-4,0-3.54,3.18.51,3.51.47,3.56-3,4.09C286.6,343.46,284.52,345.76,284.39,350.27ZM183.69,229.54c1.17-3.87-.84-7.09-3.24-10-.69-.85-2.67-1.65-3.47-1.27-4.25,2.06-4.55,7.31-.79,10.16,2.78,2.11,2.84,4.94.12,7.1-.48.39-1,.73-1.5,1.08a3.85,3.85,0,0,0-1.51,5A13.05,13.05,0,0,0,176,245.8c2.27,2.17,5.72,1.31,6.31-1.76a28.38,28.38,0,0,1,4.25-10.28,4.65,4.65,0,0,0,.11-3.65C186.52,229.63,184.79,229.72,183.69,229.54ZM167.5,356.45l-.68-.49c.08-.43.16-.86.26-1.29,1-4.41.39-5-4.13-4.18a4.22,4.22,0,0,1-2.87-1.15c-2.05-1.71-3.85-3.75-6-5.38-1-.76-2.44-.88-3.69-1.28a19.26,19.26,0,0,0-.07,4c.57,3.08,2.88,5,5.12,6.89,2.74,2.3,5.18,4.71,6.32,8.3a3.38,3.38,0,0,0,6,1.11c1.66-2.08,3.3-2.51,5.55-1.38,1.38.69,1.94,0,2.28-1.29a6.52,6.52,0,0,0-2.95-7.15c-1.4-.84-2.38-.67-3.22.82A18.32,18.32,0,0,1,167.5,356.45ZM221.63,57.17c0-2.54-1-3.27-3.59-3.22a13.3,13.3,0,0,0-8.94,3.65,7.91,7.91,0,0,1-5.71,2.5,5.12,5.12,0,0,0-5.09,4.49,1.83,1.83,0,0,0,.47,1.53c2.13,1.45,4.35,2.8,6.55,4.17,2.45,1.51,4.33,1.31,6-1s3.06-5,4.74-7.35a3.57,3.57,0,0,1,2.29-1.34C220.83,60.36,221.62,59.66,221.63,57.17ZM32,328.47c5.1,0,5.8-1,4.56-5.84-.52-2.07-.66-4.2,1.1-5.78.92-.83,1.87-1.47,1.1-2.81a3.49,3.49,0,0,0-3.9-1.77,16.85,16.85,0,0,1-2.19.41,3.19,3.19,0,0,0-3.33,2.62,32.48,32.48,0,0,0-.46,4.54,39.89,39.89,0,0,1-.5,6.12c-.44,1.84.1,2.45,1.78,2.51C30.78,328.49,31.39,328.47,32,328.47Zm148,21.81a5.61,5.61,0,0,0,5.43-5.45c0-3.37-4-6.89-7.94-6.94a4.44,4.44,0,0,0-4.62,4.67C172.8,346.29,176.43,350.22,180,350.28Zm-154.89-69c-.33,2.42-1.05,4.75-.85,7a25.3,25.3,0,0,0,2,6.78,7.34,7.34,0,0,0,2.14,3.13c1.89,1.45,3.76.52,3.75-1.87,0-1.89-.58-3.77-.77-5.66-.1-1.05.24-2.15.1-3.2s-.28-2.72-1-3.35C29.09,283,27.22,282.37,25.13,281.32ZM236,350.7c2.42.07,3.86-.91,3.86-2.63,0-2-2.81-4.54-5.09-4.63-1.83-.08-2.89,1.37-3,4.12C231.64,349.44,233.22,350.61,236,350.7Zm10.54-6.41c0-2.08-2.08-4.06-3.9-3.6-.72.18-1.46,1.6-1.58,2.53-.22,1.79,1.53,3.88,2.94,3.82C245.85,347,246.33,345.6,246.53,344.29Zm74.54-114.24a41.74,41.74,0,0,0,3,3.44c1,.9,2.46,1.25,3.09-.15a3.51,3.51,0,0,0-.68-3.13C325.15,228.92,323.34,229,321.07,230.05ZM160.27,246c0-1.32-.69-2.43-2-1.45a14.56,14.56,0,0,0-3.06,3.92c-.11.17.59,1.26,1,1.32C157.79,250,160.18,247.76,160.27,246Zm7.52-18.69c1.44-1.26,3.31-2.19,3.26-3-.13-2.07-2.36-1.84-3.81-1.82-.63,0-1.76,1.44-1.73,2.19S166.72,226.16,167.79,227.31Zm162.13,37.82c1.5-2.54.14-5.47-2.82-6.23C326.3,262,327.05,263.73,329.92,265.13Z"/><path d="M12.12,171c3.9,1,6.42,3.55,9.09,6.86a25.36,25.36,0,0,0-2.44-10.15c-.65-1.43-.89-2.48,1.06-3-2-1.21-2.14-1.15-5.75.57-1.76.83-3.59,1.49-5.29,2.19-.37-.53-.52-.65-.53-.78-1-10.88-.74-21.56,5.51-31.17a2.12,2.12,0,0,0,.12-.2c2.71-4.2,4.37-4.14,6.71.19a46.94,46.94,0,0,0,2.47,4.16c1.13,1.65,2.22,3.15,4.82,2.43,1.08-.29,2.61.64,3.8,1.28a17.26,17.26,0,0,1,3.09,2.39c1.65,1.46,3.14,2,5.29.56,2.44-1.63,5-.12,5.78,3.4a7.14,7.14,0,0,0,3.1,4.62c2.36,1.61,3.74,1,3.95-1.88a15.43,15.43,0,0,0-2.5-9.2c-.42-.7-.85-1.39-1.59-2.59,4.83-.35,6.85-4,9.63-6.65a59.2,59.2,0,0,1,5.31-4.11c-1.51-4-1-6.42,2.07-9.09,3.53-3,8.75-4,12-2.27,3.43,1.85,4.81,5.83,3.15,9.78-1.19,2.82-2.85,5.45-4,8.28-1.48,3.61-.24,6.75,3.11,8.64,2.25,1.27,3.09.85,3.66-1.7a25.18,25.18,0,0,1,1.06-3c1.21.58,2.81.85,3.57,1.8,1.75,2.21,3,4.78,4.61,7.14,1.15,1.75,2.52,3.19,5.25,1.91-1.25-1.63-2.36-3.24-3.62-4.71-2.33-2.73-2.94-5.64-1.44-9a14.46,14.46,0,0,0,1.1-3.51c.11-.65,0-1.75-.47-2a2.83,2.83,0,0,0-2.26,0,26.6,26.6,0,0,0-2.88,1.91c-2.76,1.67-5.56.43-5.51-2.8a42.37,42.37,0,0,1,1.47-8.8,34.64,34.64,0,0,1,1.95-5.41,11.88,11.88,0,0,0,.71-8.09,6.72,6.72,0,0,1,2.06-6.57,50.45,50.45,0,0,1,8.5-6.94,9.77,9.77,0,0,1,9.93-.26c2.18,1.07,4.47,1.9,6.92,2.92-.11.11.16,0,.19-.19.79-4.14,3.85-4.92,7.29-4.64a10.77,10.77,0,0,0,9.29-3.47,6.9,6.9,0,0,1,9.29-.81,38.38,38.38,0,0,1,6.74,6.2c2.87,3.2,5.4,6.57,9.87,8,3,.92,4.49,5.69,2.51,8.49-3,4.29-2.37,8,0,12.13,1.63,2.85,1.07,5.62-1.11,6.79-1.32.7-3.05.62-4.77.93l1.7.92a38.75,38.75,0,0,1,5,2.82c2.89,2.18,2.56,5.12-.71,6.71-1.65.81-3.46,1.27-5.17,2a4.55,4.55,0,0,0-2.92,5.34c.12.49,1.19,1.24,1.47,1.11a35.12,35.12,0,0,0,6.8-3.55c2.21-1.65,4.66-1.51,6,.94,3.28,6,12.41,9,18.6,6.39a17,17,0,0,1,6-1.05,5.1,5.1,0,0,1,5.09,3.33,17.55,17.55,0,0,0,6.54,7.86,9.74,9.74,0,0,1,2,1.91c1.86,2.34,1.4,3.08-.73,5a35.65,35.65,0,0,0-6.47,7.67c-3.89,6.43-6,13.61-7.83,20.87-.29,1.14.08,2.77-2.06,2.64-2.43-.15-4.31-1.23-4.53-3.12a11.54,11.54,0,0,1,.31-3.4,17.55,17.55,0,0,1,.91-2.61l1.06-2.75a4.17,4.17,0,0,0-4.53,2.8c-.73,1.68-1,3.62-1.9,5.17a27.85,27.85,0,0,1-4.53,5.92c-1.48,1.41-3,.67-3.2-1.41a55.74,55.74,0,0,1,0-5.66,35.11,35.11,0,0,0-4.79-.25c-1.58.12-2.1-.73-1.83-1.87a12.69,12.69,0,0,1,1.83-4.29c.87-1.23,2.27-2.06,3.35-3.15A3.54,3.54,0,0,0,170,183c-6.63,4.71-12.07,10.25-13.28,18.6-.37,2.52.62,5.25,1,7.88a4.91,4.91,0,0,0,.58,1.5c3.18,5.92,2.81,11.46-1.61,16.66a5.74,5.74,0,0,0-1.2,6.2c.67,1.74-.3,2.77-2,3.17a7,7,0,0,1-5.71-1c-6.34-4.14-7-4.18-14.86-1.33,1,1.16,1.91,2.25,2.87,3.28,1.89,2,4,3.87,5.69,6,2.56,3.27,2.05,6.21-1.19,8.82-4,3.25-8.45,4.26-13.38,2.32-2.5-1-5-2.08-7.49-3-2.14-.77-4.33-1.11-6.36.41.94,4.35,6.27,8.81,10.82,9.06,1.07.06,2.17-.09,3.22.07a12.87,12.87,0,0,1,2.47.9c-.34.88-.42,2.1-1.06,2.58a37.61,37.61,0,0,1-6.73,4.26c-3.35,1.52-7,2.48-10.35,3.89a53.06,53.06,0,0,0-5.52,3l.2.63c1.25.24,2.5.45,3.74.73,5.85,1.29,6.63,3.54,3,7.83,1,1.38,2.54,2.63,2.68,4,.17,1.67-.82,3.48-1.42,5.19-.33.93-.93,1.77-1.34,2.68-1.52,3.35-1.09,5.34,1.64,7.8l.17.15c1.43,1.48,3.85,2.39,3.17,5.12-.49,2-4.55,5-6.92,5.16-.84.07-1.7,0-2.54.07-3,.18-4.24,1.56-5,4.44a21.65,21.65,0,0,1-2.71,5.5c-1.58,2.57-3.32,5-3.2,8.24a8.1,8.1,0,0,0,.16,1.1c10.49-.58,17.75,5,24,12.33,2,2.36,3.45,5.16,2.67,8.49-.49,2.11-1.66,2.66-3.25,1.21a11.78,11.78,0,0,1-2.36-4,10.74,10.74,0,0,1-.29-3,31.29,31.29,0,0,1-2.85,2.73,8.5,8.5,0,0,1-3.17,1.69c-2.57.44-3.56-1-3.12-4.37a11.2,11.2,0,0,0-6.89,4.11c-2,2.35-3.84,4.82-5.89,7.1-4.1,4.57-9.94,5.14-13.9.51-4.56-5.35-10.11-7.08-16.7-7.17-3.84-.06-7.69-.25-11.51-.65-8.24-.85-11.25-4.67-10.31-12.82.42-3.67,1-7.33,1.31-11a15.5,15.5,0,0,0-2.29-10.61,12.4,12.4,0,0,1-1.45-11.44,21.88,21.88,0,0,0,1-10.23A15.6,15.6,0,0,0,38,288.74a14.69,14.69,0,0,0-1.69-1.57A36,36,0,0,1,24.06,271.6a19.8,19.8,0,0,0-1.39-2.39c-.07-.12-.23-.18-.66-.5.73,3.23,1.34,6.18,2.09,9.1.53,2.11.49,4-1.48,5.35a4.47,4.47,0,0,1-5.77-.37,83.6,83.6,0,0,1-6.26-6.09c-1.13-1.16-2-2.52-3.16-3.67A9.54,9.54,0,0,1,5,262.83a120.36,120.36,0,0,0,5.73-40,3.77,3.77,0,0,1,.18-.86c3.14.17,5.17,3.15,7.22,10.62,3.11-1.71,5.89-3.67,7.64-6.8a7.39,7.39,0,0,0,.39-7.11,43.62,43.62,0,0,0-5-7.66c-1.76-2.14-3.41-2-5.22.11-1.29,1.51-2.35,3.23-3.52,4.85-.56.79-1.15,1.57-2.21,3-.84-1.9-1.86-3.2-1.92-4.55-.29-6-.81-12-.3-17.92.66-7.71,2.22-15.36,3.42-23A19.7,19.7,0,0,1,12.12,171Z"/><path d="M288,331.27l-2.37-.91-.59.43c.77,1.16,1.31,2.6,2.34,3.44,5,4,4.11,5.32-1.38,7.87-6.61,3.06-12.77,3.2-19.06-.58-2.56-1.55-5.32-2.75-8-4.17a6.11,6.11,0,0,1-2-1.55,3.1,3.1,0,0,1-.69-2.21c.12-.49,1.15-1,1.81-1a19.12,19.12,0,0,1,3.47.4c-4.91-3.49-4.42-5.82-1-7.62a43.6,43.6,0,0,1-2.34-4.56c-.65-1.73-1.71-2.47-3.34-1.66-4.95,2.49-9.21,1-13.31-2-2.95-2.17-5.85-2.47-9.14-.32s-6.62.49-6.89-3.49c-.22-3.44-1.89-5.7-4.5-7.59-3.31-2.39-3.5-3.91-.91-7.38-1.67-1.35-.89-2.69.15-4.09a9.59,9.59,0,0,0,.33-10.95,4.77,4.77,0,0,0-2.14-1.52c-.76-.3-1.7-.12-2.49-.37-1.45-.47-3.76-.82-4-1.73-.39-1.29.65-3.08,1.27-4.57a4.25,4.25,0,0,1,1.62-1.61c3.18-2.05,1.67-7.66-1.52-8.71-1.61-.53-3.27-.87-4.88-1.37a11.83,11.83,0,0,1-3.6-1.45c-.88-.67-1.33-1.91-2-2.9a29.94,29.94,0,0,1,2.92-.78c1.25-.2,2.53-.26,3.79-.39l.31-.9a18.55,18.55,0,0,0-3.23-1.83c-1.51-.51-3.18-.59-4.71-1-1.71-.53-2.81-1.74-2.53-3.63s1.9-2.33,3.48-2.31a9.48,9.48,0,0,1,4,.7c2.48,1.23,4.37.48,6.39-1a7.51,7.51,0,0,1,3.7-1.49c1.5-.09,2.7.73,2.08,2.67-.17.5-.16,1.06-.28,1.58-.43,1.77.33,2.87,1.93,2.35a52.44,52.44,0,0,0,7.78-3.26,4.54,4.54,0,0,0,2.39-4.65,16.69,16.69,0,0,1,.32-3.44c.31-2.24,1.67-3.42,3.8-4.13a14.79,14.79,0,0,0,4.82-2.47,3.34,3.34,0,0,0-.16-5.56,15,15,0,0,0-5.19-2.17c-2.38-.58-5-.55-6.53-2.87-.5-.76-1.05-2-.76-2.64a3,3,0,0,1,2.48-1,61.13,61.13,0,0,1,7.71,1.3c2,.48,3.94,1.27,5.91,1.94,4.14,1.42,8.08,1.37,11.93-1.1a17.34,17.34,0,0,1,5.12-2c2.06-.5,2.77.45,2,2.41-.88,2.36-1.77,4.72-2.69,7.06-.63,1.6-1.72,2.32-3.46,1.68-.63-.23-1.28-.43-2.5-.83.77,1.39,1.31,2.34,1.81,3.3a17.92,17.92,0,0,1,1.7,3.5c.76,2.91-1.13,4.85-4.09,4.39l-2.34-.38c.15,2.06,1.23,2.75,2.92,2.67.92,0,1.83-.26,2.75-.31,3.75-.22,5.72,2.24,4.75,5.91-.41,1.55-.85,3.09-1.21,4.65a4.55,4.55,0,0,0,.25,1.37,9.42,9.42,0,0,0,3.94-5.61,34.56,34.56,0,0,1,5.44-11.84c1-1.41,1-3.74,1.09-5.66,0-1.73-.67-3.48-.72-5.23a3,3,0,0,1,1.15-2.41,3.4,3.4,0,0,1,2.92.2,7.35,7.35,0,0,1,2.61,3.14,135,135,0,0,1,4.79,13.9c1,3.92-.42,7.22-4,9.49a16.81,16.81,0,0,0-4.4,4c2.89-2,5.8-4.09,8.64-6.2a2.29,2.29,0,0,0,.74-1.56c.37-6.29-.21-12.46-2.86-18.28-1.74-3.82-4.33-6.43-8.86-6.72a4.21,4.21,0,0,1-3.13-1.75c-.33-.71.5-2.43,1.31-3.13a73.6,73.6,0,0,1,6.48-4.68c3.27-2.26,6.58-4.46,9.85-6.72a55.81,55.81,0,0,1,5.46-3.82,9.37,9.37,0,0,1,9.26.29,20,20,0,0,0,5.37,1.92,22,22,0,0,1,12,6.81c2.6,2.85,2.57,4.59.07,7.45-2.22,2.54-3.62,5.29-3.16,8.8a19.77,19.77,0,0,1,0,3.92,16.17,16.17,0,0,0,2.9,11.13,13.9,13.9,0,0,1,2.76,9.77c-.34,3.29,1.05,6,2.87,8.54,1.42,2,2.72,4.14,1.16,6.58a8.19,8.19,0,0,1-7.14,4c-2.59,0-4.05-1.73-3.37-4.25.51-1.91,1.59-3.66,2.19-5.55.36-1.11,1.46-2.71-.37-3.33-.59-.2-1.77,1.17-2.59,1.92a3.85,3.85,0,0,0-.77,1.41c-1.51,3.89-4.07,5.82-8.51,5.45a7.71,7.71,0,0,0-4.92,1.93,17.6,17.6,0,0,0-5.88,9.7c-.87,3.78.11,6,3.52,7.85,2,1.11,4.12,2.09,6.13,3.22a7.17,7.17,0,0,1,3.82,6.63,11.63,11.63,0,0,0,1.17,4.81c1.72,3.45.82,6.94-2.87,8.35a37.78,37.78,0,0,1-8.51,1.92,11.57,11.57,0,0,0-7.05,3.43c-1.47,1.46-3.55,2.33-5.41,3.36-2.72,1.49-2.82,3.22-.17,4.92,1.22.79,2.59,1.39,3.73,2.27A3.26,3.26,0,0,1,288,331.27Z"/><path d="M42.26,128.87l-5.74-1.71c-1.22,1.24-.77,2.12.74,2.57s3.29.75,4.94,1.16c6.31,1.54,8.13,7.77,3.62,12.59a1.93,1.93,0,0,1-1.79.39c-2.21-1.29-4.69-2.41-6.39-4.23-2.38-2.57-4.09-5.75-6.22-8.57-1.69-2.23-3.59-4.31-5.57-6.67l-3.35,4.78a10.71,10.71,0,0,1-.89-1.77,14.76,14.76,0,0,1,.89-10.36c2-4.15,4.19-8.21,6.4-12.25q5.41-9.92,11-19.74a69.76,69.76,0,0,1,4.45-6.72,4.52,4.52,0,0,1,5.93-1.53c1.83.79,3.67,1.58,5.48,2.42,2.88,1.34,5.77,1.15,8-1,5.13-5,11.19-5.36,17.8-4.6,18.67,2.17,33.4-7.22,39.58-24.95,1.46-4.21,2.9-8.43,4.53-12.58a37.83,37.83,0,0,1,3.08-5.92c4.1-6.67,9.94-9.81,17.89-8.59a19.71,19.71,0,0,0,16.63-5.1c1.5-1.32,2.92-2.73,4.41-4.06A49.45,49.45,0,0,1,172.9,8a27,27,0,0,1,6-2.84c1-.34,2.3.1,3.46.18-.25,1.2-.17,2.61-.8,3.54-1.6,2.35-3.54,4.45-5.29,6.69a53.35,53.35,0,0,0-3.5,4.86,8.54,8.54,0,0,0-.17,9c.82,1.48,1.64,3,2.58,4.37a25.32,25.32,0,0,1,4.09,14.41c0,5,.35,10,.47,15,.21,8-2.45,14.9-8.85,19.85-3.66,2.83-6.12,5.94-5.89,10.76a5.36,5.36,0,0,1-4.16,5.87c-2.81.84-4.8-.69-6.36-2.69-1.79-2.3-3.26-4.84-5-7.2a17.36,17.36,0,0,0-3.19-3.58c-1.24-.94-2.41-1.22-4.22,0a8.73,8.73,0,0,1-6.57.86c-5-1.47-9.38-.26-13.79,1.75a25.18,25.18,0,0,1-12.59,2.25A27.76,27.76,0,0,0,95.21,93.5a37,37,0,0,1-3.93,1.33c-2.13.71-3.66.38-3.73-2.47C79.9,93.43,72,92.21,65.19,97a5.66,5.66,0,0,1-3.44,1,8.51,8.51,0,0,0-7,2.86,50.18,50.18,0,0,0-4.89,5.8c-2.59,3.54-4.87,7.31-7.58,10.74-2.23,2.81-2.44,5.48-.69,8.48.45.76.79,1.59,1.17,2.39Z"/><path d="M125.22,293.6c-.43-1-.73-1.78-1.14-2.54a9.37,9.37,0,0,0-1.48-2.32c-1.15-1.12-2.52-2-3.69-3.1a1.84,1.84,0,0,1-.51-1.6c.17-.39,1-.65,1.52-.72a20.71,20.71,0,0,1,2.73,0l.33-.75a13.36,13.36,0,0,0-2.52-1.41c-1.48-.47-3.9-.15-3.79-2.14a7.51,7.51,0,0,1,2.76-4.67c3-2.42,7-1.84,9.82.94s4.49,2.74,6.89-.45c1.62-2.15,3.65-2.89,6.13-3.56,3-.81,5.74-2.45,8.57-3.76.77-.36,1.48-.82,2.22-1.24,3-1.7,3.09-1.66,4.74,1.9l1.7-6.48c1.72,1.34,3.23,2.33,4.52,3.55,2.68,2.54,5.25,5.19,7.85,7.82,1.58,1.6.23,7.5-1.88,8.34a12.27,12.27,0,0,0-1.42.67c-.09,0-.08.28-.32,1.14,1.77-.17,3.45,0,4.81-.55a14.24,14.24,0,0,0,4.95-3.28c.64-.7.44-2.56.06-3.7-.57-1.73-1.13-3,1.24-3.8.44-.14.47-1.69.61-2.6.21-1.36.36-2.73.53-4.1,1.24.69,2.79,1.12,3.66,2.13a75,75,0,0,1,6.47,8.61c1.81,2.87,1.13,5.72-1.08,8.27-3.37,3.91-3.35,4.73-.33,8.92,2,2.81,4.12,5.57,5.89,8.53,1.39,2.33.92,2.78-1.59,4a3.11,3.11,0,0,0-1.2,2.71,14.05,14.05,0,0,0,1.83,4.44,10.75,10.75,0,0,1,.1,11.19c-1.22,2.31-2.4,4.65-3.65,6.94a6.33,6.33,0,0,1-6.11,3.73,13,13,0,0,0-4.61,1.17c-7.73,2.94-14.91,1.42-21.77-2.6-1.69-1-3.22-2.24-4.91-3.43-.16.48-.28.64-.24.74.54,1.28,1.41,2.85-.2,3.64-.87.42-2.4-.2-3.5-.66a20.43,20.43,0,0,1-4-2.22c-.87-.6-2.1-1.46-2.14-2.26a5,5,0,0,1,1.4-3.34c1-1.07,3.22-1.31,2-3.6a4.35,4.35,0,0,0-5.54-1.87c.11,1.11.52,2.32.24,3.35s-1.24,1.75-1.9,2.61a16.11,16.11,0,0,1-2.25-1.93,4,4,0,0,1-.7-1.93c-.52-3-1.71-5.36-4.76-6.79-2.31-1.08-2.38-3.2-1-5.44a3.54,3.54,0,0,0,.63-2.49c-1-3.28-1.85-6.55-5.55-8.24-3.52-1.61-3.44-2.19-.85-5.14A6.6,6.6,0,0,0,125.22,293.6Z"/><path d="M245.28,362.9c1.6-1.94,2.74-3.28,3.83-4.66a4.26,4.26,0,0,0,.78-1.47c.76-2.89,3.17-3.8,5.34-1.74a25.51,25.51,0,0,1,3.32,4.64c1.83,2.81,3.47,5.76,5.45,8.46,1.75,2.39,2.88,4.74,2.57,7.86-.14,1.44.67,3.06,1.32,4.47.77,1.65,1.7,3.19.46,5s-3.09,1.9-5,1.6c-3.49-.56-7-1.23-10.45-1.85-2.71-.48-5.18.1-6.82,2.35-4.29,5.87-11.66,4.79-15.63-1.1a5.46,5.46,0,0,1-.54-.75c-3.08-6.65-8.56-9.9-15.52-11.3a34.38,34.38,0,0,1-7.12-2.6c-1.6-.72-3.26-1.68-3.13-3.85.1-1.56,2.46-3.59,4.41-3.94.45-.09,1,0,1.36-.16.81-.44,1.92-.89,2.19-1.6a3.33,3.33,0,0,0-.62-2.61,38.75,38.75,0,0,0-3.4-3.75c-1.6-1.7-1.61-3.55-.6-5.53a4.85,4.85,0,0,1,4.89-2.73,21.3,21.3,0,0,0,6.95-.85,6.33,6.33,0,0,1,6.66,1c3.32,2.74,6.52,5.64,9.9,8.3C239.14,358.59,242.54,360.9,245.28,362.9Z"/><path d="M270.06,391.34a10.36,10.36,0,0,1,.46-2.24c2.4-5.74.9-11.23-1.23-16.56-2.51-6.26-5.23-12.46-8.14-18.54-.48-1-2.38-1.41-3.69-1.93-1.52-.62-2.54-1.47-2.14-3.28.47-2.11,4-3.4,5.68-1.84s2.85,1.81,4.54,0c1.09-1.17,3.65.17,3.94,2.12s.91,2.12,2.57,1.41a3.34,3.34,0,0,1,2.53.2,72,72,0,0,1,6.68,3.92,32.69,32.69,0,0,1,5.76,4.46c1.8,1.9,1.78,4.26-.33,5.67-7.07,4.71-8.54,12-9.7,19.55a54.55,54.55,0,0,1-2,8c-.42,1.32-1.06,3.23-2.88,2.55-1.06-.4-1.65-2.06-2.45-3.15Z"/><path d="M50.05,116.4c-1.57-2.41-1.51-3.06.58-5.68a11.79,11.79,0,0,1,7.22-4.2,5.38,5.38,0,0,0,3.84-2.82,24.62,24.62,0,0,1,3.79-4.61c1.34-1.28,2.87-3,5-1.38,1.58,1.17,1.58,5.12,0,6.77a18.3,18.3,0,0,1-3.39,2.75c-1.73,1.09-2.53,2.62-2,4.49,1,3.9-.39,7.27-2,10.6a65.74,65.74,0,0,1-4.29,7.87c-2.18,3.3-6.08,4-8.94,1.28a72.21,72.21,0,0,1-7.18-8.66c-.24-.31.18-1.55.64-1.89C45.44,119.35,47.7,118,50.05,116.4Z"/><path d="M199.41,323.87c3.32.17,5,1.92,4.4,5a50.32,50.32,0,0,1-2.55,8.33,30.35,30.35,0,0,1-2.79,5.55,40.23,40.23,0,0,0-6,14.85,23.85,23.85,0,0,1-1.4,3.89c-1.06,2.94-2.12,5.88-3.16,8.83-.58,1.66-1,3.41-1.71,5-.94,2-2.53,2.09-3.76.18a4.56,4.56,0,0,1-.71-2.6,10.19,10.19,0,0,0-3.32-8.27,14.5,14.5,0,0,1-1.34-1.84c2.33-2.08,4.54-4.18,6.9-6.1,1.29-1,1.92-2.11,1.39-3.75a5.81,5.81,0,0,1,1.07-5.43c1.74-2.35,3.44-4.72,5.19-7.06C195.36,335.51,198.56,330.31,199.41,323.87Z"/><path d="M129.8,352.94c-2.42-.26-5.2-.52-5.68-3.84-.1-.66.65-1.45,1.1-2.38-1.2-2.12-2.51-4.6-4-7-.3-.46-1.36-.6-2.07-.61-2.47,0-4.84-.05-5.58-3.18-.08-.38-1-.48-1.44-.86-.58-.55-1.3-1.2-1.4-1.89-.06-.41.85-1.17,1.47-1.45,6.42-2.92,11.28-1.76,16.28,4a7.88,7.88,0,0,0,4.76,2.91,4.6,4.6,0,0,1,4.09,4.34c.29,2.83,1,5.4,3.4,7.28a2.65,2.65,0,0,1,.52,2.26c-1,3.79-6.91,6.91-10.41,5.35-1.1-.49-1.84-2-2.48-3.15C128.2,354.56,129.2,353.68,129.8,352.94Z"/><path d="M284.39,350.27c.13-4.51,2.21-6.81,6.79-7.5,3.49-.53,3.53-.58,3-4.09-.46-3.17.46-4.09,3.54-3.18q6.83,2,13.54,4.42c3.05,1.09,4.25,3.54,3.61,6.61-.44,2.1-1.67,2.87-3.69,2.28a10.15,10.15,0,0,1-1.28-.53c-5.86-2.7-11.24-1.38-15.26,3.75l-1.25,1.66c-2.06,2.7-3.37,3.29-5.56,2.51S284.31,353.22,284.39,350.27Z"/><path d="M183.69,229.54c1.1.18,2.83.09,3,.57a4.65,4.65,0,0,1-.11,3.65A28.38,28.38,0,0,0,182.34,244c-.59,3.07-4,3.93-6.31,1.76a13.05,13.05,0,0,1-2.73-4.17,3.85,3.85,0,0,1,1.51-5c.51-.35,1-.69,1.5-1.08,2.72-2.16,2.66-5-.12-7.1-3.76-2.85-3.46-8.1.79-10.16.8-.38,2.78.42,3.47,1.27C182.85,222.45,184.86,225.67,183.69,229.54Z"/><path d="M167.5,356.45a18.32,18.32,0,0,0,2-2.46c.84-1.49,1.82-1.66,3.22-.82a6.52,6.52,0,0,1,2.95,7.15c-.34,1.25-.9,2-2.28,1.29-2.25-1.13-3.89-.7-5.55,1.38a3.38,3.38,0,0,1-6-1.11c-1.14-3.59-3.58-6-6.32-8.3-2.24-1.88-4.55-3.81-5.12-6.89a19.26,19.26,0,0,1,.07-4c1.25.4,2.72.52,3.69,1.28,2.11,1.63,3.91,3.67,6,5.38a4.22,4.22,0,0,0,2.87,1.15c4.52-.81,5.18-.23,4.13,4.18-.1.43-.18.86-.26,1.29Z"/><path d="M221.63,57.17c0,2.49-.8,3.19-3.26,3.42a3.57,3.57,0,0,0-2.29,1.34c-1.68,2.38-3,5-4.74,7.35s-3.57,2.52-6,1c-2.2-1.37-4.42-2.72-6.55-4.17a1.83,1.83,0,0,1-.47-1.53,5.12,5.12,0,0,1,5.09-4.49,7.91,7.91,0,0,0,5.71-2.5A13.3,13.3,0,0,1,218,54C220.62,53.9,221.64,54.63,221.63,57.17Z"/><path d="M32,328.47c-.62,0-1.23,0-1.84,0-1.68-.06-2.22-.67-1.78-2.51a39.89,39.89,0,0,0,.5-6.12,32.48,32.48,0,0,1,.46-4.54,3.19,3.19,0,0,1,3.33-2.62,16.85,16.85,0,0,0,2.19-.41,3.49,3.49,0,0,1,3.9,1.77c.77,1.34-.18,2-1.1,2.81-1.76,1.58-1.62,3.71-1.1,5.78C37.81,327.51,37.11,328.43,32,328.47Z"/><path d="M180,350.28c-3.59-.06-7.22-4-7.13-7.72a4.44,4.44,0,0,1,4.62-4.67c3.93.05,8,3.57,7.94,6.94A5.61,5.61,0,0,1,180,350.28Z"/><path d="M25.13,281.32c2.09,1.05,4,1.66,5.37,2.82.76.63.89,2.18,1,3.35s-.2,2.15-.1,3.2c.19,1.89.77,3.77.77,5.66,0,2.39-1.86,3.32-3.75,1.87a7.34,7.34,0,0,1-2.14-3.13,25.3,25.3,0,0,1-2-6.78C24.08,286.07,24.8,283.74,25.13,281.32Z"/><path d="M236,350.7c-2.77-.09-4.35-1.26-4.26-3.14.14-2.75,1.2-4.2,3-4.12,2.28.09,5.09,2.64,5.09,4.63C239.85,349.79,238.41,350.77,236,350.7Z"/><path d="M246.53,344.29c-.2,1.31-.68,2.67-2.54,2.75-1.41.06-3.16-2-2.94-3.82.12-.93.86-2.35,1.58-2.53C244.45,340.23,246.49,342.21,246.53,344.29Z"/><path d="M321.07,230.05c2.27-1.09,4.08-1.13,5.41.16a3.51,3.51,0,0,1,.68,3.13c-.63,1.4-2.1,1-3.09.15A41.74,41.74,0,0,1,321.07,230.05Z"/><path d="M160.27,246c-.09,1.76-2.48,4-4.09,3.79-.41-.06-1.11-1.15-1-1.32a14.56,14.56,0,0,1,3.06-3.92C159.58,243.57,160.25,244.68,160.27,246Z"/><path d="M167.79,227.31c-1.07-1.15-2.26-1.87-2.28-2.62s1.1-2.19,1.73-2.19c1.45,0,3.68-.25,3.81,1.82C171.1,225.12,169.23,226.05,167.79,227.31Z"/><path d="M329.92,265.13c-2.87-1.4-3.62-3.13-2.82-6.23C330.06,259.66,331.42,262.59,329.92,265.13Z"/></svg>