<svg id="Layer_1" data-name="Layer 1" xmlns="http://www.w3.org/2000/svg" width="410" height="400" viewBox="0 0 410 400"><defs><style>.cls-1{fill:#3da369;}.cls-2{fill:#4bc881;}</style></defs><path class="cls-1" d="M243.66,303.17q-24.14-24.07-48.19-48c-19-18.86-47.86-13.57-61,1.51-13.3,15.32-17.21,38.83-.34,57.06,15.71,17,32.66,32.77,48.91,48.93H5.1V5H290c0,.61.15,1.35.15,2.08q0,122.51.05,245a10.32,10.32,0,0,1-3.31,8.18C272.35,274.45,258,288.85,243.66,303.17ZM60.93,188.1h0c-6.74,0-13.47,0-20.21,0-2.54,0-3.79,1-3.78,3.6Q37,212,37,232.38c0,2.31,1,3.38,3.38,3.37q20.35,0,40.71,0c2.63,0,3.63-1.18,3.62-3.75q-.08-20.06,0-40.12c0-2.74-1.07-3.87-3.83-3.83C74.21,188.16,67.57,188.1,60.93,188.1Zm-.09-75.63v0c-6.63,0-13.26,0-19.9,0-3.36,0-4,.6-4,3.9q0,19.76,0,39.51c0,3.45.66,4.14,4.12,4.15q19.76.07,39.51,0c3.49,0,4-.59,4-4.17q0-19.75,0-39.51c0-3.37-.59-4-3.9-4Q70.8,112.45,60.84,112.47ZM84.65,60.58h0q0-9.36,0-18.73c0-4.69-.3-5-4.92-5q-19.17,0-38.34,0c-3.88,0-4.41.5-4.41,4.36q0,19.45,0,38.92c0,3.61.67,4.39,4.2,4.39q19.61,0,39.22,0c3.61,0,4.25-.7,4.26-4.3C84.66,73.65,84.65,67.12,84.65,60.58Zm70.27,87.67v0q-27.37,0-54.76,0c-6.94,0-6.94,0-6.89,6.83,0,4.84.3,5.1,5.17,5.1l111.27-.07c6.88,0,6.88,0,6.83-7,0-4.51-.35-4.86-4.82-4.86Zm0,75.62v0q-27.1,0-54.21,0c-7.53,0-7.53-.06-7.41,7.51.07,4.07.47,4.46,4.62,4.46l111.63,0c7.09,0,7.09,0,7.06-7.06,0-4.46-.38-4.84-4.85-4.85Zm.05-139.21v0q27.23,0,54.46,0c7.26,0,7.26,0,7.14-7.19-.07-4.09-.44-4.47-4.6-4.47q-55.78,0-111.55,0c-7.23,0-7.23,0-7.15,7.19,0,4,.5,4.49,4.61,4.49Z"/><path class="cls-2" d="M243.16,317.94c12.31-11.86,24.76-23.58,36.9-35.61,23.67-23.44,47.14-47.08,70.75-70.58,10.55-10.5,23.7-12.54,37.1-6,18.82,9.19,22.84,34.61,7.86,50.15-6.17,6.4-12.54,12.6-18.82,18.89q-54.9,54.92-109.81,109.84c-9.75,9.74-21.29,12.84-34.34,8.32a29.69,29.69,0,0,1-10.75-6.78q-38.7-38.18-77-76.73c-5.43-5.43-9.46-11.63-10.52-19.46-1.73-12.83,5.15-26.51,16.3-32.2,12.65-6.47,27-4.62,36.87,5.13,17.9,17.75,35.63,35.65,53.41,53.51a27.52,27.52,0,0,1,2.16,2.75Z"/><path class="cls-2" d="M72.7,223.81H49.07V200.22H72.7Z"/><path class="cls-2" d="M72.88,124.25v23.84H49V124.25Z"/><path class="cls-2" d="M73,48.5v24H49.09v-24Z"/></svg>