<svg id="Layer_1" data-name="Layer 1" xmlns="http://www.w3.org/2000/svg" width="800" height="800" viewBox="0 0 800 800"><path d="M315.08,464c-1.77,3.09-3.31,5.62-4.7,8.22-15,27.94,3.12,60.48,34.77,61.32,28,.74,55.94.44,83.92.36,14.33,0,26.48-6,37-15.36,27.19-24.28,25.39-77.11-16-96.24-3.55-1.64-7.11-3.24-11.37-5.18,1-4.25,2.08-7.69,2.58-11.22.8-5.57,2.12-11.27,1.63-16.78-2.15-23.83-21.81-44.6-43.64-46.83-29.28-3-50.41,10.34-58.57,36.86-1.05,3.42-2.38,6.75-3.44,9.72C295.7,393.81,282,436.56,315.08,464Z"/><path d="M647.31,679.9c-7.88-2-348.46-2.42-360.81-.35-3.66,7-3.67,13.73.17,21.23,3.37.23,6.64.66,9.91.66q170.22.07,340.46,0a101.17,101.17,0,0,0,10.57-1.07C650.29,692.8,650.9,686.21,647.31,679.9Z"/><path d="M522.76,656.11c37.3,0,74.59,0,111.88-.05,4.47,0,8.94-.81,13.71-1.28,1.28-7.82,2.69-14.22-1.3-21.36-4.36-.26-8.93-.76-13.49-.76q-124.36-.06-248.73,0c-9.31,0-18.62,1.12-27.92,1.06-19.93-.13-39.86-.77-59.79-1-3.83,0-7.67.81-12.25,1.33v21.07c6.38.38,11.25.92,16.13.92Q411.88,656.16,522.76,656.11Z"/><path d="M277.36,175.89c-2.43-19.12-18-27.84-35.75-20.35-2.62,1.1-5.28,2.09-9.17,3.63-1.26-12.48-1.86-23.48.68-35.89,7-.4,13.55-.69,20-1.14,6.83-.48,13.94,1.43,20.54-2.11,2.09-5,2.63-9.69-.53-14.09-11.49-2.86-54.08-2.2-62.47,1.37-1.15,25.57-.89,51.67-.09,77.92,13.56,4.41,16.23,3.45,21.5-6.5a20.25,20.25,0,0,1,2-3.42c5.32-6.5,14.05-6.21,18.51.87a17.34,17.34,0,0,1,2.81,8.38c.3,13,.57,26,0,38.93-.39,8.53-5.35,12.87-12.43,12.82-6.79,0-10.91-3.84-12.26-12-.71-4.24-.47-8.64-1-12.92-.76-5.69-3.18-7.35-9.79-7.35s-9.11,1.7-9.73,7.39a83.85,83.85,0,0,0-.12,12c.79,21.92,11.33,32.21,33.22,32.22a51.1,51.1,0,0,0,12.81-1.54c14.23-3.73,21.23-12.53,21.65-27.3.32-11.31.15-22.64.1-34C277.85,187.19,278.07,181.47,277.36,175.89Z"/><path d="M190.26,106.19c-13.64-3.48-16.53-2.59-24.42,6.89-3.62,4.35-7.26,8.68-10.83,13.06-5.45,6.68-6.32,15.81-2.42,24.68,5.79-1.61,7.58-9.15,15.2-10.23.22,4.48.58,8.35.58,12.22.06,29,0,57.91.11,86.87,0,4.17.76,8.34,1.24,13.28h20.81c.5-4.51,1.16-7.73,1.16-11q.12-62.92,0-125.83C191.69,112.7,190.72,109.22,190.26,106.19Z"/><path d="M591.24,484.55c-7.76,4.38-13.89,4.57-22,0-13.54-7.68-28.05-7.56-41.78.78-2.94,1.78-6.49,3.53-6.06,8.82a30.92,30.92,0,0,0,5-.5c15.88-4.31,30.42-1,43.49,8.41,8,5.8,9.8,7.41,20,.13,13.62-9.68,28.81-13.39,45.38-7.9,1.27.42,2.85-.09,5.05-.21-2.47-6.36-7.07-9-11.79-11.29C615.83,476.54,603.13,477.84,591.24,484.55Z"/><path d="M383.92,564.48q-.19,15.46,0,30.94c0,3.25.58,6.5.94,10.23,7.49,2.48,13.47,3.16,20.39-.87.75-16.72,1.45-33.73-.48-50.67-3.18-.89-5-1.69-6.94-1.88C386.67,551.13,384.06,553.4,383.92,564.48Z"/><path d="M486.11,400.77c14.7-5,28.11-1.8,40.72,6.37,4.28,2.77,8,2.18,11.72-1.11,10.88-9.52,23.45-13.36,37.83-10.91.85.15,1.83-.47,2.76-.73l2.18-2.95c-2-1.08-4-2.12-6-3.25-8.94-5.15-19.17-6.52-27.76-2.1-11.44,5.88-21.24,7.17-33.41,1.86-10-4.35-20.26-.33-28.4,7.19-1.16,1.08-1.5,3.06-2.24,4.66C484.92,400.35,485.64,400.93,486.11,400.77Z"/><path d="M577.18,353.47c5.8,3.48,10.38,9,15.75,13.9,12.47-5,24.72-5,38.08,1.82-.91-3.33-1-5-1.75-6.16-4-5.78-9.72-10.26-16.57-9.74-11.43.85-20.81-1.37-30.1-8.76-7.05-5.61-18.79-2.92-23.75,2.5C564.93,349.06,571.7,350.18,577.18,353.47Z"/><polygon points="359.08 158.27 340.08 158.27 340.08 98.51 332.67 98.51 332.67 165.01 359.08 165.01 359.08 158.27"/><rect x="365.16" y="98.51" width="7.41" height="66.5"/><polygon points="400.5 165.01 412.28 98.51 405.44 98.51 395.85 154.94 386.25 98.51 378.75 98.51 390.62 165.01 400.5 165.01"/><polygon points="445.72 158.27 425.87 158.27 425.87 133.66 442.02 133.66 442.02 126.92 425.87 126.92 425.87 105.26 445.72 105.26 445.72 98.51 418.46 98.51 418.46 165.01 445.72 165.01 445.72 158.27"/><polygon points="461.11 165.01 468.52 165.01 468.52 105.26 480.3 105.26 480.3 98.51 449.33 98.51 449.33 105.26 461.11 105.26 461.11 165.01"/><path d="M340.08,226.42h7.13c10.26,0,15-5.32,15-16.06v-5.7c0-10.73-4.75-16.15-15-16.15H332.67V255h7.41Zm0-31.16h7.13c5.22,0,7.6,2.37,7.6,8.93v6.55c0,6.56-2.38,8.93-7.6,8.93h-7.13Z"/><path d="M371.72,240.86h15.39L389.58,255h7.5l-12.44-66.5h-10L362.31,255h6.94Zm7.6-43.9L386,234.4H372.86Z"/><path d="M379.7,183.57a7.51,7.51,0,1,0-7.6-7.5A7.42,7.42,0,0,0,379.7,183.57Zm0-11.11a3.45,3.45,0,0,1,3.42,3.61,3.37,3.37,0,0,1-3.42,3.51,3.3,3.3,0,0,1-3.33-3.51A3.38,3.38,0,0,1,379.7,172.46Z"/><polygon points="418.74 188.51 418.74 255.01 445.15 255.01 445.15 248.27 426.15 248.27 426.15 188.51 418.74 188.51"/><path d="M458,240.86h15.39L475.84,255h7.5l-12.44-66.5h-10L448.57,255h6.94Zm7.6-43.9,6.65,37.44H459.12Z"/><polygon points="496.26 200.96 513.08 255.01 520.77 255.01 520.77 188.51 514.03 188.51 514.03 236.01 499.02 188.51 489.52 188.51 489.52 255.01 496.26 255.01 496.26 200.96"/><path d="M560.1,238.86v-34.2c0-10.73-4.75-16.15-15-16.15h-15.2V255h15.2C555.35,255,560.1,249.6,560.1,238.86Zm-22.8,9.41v-53h7.6c5.22,0,7.79,2.47,7.79,9v34.87c0,6.55-2.57,9.12-7.79,9.12Z"/></svg>