<svg id="Layer_1" data-name="Layer 1" xmlns="http://www.w3.org/2000/svg" width="800" height="800" viewBox="0 0 800 800"><path d="M448,662.45c.51,9.43,2.55,11.71,12.15,11.8q29,.29,57.95,0c9.51-.11,12.45-3,12.62-12.78.31-19.33.27-38.66,0-58-.1-8.13-1.92-10.07-10-10.65-11.27-.81-22.6-1.08-33.91-1.31-8.65-.17-17.33-.24-26,.25-10.68.61-12.51,2.89-12.92,13.44-.18,4.53-.69,9-1,13-18.89,7.45-102.54,9.75-116.42,3.25-1.51-13.35-2.25-27,.7-41.21,3.8-.94,7-1.72,10.16-2.52,7.11-1.78,14.33-3.19,21.29-5.42,35.54-11.39,59.55-34.17,69.51-70.82,3.37-12.4,3.52-25,3.53-37.68,0-13,1-26,5.93-38.29,6.11-15.32,23-26.38,39.44-25.12.88,4,1.83,8.48,2.81,12.91s2,9,3,13.46l1.11-.38q-1.89-13.2-3.77-26.39l9.55-5.61c-7.65-3.4-8.73-9.16-7.19-16.63l-5.49,6L470,373c-7.46-7.16-16.13-9.64-25.62-5.09a133.07,133.07,0,0,0-20.53,12.18c-6.45,4.66-12.27,10.23-18.12,15.66-28.54,26.47-60,28.66-91.42,5.52-9.34-6.87-17.61-15.22-26.22-23.06-26.1-23.73-55.85-38.39-92-37.28a63.45,63.45,0,0,0-7.75,1.22c5.06,7.35,10.43,13.43,13.79,20.47,4,8.35,6.65,17.41,9.1,26.38,3.51,12.85,5.58,26.12,9.56,38.81,9.42,30,26.23,53.1,59.58,59.39,1.93.37,3.61,2,5.21,2.93-10.16,9.29-19.69,18-29.23,26.7-13.71,12.49-29.31,20.78-48.26,21.38-4.77.16-9.55,0-14.33,0a488.41,488.41,0,0,0,45.92,28.38c16.26,8.83,34.68,10.87,53.1,14.05a134.71,134.71,0,0,1,.05,40.49c-9.78,3.06-19.11,1.64-28.29,1.49-26.3-.43-52.59-1.25-78.89-1.72-4.12-.07-8.26.88-13.12,1.44v21.25c5.6.46,9.8,1.17,14,1.09,33-.6,65.91-1.41,98.86-2,18-.33,36,.25,54-.75,28.3-1.57,56.54-2.42,84.75.89,7.47.88,14.88,2.31,23,3.6C447.43,652.62,447.74,657.53,448,662.45ZM319.48,622.13H306c-3.45-8.48-3.84-28.65-1-39.06,4.4-3.14,9.08-2.85,14.77-.36A90.93,90.93,0,0,1,319.48,622.13Z"/><path d="M161.59,175.23c-5-18.91-23.45-25.91-39.78-15.22-1.79,1.17-3.76,2.06-7.31,4-.93-13.64-2.17-25.78.83-37.77,1.69-6.78,7.19-10,13.51-9.3,5.9.64,9.72,4.48,10.9,11.2.61,3.51,1,7.07,1.4,10.37,6.56,3.22,12.23,3,19.21.2a40.49,40.49,0,0,0-5.3-29.94,16.31,16.31,0,0,0-5.62-5.52c-13.4-7.68-27.36-8-41.12-1.43-12.27,5.9-15.59,17.38-16.48,29.87-.17,2.32-.15,4.66-.15,7,0,23.63,0,47.26,0,70.89a91.58,91.58,0,0,0,.89,14.92c2.39,14.08,12.71,23.89,26.84,25.66a64.31,64.31,0,0,0,12.94.22c19-1.47,29.82-12.24,30.75-31.37.56-11.29.22-22.63,0-33.94A41.08,41.08,0,0,0,161.59,175.23ZM139.9,218.49c-.7,8.53-5,13-12,13.45-6.77.38-12.84-4.16-13.38-12.07-.76-11.24-.22-22.58.17-33.86.08-2.49,1.44-5.17,2.89-7.31a11.43,11.43,0,0,1,12.17-5c5.51,1,9.25,4.41,9.76,9.92.57,6.27.13,12.62.13,18.94H140C140,207.85,140.33,213.2,139.9,218.49Z"/><path d="M72,100.83c-9.9-3.33-17.31-1.93-23.12,5.94a77.23,77.23,0,0,1-9.65,11.42c-8.65,7.91-7.68,17.4-6,27.7,6.84-1.46,8.8-9.94,17.14-9.61.43,4.41,1.18,8.56,1.19,12.72.11,28.31,0,56.61.14,84.91,0,4.46.87,8.91,1.4,13.94H72.38c.53-4.66,1.2-7.88,1.21-11.1q.12-62.94,0-125.87C73.58,107.41,72.55,104,72,100.83Z"/><path d="M529.31,563.36a52.59,52.59,0,0,0-7.94-.5c-10.3-.05-20.61,0-30.91,0-6.64,0-13.29-.05-19.94,0s-13.31-.15-19.91.45c-5.77.52-8.56,4-8.64,9.09s2.73,8.31,8.4,9.42a25.72,25.72,0,0,0,5,.36c22.27,0,44.53.08,66.79-.09a25.75,25.75,0,0,0,9.62-2c4-1.74,5.84-5.38,5.07-9.83C536.09,566.18,533.27,564,529.31,563.36Z"/><path d="M531.07,685.15a28.66,28.66,0,0,0-9.67-1.75q-31.89-.23-63.78,0a36.34,36.34,0,0,0-9.77,1.47c-3.9,1.13-5.93,4.1-5.88,8.27,0,4.5,2.09,7.78,6.52,8.86a38.79,38.79,0,0,0,8.89.83c10.63.1,21.26,0,31.89,0s21.25,0,31.88,0a55.37,55.37,0,0,0,8-.46c4.37-.68,7.34-3.09,7.78-7.75A8.6,8.6,0,0,0,531.07,685.15Z"/><path d="M161.08,621.68c-.77-5.63-3.89-8.06-9.43-8.22s-10,2.09-10.52,7a124.59,124.59,0,0,0-.16,23.73c.41,4.77,5.42,7.64,10.32,7.51,5.12-.13,8.77-3,9.68-8.23.62-3.57.5-7.26.71-10.9h-.51C161.17,629,161.57,625.25,161.08,621.68Z"/><path d="M534,317c15.51,2.67,26.62-8.35,23.65-24.14C541.71,289.27,529.58,302,534,317Z"/><path d="M486,354.65c10.26-13.76,5.88-30.46-8.22-33.2C468.8,335,471.65,347.32,486,354.65Z"/><path d="M509.72,328.7c9.84-11.84,6.94-25.6-7.39-32.71C491.68,308.49,495.34,323.61,509.72,328.7Z"/><path d="M527.25,345.45c8.7,10.34,20.35,9.54,29-2.46C547.24,332,533.51,333.39,527.25,345.45Z"/><path d="M535.41,372.09c-8.23-12.95-21.6-14.06-30-3C513.28,380.19,523.84,381.42,535.41,372.09Z"/><path d="M499.29,358.7,517.37,337C506.65,345.68,501.49,351.36,499.29,358.7Z"/><path d="M517.69,336.66l-.16.17h0l-.16.19.19-.16Z"/><path d="M523.89,327.23q-3.09,4.72-6.2,9.43l8.09-8Z"/><polygon points="195.62 134.19 208.5 134.19 208.5 128.51 195.62 128.51 195.62 109.47 211.62 109.47 211.62 103.78 189.38 103.78 189.38 159.79 195.62 159.79 195.62 134.19"/><path d="M223,134.51h5c5.28,0,7.44,2.08,7.44,8.16V153a21.09,21.09,0,0,0,.72,6.8h6.32a20.11,20.11,0,0,1-.8-6.8V143c0-6.56-1.84-10.48-6.56-11.68v-.08c4.48-1.44,6.48-5.12,6.48-11.28v-3.44c0-8.72-3.76-12.72-12.64-12.72H216.74v56H223Zm0-25h5.84c4.64,0,6.56,2.24,6.56,7.68v4c0,5.6-2.48,7.68-7.36,7.68h-5Z"/><polygon points="271.78 154.11 255.06 154.11 255.06 133.39 268.66 133.39 268.66 127.71 255.06 127.71 255.06 109.47 271.78 109.47 271.78 103.78 248.82 103.78 248.82 159.79 271.78 159.79 271.78 154.11"/><path d="M302.74,146.19v-28.8c0-9-4-13.6-12.64-13.6H277.29v56H290.1C298.74,159.79,302.74,155.23,302.74,146.19Zm-19.2,7.92V109.47h6.4c4.39,0,6.56,2.08,6.56,7.6v29.36c0,5.52-2.17,7.68-6.56,7.68Z"/><polygon points="311.69 168.43 315.62 159.15 315.62 151.71 309.3 151.71 309.3 159.79 311.54 159.79 308.81 168.43 311.69 168.43"/><path d="M342.89,134.51h5c5.28,0,7.45,2.08,7.45,8.16V153a21.17,21.17,0,0,0,.71,6.8h6.33a20.11,20.11,0,0,1-.8-6.8V143c0-6.56-1.85-10.48-6.56-11.68v-.08c4.48-1.44,6.48-5.12,6.48-11.28v-3.44c0-8.72-3.77-12.72-12.64-12.72H336.65v56h6.24Zm0-25h5.85c4.64,0,6.55,2.24,6.55,7.68v4c0,5.6-2.47,7.68-7.36,7.68h-5Z"/><polygon points="391.69 154.11 374.97 154.11 374.97 133.39 388.57 133.39 388.57 127.71 374.97 127.71 374.97 109.47 391.69 109.47 391.69 103.78 368.73 103.78 368.73 159.79 391.69 159.79 391.69 154.11"/><polygon points="404.65 159.79 410.89 159.79 410.89 109.47 420.81 109.47 420.81 103.78 394.73 103.78 394.73 109.47 404.65 109.47 404.65 159.79"/><polygon points="432.17 134.19 445.05 134.19 445.05 128.51 432.17 128.51 432.17 109.47 448.17 109.47 448.17 103.78 425.93 103.78 425.93 159.79 432.17 159.79 432.17 134.19"/><path d="M450.73,159.79l3.6-11.92h11.12v11.92h22.88v-5.68H471.69V133.39h13.52v-5.68H471.69V109.47h16.64v-5.68H462.09l-17.36,56Zm14.72-48.4v31H456Z"/><path d="M500.09,134.51h5c5.28,0,7.44,2.08,7.44,8.16V153a21.09,21.09,0,0,0,.72,6.8h6.32a20.11,20.11,0,0,1-.8-6.8V143c0-6.56-1.84-10.48-6.56-11.68v-.08c4.48-1.44,6.48-5.12,6.48-11.28v-3.44c0-8.72-3.76-12.72-12.64-12.72H493.85v56h6.24Zm0-25h5.84c4.64,0,6.56,2.24,6.56,7.68v4c0,5.6-2.48,7.68-7.36,7.68h-5Z"/><path d="M551.37,146.19v-28.8c0-9-4-13.6-12.64-13.6h-12.8v56h12.8C547.37,159.79,551.37,155.23,551.37,146.19Zm-19.2,7.92V109.47h6.4c4.4,0,6.56,2.08,6.56,7.6v29.36c0,5.52-2.16,7.68-6.56,7.68Z"/><rect x="558.41" y="103.79" width="6.24" height="56"/><path d="M584.25,160.59c8.32,0,12.72-5,12.72-13.84V129H584.89v5.68h6.16v12.56c0,5.36-2.4,7.68-6.64,7.68s-6.56-2.32-6.56-7.68V116.35c0-5.28,2.4-7.68,6.56-7.68s6.64,2.4,6.64,7.68v5H597v-4.56c0-8.88-4.4-13.76-12.72-13.76s-12.64,4.88-12.64,13.76v30C571.61,155.63,576,160.59,584.25,160.59Z"/><polygon points="623.21 159.79 629.45 159.79 629.45 103.78 623.21 103.78 623.21 127.71 609.93 127.71 609.93 103.78 603.69 103.78 603.69 159.79 609.93 159.79 609.93 133.39 623.21 133.39 623.21 159.79"/><polygon points="660.09 154.11 643.37 154.11 643.37 133.39 656.97 133.39 656.97 127.71 643.37 127.71 643.37 109.47 660.09 109.47 660.09 103.78 637.13 103.78 637.13 159.79 660.09 159.79 660.09 154.11"/><path d="M691.05,146.19v-28.8c0-9-4-13.6-12.64-13.6h-12.8v56h12.8C687.05,159.79,691.05,155.23,691.05,146.19Zm-6.24.24c0,5.52-2.16,7.68-6.56,7.68h-6.4V109.47h6.4c4.4,0,6.56,2.08,6.56,7.6Z"/><path d="M723.29,160.59c8.32,0,12.88-5,12.88-13.84v-30c0-8.88-4.56-13.76-12.88-13.76s-12.8,4.88-12.8,13.76v30C710.49,155.63,715.05,160.59,723.29,160.59Zm-6.56-44.24c0-5.28,2.4-7.68,6.56-7.68s6.64,2.4,6.64,7.68v30.8c0,5.36-2.4,7.76-6.64,7.76s-6.56-2.4-6.56-7.76Z"/><path d="M767.85,121.31v-4.56c0-8.88-4.4-13.76-12.72-13.76s-12.64,4.88-12.64,13.76v30c0,8.88,4.4,13.84,12.64,13.84s12.72-5,12.72-13.84V129H755.77v5.68h6.16v12.56c0,5.36-2.4,7.68-6.64,7.68s-6.56-2.32-6.56-7.68V116.35c0-5.28,2.4-7.68,6.56-7.68s6.64,2.4,6.64,7.68v5Z"/><path d="M200.26,250.59c8.16,0,12.72-5,12.72-13.68,0-6.8-2.48-11.28-10.16-17.68-6.64-5.44-8.88-8.64-8.88-13.28,0-4.88,2.4-7.28,6.4-7.28s6.4,2.4,6.4,7.44v2.64h5.92v-2.24c0-8.56-4.24-13.52-12.32-13.52s-12.56,5-12.56,13.36c0,6.32,2.56,10.8,10.32,17.2,6.48,5.36,8.64,8.64,8.64,13.84s-2.48,7.52-6.56,7.52-6.48-2.4-6.48-7.44v-3.6h-5.92V237C187.78,245.63,192.1,250.59,200.26,250.59Z"/><polygon points="226.18 249.79 232.42 249.79 232.42 199.47 242.34 199.47 242.34 193.78 216.26 193.78 216.26 199.47 226.18 199.47 226.18 249.79"/><path d="M281.86,199.47v-5.68H255.62l-17.36,56h6l3.6-11.92H259v11.92h22.88v-5.68H265.22V223.39h13.52v-5.68H265.22V199.47Zm-22.88,33h-9.44l9.44-31Z"/><path d="M306.82,249.79h6.32a20.11,20.11,0,0,1-.8-6.8V233c0-6.56-1.84-10.48-6.56-11.68v-.08c4.48-1.44,6.48-5.12,6.48-11.28v-3.44c0-8.72-3.76-12.72-12.64-12.72H287.38v56h6.24V224.51h5c5.28,0,7.44,2.08,7.44,8.16V243A21.09,21.09,0,0,0,306.82,249.79Zm-8.16-31h-5V199.47h5.84c4.64,0,6.56,2.24,6.56,7.68v4C306,216.75,303.54,218.83,298.66,218.83Z"/><polygon points="325.7 231.31 331.06 221.94 340.42 249.79 346.98 249.79 335.22 214.83 346.82 193.78 340.34 193.78 325.7 221.39 325.7 193.78 319.46 193.78 319.46 249.79 325.7 249.79 325.7 231.31"/><polygon points="375.06 199.47 375.06 193.78 352.1 193.78 352.1 249.79 375.06 249.79 375.06 244.11 358.33 244.11 358.33 223.39 371.94 223.39 371.94 217.71 358.33 217.71 358.33 199.47 375.06 199.47"/><rect x="393.61" y="193.79" width="6.24" height="56"/><polygon points="428.09 233.79 415.45 193.78 407.45 193.78 407.45 249.79 413.13 249.79 413.13 204.27 427.29 249.79 433.77 249.79 433.77 193.78 428.09 193.78 428.09 233.79"/><path d="M439.85,233.87V237c0,8.64,4.32,13.6,12.48,13.6s12.72-5,12.72-13.68c0-6.8-2.48-11.28-10.16-17.68-6.64-5.44-8.88-8.64-8.88-13.28,0-4.88,2.4-7.28,6.4-7.28s6.4,2.4,6.4,7.44v2.64h5.92v-2.24c0-8.56-4.24-13.52-12.32-13.52s-12.56,5-12.56,13.36c0,6.32,2.56,10.8,10.32,17.2,6.48,5.36,8.64,8.64,8.64,13.84s-2.48,7.52-6.56,7.52-6.48-2.4-6.48-7.44v-3.6Z"/><polygon points="494.41 193.78 468.33 193.78 468.33 199.47 478.25 199.47 478.25 249.79 484.49 249.79 484.49 199.47 494.41 199.47 494.41 193.78"/><rect x="499.53" y="193.79" width="6.24" height="56"/><polygon points="536.97 193.78 510.89 193.78 510.89 199.47 520.81 199.47 520.81 249.79 527.05 249.79 527.05 199.47 536.97 199.47 536.97 193.78"/><path d="M561,237.23c0,5.28-2.32,7.68-6.48,7.68s-6.48-2.4-6.48-7.68V193.79h-6.24v43c0,8.88,4.32,13.84,12.64,13.84s12.64-5,12.64-13.84v-43H561Z"/><polygon points="571.85 199.47 581.77 199.47 581.77 249.79 588.01 249.79 588.01 199.47 597.93 199.47 597.93 193.78 571.85 193.78 571.85 199.47"/><rect x="603.05" y="193.79" width="6.24" height="56"/><path d="M629.05,193c-8.24,0-12.8,4.88-12.8,13.76v30c0,8.88,4.56,13.84,12.8,13.84s12.88-5,12.88-13.84v-30C641.93,197.87,637.37,193,629.05,193Zm6.64,44.16c0,5.36-2.4,7.76-6.64,7.76s-6.56-2.4-6.56-7.76v-30.8c0-5.28,2.4-7.68,6.56-7.68s6.64,2.4,6.64,7.68Z"/><polygon points="669.53 233.79 656.89 193.78 648.89 193.78 648.89 249.79 654.57 249.79 654.57 204.27 668.73 249.79 675.21 249.79 675.21 193.78 669.53 193.78 669.53 233.79"/><polygon points="682.89 249.79 705.85 249.79 705.85 244.11 689.13 244.11 689.13 223.39 702.73 223.39 702.73 217.71 689.13 217.71 689.13 199.47 705.85 199.47 705.85 193.78 682.89 193.78 682.89 249.79"/><path d="M736.33,233c0-6.56-1.84-10.48-6.56-11.68v-.08c4.48-1.44,6.48-5.12,6.48-11.28v-3.44c0-8.72-3.76-12.72-12.64-12.72H711.37v56h6.23V224.51h5c5.27,0,7.43,2.08,7.43,8.16V243a21,21,0,0,0,.73,6.8h6.32a20.11,20.11,0,0,1-.8-6.8Zm-13.68-14.16h-5V199.47h5.85c4.63,0,6.55,2.24,6.55,7.68v4C730,216.75,727.53,218.83,722.65,218.83Z"/></svg>