<svg id="Layer_1" data-name="Layer 1" xmlns="http://www.w3.org/2000/svg" width="800" height="800" viewBox="0 0 800 800"><path d="M172.55,643.64V622.39c4.86-.56,9-1.51,13.12-1.44,26.3.47,52.59,1.29,78.89,1.72,9.18.15,18.51,1.57,28.29-1.49a134.71,134.71,0,0,0-.05-40.49c-18.42-3.18-36.84-5.22-53.1-14.05a488.41,488.41,0,0,1-45.92-28.38c4.78,0,9.56.13,14.33,0,18.95-.6,34.55-8.89,48.26-21.38,9.54-8.7,19.07-17.41,29.23-26.7-1.6-.93-3.28-2.56-5.21-2.93-33.35-6.29-50.17-29.36-59.58-59.39-4-12.69-6.05-26-9.56-38.81-2.45-9-5.12-18-9.1-26.38-3.36-7-8.73-13.12-13.79-20.47a63.45,63.45,0,0,1,7.75-1.22c36.13-1.11,65.88,13.55,92,37.28,8.61,7.84,16.88,16.19,26.22,23.06,31.41,23.14,62.88,20.95,91.42-5.52,5.85-5.43,11.67-11,18.12-15.66a133.07,133.07,0,0,1,20.53-12.18c9.49-4.55,18.16-2.07,25.62,5.09l11.14,10.69,5.49-6c-1.54,7.47-.46,13.23,7.19,16.63L484.27,400q1.89,13.17,3.77,26.39l-1.11.38c-1-4.49-2-9-3-13.46s-1.93-8.87-2.81-12.91c-16.48-1.26-33.33,9.8-39.44,25.12-4.91,12.28-5.91,25.24-5.93,38.29,0,12.68-.16,25.28-3.53,37.68-10,36.65-34,59.43-69.51,70.82-7,2.23-14.18,3.64-21.29,5.42-3.18.8-6.36,1.58-10.16,2.52-3,14.16-2.21,27.86-.7,41.21,13.88,6.5,97.53,4.2,116.42-3.25.31-3.93.82-8.44,1-13,.41-10.55,2.24-12.83,12.92-13.44,8.64-.49,17.32-.42,26-.25,11.31.23,22.64.5,33.91,1.31,8.1.58,9.92,2.52,10,10.65.23,19.32.27,38.65,0,58-.17,9.83-3.11,12.67-12.62,12.78q-29,.33-57.95,0c-9.6-.09-11.64-2.37-12.15-11.8-.27-4.92-.58-9.83-.95-16-8.08-1.29-15.49-2.72-23-3.6-28.21-3.31-56.45-2.46-84.75-.89-17.94,1-36,.42-54,.75-32.95.62-65.9,1.43-98.86,2C182.35,644.81,178.15,644.1,172.55,643.64Zm146.93-21.51a90.93,90.93,0,0,0,.27-39.42c-5.69-2.49-10.37-2.78-14.77.36-2.83,10.41-2.44,30.58,1,39.06Z"/><path d="M160.35,138.7c-7,2.78-12.65,3-19.21-.2-.44-3.3-.79-6.86-1.4-10.37-1.18-6.72-5-10.56-10.9-11.2-6.32-.7-11.82,2.52-13.51,9.3-3,12-1.76,24.13-.83,37.77,3.55-1.93,5.52-2.82,7.31-4,16.33-10.69,34.78-3.69,39.78,15.22a41.08,41.08,0,0,1,1.58,9.82c.2,11.31.54,22.65,0,33.94-.93,19.13-11.71,29.9-30.75,31.37a64.31,64.31,0,0,1-12.94-.22c-14.13-1.77-24.45-11.58-26.84-25.66a91.58,91.58,0,0,1-.89-14.92c-.09-23.63,0-47.26,0-70.89,0-2.33,0-4.67.15-7,.89-12.49,4.21-24,16.48-29.87,13.76-6.62,27.72-6.25,41.12,1.43a16.31,16.31,0,0,1,5.62,5.52A40.49,40.49,0,0,1,160.35,138.7ZM140,202.52h-.35c0-6.32.44-12.67-.13-18.94-.51-5.51-4.25-9-9.76-9.92a11.43,11.43,0,0,0-12.17,5c-1.45,2.14-2.81,4.82-2.9,7.31-.38,11.28-.92,22.62-.16,33.86.54,7.91,6.61,12.45,13.38,12.07,7-.4,11.31-4.92,12-13.45C140.33,213.2,140,207.85,140,202.52Z"/><path d="M72.38,247.85H53.17c-.53-5-1.38-9.48-1.4-13.94-.13-28.3,0-56.6-.14-84.91,0-4.16-.76-8.31-1.19-12.72-8.34-.33-10.3,8.15-17.14,9.61-1.71-10.3-2.68-19.79,6-27.7a77.23,77.23,0,0,0,9.65-11.42C54.73,98.9,62.14,97.5,72,100.83c.51,3.12,1.54,6.58,1.55,10q.15,62.94,0,125.87C73.58,240,72.91,243.19,72.38,247.85Z"/><path d="M490.46,562.84c10.3,0,20.61,0,30.91,0a52.59,52.59,0,0,1,7.94.5c4,.6,6.78,2.82,7.5,6.93.77,4.45-1,8.09-5.07,9.83a25.75,25.75,0,0,1-9.62,2c-22.26.17-44.52.11-66.79.09a25.72,25.72,0,0,1-5-.36c-5.67-1.11-8.48-4.34-8.4-9.42s2.87-8.57,8.64-9.09c6.6-.6,13.27-.39,19.91-.45S483.82,562.84,490.46,562.84Z"/><path d="M489.27,702.83c-10.63,0-21.26.07-31.89,0a38.79,38.79,0,0,1-8.89-.83c-4.43-1.08-6.47-4.36-6.52-8.86-.05-4.17,2-7.14,5.88-8.27a36.34,36.34,0,0,1,9.77-1.47q31.89-.18,63.78,0a28.66,28.66,0,0,1,9.67,1.75,8.6,8.6,0,0,1,5.81,9.45c-.44,4.66-3.41,7.07-7.78,7.75a55.37,55.37,0,0,1-8,.46C510.52,702.85,499.9,702.83,489.27,702.83Z"/><path d="M161.68,632.61c-.21,3.64-.09,7.33-.71,10.9-.91,5.25-4.56,8.1-9.68,8.23-4.9.13-9.91-2.74-10.32-7.51a124.59,124.59,0,0,1,.16-23.73c.52-5,5-7.2,10.52-7s8.66,2.59,9.43,8.22c.49,3.57.09,7.27.09,10.92Z"/><path d="M557.68,292.81c3,15.79-8.14,26.81-23.65,24.14C529.58,302,541.71,289.27,557.68,292.81Z"/><path d="M486,354.65c-14.32-7.33-17.17-19.63-8.22-33.2C491.85,324.19,496.23,340.89,486,354.65Z"/><path d="M502.33,296c14.33,7.11,17.23,20.87,7.39,32.71C495.34,323.61,491.68,308.49,502.33,296Z"/><path d="M556.23,343c-8.63,12-20.28,12.8-29,2.46C533.51,333.39,547.24,332,556.23,343Z"/><path d="M535.41,372.09c-11.57,9.33-22.13,8.1-30-3C513.81,358,527.18,359.14,535.41,372.09Z"/><path d="M517.53,336.83,499.29,358.7c2.21-7.39,7.42-13.09,18.27-21.84Z"/><path d="M517.56,336.86l6.33-9.63,1.89,1.43-8.25,8.17Z"/><path d="M189.38,103.79h22.24v5.68h-16v19H208.5v5.68H195.62v25.6h-6.24Z"/><path d="M216.74,103.79H229c8.88,0,12.64,4,12.64,12.72V120c0,6.16-2,9.84-6.48,11.28v.08c4.72,1.2,6.56,5.12,6.56,11.68v10a20.11,20.11,0,0,0,.8,6.8h-6.32a21.09,21.09,0,0,1-.72-6.8V142.67c0-6.08-2.16-8.16-7.44-8.16h-5v25.28h-6.24Zm11.28,25c4.88,0,7.36-2.08,7.36-7.68v-4c0-5.44-1.92-7.68-6.56-7.68H223v19.36Z"/><path d="M248.82,103.79h23v5.68H255.06v18.24h13.6v5.68h-13.6v20.72h16.72v5.68h-23Z"/><path d="M277.3,103.79h12.8c8.64,0,12.64,4.56,12.64,13.6v28.8c0,9-4,13.6-12.64,13.6H277.3Zm12.64,50.32c4.4,0,6.56-2.16,6.56-7.68V117.07c0-5.52-2.16-7.6-6.56-7.6h-6.4v44.64Z"/><path d="M311.54,159.79H309.3v-8.08h6.32v7.44l-3.93,9.28h-2.87Z"/><path d="M336.65,103.79H348.9c8.87,0,12.64,4,12.64,12.72V120c0,6.16-2,9.84-6.48,11.28v.08c4.71,1.2,6.56,5.12,6.56,11.68v10a20.11,20.11,0,0,0,.8,6.8h-6.33a21.17,21.17,0,0,1-.71-6.8V142.67c0-6.08-2.17-8.16-7.45-8.16h-5v25.28h-6.24Zm11.28,25c4.89,0,7.37-2.08,7.37-7.68v-4c0-5.44-1.92-7.68-6.56-7.68h-5.85v19.36Z"/><path d="M368.73,103.79h23v5.68H375v18.24h13.6v5.68H375v20.72h16.72v5.68h-23Z"/><path d="M404.65,109.47h-9.92v-5.68h26.08v5.68h-9.92v50.32h-6.24Z"/><path d="M425.93,103.79h22.24v5.68h-16v19h12.88v5.68H432.17v25.6h-6.24Z"/><path d="M471.69,109.47v18.24h13.52v5.68H471.69v20.72h16.64v5.68H465.45V147.87H454.33l-3.6,11.92h-6l17.36-56h26.24v5.68Zm-6.24,33v-31l-9.44,31Z"/><path d="M493.85,103.79h12.24c8.88,0,12.64,4,12.64,12.72V120c0,6.16-2,9.84-6.48,11.28v.08c4.72,1.2,6.56,5.12,6.56,11.68v10a20.11,20.11,0,0,0,.8,6.8h-6.32a21.09,21.09,0,0,1-.72-6.8V142.67c0-6.08-2.16-8.16-7.44-8.16h-5v25.28h-6.24Zm11.28,25c4.88,0,7.36-2.08,7.36-7.68v-4c0-5.44-1.92-7.68-6.56-7.68h-5.84v19.36Z"/><path d="M525.93,103.79h12.8c8.64,0,12.64,4.56,12.64,13.6v28.8c0,9-4,13.6-12.64,13.6h-12.8Zm12.64,50.32c4.4,0,6.56-2.16,6.56-7.68V117.07c0-5.52-2.16-7.6-6.56-7.6h-6.4v44.64Z"/><path d="M558.41,103.79h6.24v56h-6.24Z"/><path d="M571.61,146.75v-30c0-8.88,4.4-13.76,12.64-13.76S597,107.87,597,116.75v4.56h-5.92v-5c0-5.28-2.4-7.68-6.64-7.68s-6.56,2.4-6.56,7.68v30.88c0,5.36,2.4,7.68,6.56,7.68s6.64-2.32,6.64-7.68V134.67h-6.16V129H597v17.76c0,8.88-4.4,13.84-12.72,13.84S571.61,155.63,571.61,146.75Z"/><path d="M603.69,103.79h6.24v23.92h13.28V103.79h6.24v56h-6.24v-26.4H609.93v26.4h-6.24Z"/><path d="M637.13,103.79h23v5.68H643.37v18.24H657v5.68h-13.6v20.72h16.72v5.68h-23Z"/><path d="M665.61,103.79h12.8c8.64,0,12.64,4.56,12.64,13.6v28.8c0,9-4,13.6-12.64,13.6h-12.8Zm12.64,50.32c4.4,0,6.56-2.16,6.56-7.68V117.07c0-5.52-2.16-7.6-6.56-7.6h-6.4v44.64Z"/><path d="M710.49,146.75v-30c0-8.88,4.56-13.76,12.8-13.76s12.88,4.88,12.88,13.76v30c0,8.88-4.56,13.84-12.88,13.84S710.49,155.63,710.49,146.75Zm19.44.4v-30.8c0-5.28-2.4-7.68-6.64-7.68s-6.56,2.4-6.56,7.68v30.8c0,5.36,2.4,7.76,6.56,7.76S729.93,152.51,729.93,147.15Z"/><path d="M742.49,146.75v-30c0-8.88,4.4-13.76,12.64-13.76s12.72,4.88,12.72,13.76v4.56h-5.92v-5c0-5.28-2.4-7.68-6.64-7.68s-6.56,2.4-6.56,7.68v30.88c0,5.36,2.4,7.68,6.56,7.68s6.64-2.32,6.64-7.68V134.67h-6.16V129h12.08v17.76c0,8.88-4.4,13.84-12.72,13.84S742.49,155.63,742.49,146.75Z"/><path d="M187.78,237v-3.12h5.92v3.6c0,5,2.48,7.44,6.48,7.44s6.56-2.4,6.56-7.52-2.16-8.48-8.64-13.84c-7.76-6.4-10.32-10.88-10.32-17.2,0-8.4,4.48-13.36,12.56-13.36s12.32,5,12.32,13.52v2.24h-5.92v-2.64c0-5-2.32-7.44-6.4-7.44s-6.4,2.4-6.4,7.28c0,4.64,2.24,7.84,8.88,13.28,7.68,6.4,10.16,10.88,10.16,17.68,0,8.72-4.56,13.68-12.72,13.68S187.78,245.63,187.78,237Z"/><path d="M226.18,199.47h-9.92v-5.68h26.08v5.68h-9.92v50.32h-6.24Z"/><path d="M265.22,199.47v18.24h13.52v5.68H265.22v20.72h16.64v5.68H259V237.87H247.86l-3.6,11.92h-6l17.36-56h26.24v5.68Zm-6.24,33v-31l-9.44,31Z"/><path d="M287.38,193.79h12.24c8.88,0,12.64,4,12.64,12.72V210c0,6.16-2,9.84-6.48,11.28v.08c4.72,1.2,6.56,5.12,6.56,11.68v10a20.11,20.11,0,0,0,.8,6.8h-6.32a21.09,21.09,0,0,1-.72-6.8V232.67c0-6.08-2.16-8.16-7.44-8.16h-5v25.28h-6.24Zm11.28,25c4.88,0,7.36-2.08,7.36-7.68v-4c0-5.44-1.92-7.68-6.56-7.68h-5.84v19.36Z"/><path d="M331.06,222l-5.36,9.36v18.48h-6.24v-56h6.24v27.6l14.64-27.6h6.48l-11.6,21,11.76,35h-6.56Z"/><path d="M352.09,193.79h23v5.68H358.34v18.24h13.6v5.68h-13.6v20.72h16.72v5.68h-23Z"/><path d="M393.61,193.79h6.24v56h-6.24Z"/><path d="M407.45,193.79h8l12.64,40v-40h5.68v56h-6.48l-14.16-45.52v45.52h-5.68Z"/><path d="M439.85,237v-3.12h5.92v3.6c0,5,2.48,7.44,6.48,7.44s6.56-2.4,6.56-7.52-2.16-8.48-8.64-13.84c-7.76-6.4-10.32-10.88-10.32-17.2,0-8.4,4.48-13.36,12.56-13.36s12.32,5,12.32,13.52v2.24h-5.92v-2.64c0-5-2.32-7.44-6.4-7.44s-6.4,2.4-6.4,7.28c0,4.64,2.24,7.84,8.88,13.28,7.68,6.4,10.16,10.88,10.16,17.68,0,8.72-4.56,13.68-12.72,13.68S439.85,245.63,439.85,237Z"/><path d="M478.25,199.47h-9.92v-5.68h26.08v5.68h-9.92v50.32h-6.24Z"/><path d="M499.53,193.79h6.24v56h-6.24Z"/><path d="M520.81,199.47h-9.92v-5.68H537v5.68h-9.92v50.32h-6.24Z"/><path d="M541.77,236.75v-43H548v43.44c0,5.28,2.32,7.68,6.48,7.68s6.48-2.4,6.48-7.68V193.79h6.08v43c0,8.88-4.4,13.84-12.64,13.84S541.77,245.63,541.77,236.75Z"/><path d="M581.77,199.47h-9.92v-5.68h26.08v5.68H588v50.32h-6.24Z"/><path d="M603.05,193.79h6.24v56h-6.24Z"/><path d="M616.25,236.75v-30c0-8.88,4.56-13.76,12.8-13.76s12.88,4.88,12.88,13.76v30c0,8.88-4.56,13.84-12.88,13.84S616.25,245.63,616.25,236.75Zm19.44.4v-30.8c0-5.28-2.4-7.68-6.64-7.68s-6.56,2.4-6.56,7.68v30.8c0,5.36,2.4,7.76,6.56,7.76S635.69,242.51,635.69,237.15Z"/><path d="M648.89,193.79h8l12.64,40v-40h5.68v56h-6.48l-14.16-45.52v45.52h-5.68Z"/><path d="M682.89,193.79h23v5.68H689.13v18.24h13.6v5.68h-13.6v20.72h16.72v5.68h-23Z"/><path d="M711.37,193.79h12.24c8.88,0,12.64,4,12.64,12.72V210c0,6.16-2,9.84-6.48,11.28v.08c4.72,1.2,6.56,5.12,6.56,11.68v10a20.11,20.11,0,0,0,.8,6.8h-6.32a21.09,21.09,0,0,1-.72-6.8V232.67c0-6.08-2.17-8.16-7.44-8.16h-5v25.28h-6.23Zm11.28,25c4.88,0,7.36-2.08,7.36-7.68v-4c0-5.44-1.92-7.68-6.56-7.68H717.6v19.36Z"/></svg>