<svg id="Layer_1" data-name="Layer 1" xmlns="http://www.w3.org/2000/svg" width="800" height="800" viewBox="0 0 800 800"><path d="M640.2,488.1c-27-45.4-81.13-61.11-125.54-54-37.45,6-66,27-89.39,55.93a70.65,70.65,0,0,0-4.36,7,180.06,180.06,0,0,0,19.27,33.61c3.79-3.79,6.56-6.46,9.23-9.24,8.95-9.35,17-19.76,27-27.93,30.68-25.29,64.49-29.77,100.72-12.54,15,7.15,26.32,18.29,32.94,33.47,13.77,31.58,13.49,63.58.19,95.15-6.4,15.2-18,26.23-32.9,33.56-19.29,9.47-39.16,9.7-59.39,3.9-30.08-8.61-53.68-26.5-70.88-52.27-10.14-15.19-18.74-31.45-27.52-47.51-15.07-27.57-31.08-54.39-54-76.36-39.71-38-86-47.78-137.42-30.15-33.85,11.6-56.42,35.61-68,69.68-7.73,22.83-9.18,46.38-6.91,70.13,3.35,35.14,19,64.34,48.07,84,44,29.83,90.3,30.34,136.82,4.58,3.14-1.74,6.22-3.58,9.75-5.63l19.44,15c1.74-4.19,3.52-7,4-10,3.55-20.36,7-40.73,10.07-61.16.55-3.6-.47-7.44-.75-11-8.53-.35-50.55,10-70.86,17.12-2.37.84-4.5,2.38-8,4.28,2.59,3.61,4.41,6.54,6.63,9.12s5,5,9.63,9.64c-3,1.44-4.22,2-5.46,2.62-2.39,1.17-4.7,2.51-7.17,3.48a85.34,85.34,0,0,1-57.8,2.09c-29.14-9-47.63-28.6-54.6-58.31-4.58-19.51-3-39.21,2.14-58.36a75.64,75.64,0,0,1,11.12-24.37c20-27.79,48.71-36,81.12-31.55,26.71,3.65,47.17,19,63.78,39.69,15.7,19.6,28.5,41,39.53,63.52,9.57,19.52,20.53,38.21,34.79,54.68,32.57,37.61,72.34,59.71,123.63,58.85,42.62-.71,86.41-29.67,101.34-75.7,7.46-23,8.82-46.47,6.88-70.16A126.38,126.38,0,0,0,640.2,488.1Z"/><path d="M210,266.27c3.1-8.21,3.1-8.21-.85-16.27-11.78-2.77-24.72,1.24-37.33-2.8-1.77-11.35,1.58-20.19,8.73-27.94,8.12-8.81,16.34-17.53,24.23-26.54a35,35,0,0,0,9-21.8,269,269,0,0,0,0-29c-1-15.19-9.62-23.5-24.84-24.93a75.8,75.8,0,0,0-8-.21c-26,.39-39.77,24-27.58,48.59,4.83.85,10,2,15.8-1.68.33-3.14.7-6.69,1.08-10.23.35-3.3.3-6.71,1.15-9.88,1.43-5.32,5.35-8.22,10.09-8,4.94.2,8.62,2.93,9.36,7.55,2.31,14.28,3.75,28.68-6.7,40.85-6.29,7.32-12.76,14.5-19.48,21.42-16.82,17.33-17.95,38.27-14.89,60.74C160.14,269.32,201.76,269.15,210,266.27Z"/><path d="M130.47,120.47c-11-3.46-19.29-1.83-25.49,7.29a63.28,63.28,0,0,1-7.78,9.07c-8.4,8.35-7.5,18.21-5.65,28.93,6.94-1.46,8.5-10.16,16.94-10.17v12.23c0,28.94,0,57.87.07,86.8,0,4.13.91,8.25,1.38,12.17,7.74,1.88,14.14,2.84,21.19-1,.28-3,.85-6.27.85-9.5q.09-62.87,0-125.71C131.94,127.12,131,123.65,130.47,120.47Z"/><path d="M277.45,164.41h15.39l2.47,14.16h7.5l-12.44-66.51h-10L268,178.57H275Zm7.6-43.89L291.7,158H278.59Z"/><polygon points="315.73 124.51 332.55 178.57 340.24 178.57 340.24 112.06 333.5 112.06 333.5 159.56 318.49 112.06 308.99 112.06 308.99 178.57 315.73 178.57 315.73 124.51"/><path d="M362.28,179.52c9.69,0,15.11-5.89,15.11-16.25,0-8.07-2.95-13.39-12.07-21-7.88-6.46-10.54-10.27-10.54-15.77,0-5.8,2.85-8.65,7.6-8.65s7.6,2.85,7.6,8.83v3.14h7v-2.66c0-10.17-5-16.06-14.63-16.06S347.46,117,347.46,127c0,7.5,3,12.83,12.26,20.42,7.69,6.37,10.26,10.27,10.26,16.44s-3,8.93-7.79,8.93-7.7-2.85-7.7-8.83v-4.28h-7v3.71C347.46,173.63,352.59,179.52,362.28,179.52Z"/><polygon points="403.04 178.57 414.82 112.06 407.98 112.06 398.38 168.5 388.79 112.06 381.28 112.06 393.16 178.57 403.04 178.57"/><path d="M421.75,178.57l2.47-14.16h15.39l2.47,14.16h7.5l-12.44-66.51h-10l-12.35,66.51Zm10.07-58L438.47,158H425.36Z"/><path d="M463.17,148.55h6c6.27,0,8.84,2.47,8.84,9.69v12.25c0,4.47.28,6.18.85,8.08h7.51a23.81,23.81,0,0,1-1-8.08V158.62c0-7.79-2.19-12.45-7.79-13.87v-.1c5.32-1.71,7.69-6.08,7.69-13.39v-4.09c0-10.36-4.46-15.11-15-15.11H455.76v66.51h7.41Zm0-29.74h6.93c5.51,0,7.79,2.66,7.79,9.12v4.75c0,6.65-2.94,9.12-8.74,9.12h-6Z"/><polygon points="520.26 171.82 501.26 171.82 501.26 112.06 493.85 112.06 493.85 178.57 520.26 178.57 520.26 171.82"/><rect x="526.34" y="112.06" width="7.41" height="66.5"/><path d="M557,179.52c9.88,0,15.1-5.89,15.1-16.44V142H557.79v6.74h7.31v14.92c0,6.37-2.85,9.12-7.88,9.12s-7.79-2.75-7.79-9.12V127c0-6.27,2.85-9.12,7.79-9.12s7.88,2.85,7.88,9.12v5.89h7v-5.42c0-10.54-5.22-16.34-15.1-16.34s-15,5.8-15,16.34v35.63C542,173.63,547.24,179.52,557,179.52Z"/><polygon points="588.75 178.57 596.16 178.57 596.16 118.81 607.95 118.81 607.95 112.06 576.98 112.06 576.98 118.81 588.75 118.81 588.75 178.57"/><polygon points="297.4 208.81 297.4 202.06 270.99 202.06 270.99 268.57 278.4 268.57 278.4 238.16 293.69 238.16 293.69 231.42 278.4 231.42 278.4 208.81 297.4 208.81"/><path d="M302.72,253.08c0,10.55,5.41,16.44,15.2,16.44s15.29-5.89,15.29-16.44V217.45c0-10.54-5.41-16.34-15.29-16.34s-15.2,5.8-15.2,16.34Zm7.41-36.1c0-6.27,2.85-9.12,7.79-9.12s7.88,2.85,7.88,9.12v36.58c0,6.36-2.85,9.21-7.88,9.21s-7.79-2.85-7.79-9.21Z"/><path d="M348.89,238.55h6c6.27,0,8.84,2.47,8.84,9.69v12.25c0,4.47.28,6.18.85,8.08h7.51a23.81,23.81,0,0,1-.95-8.08V248.62c0-7.79-2.19-12.45-7.79-13.87v-.1c5.32-1.71,7.69-6.08,7.69-13.39v-4.09c0-10.36-4.46-15.11-15-15.11H341.48v66.51h7.41Zm0-29.74h6.93c5.51,0,7.79,2.66,7.79,9.12v4.75c0,6.65-2.94,9.12-8.74,9.12h-6Z"/><path d="M410.45,253.08v-5.7c0-7.41-2.47-12.25-8.46-14v-.19c5-1.81,7.41-6.18,7.41-13.31v-2.75c0-10.36-4.46-15.11-15-15.11H379.57v66.51h15.58C405.51,268.57,410.45,263.34,410.45,253.08ZM387,208.81h7.22c5.51,0,7.79,2.66,7.79,9.12v3.42c0,6.65-2.94,9.12-8.74,9.12H387Zm0,28.4h6.65c6.75,0,9.41,2.67,9.41,10v5.7c0,6.37-2.47,8.93-7.89,8.93H387Z"/><path d="M440,248.24v12.25c0,4.47.28,6.18.86,8.08h7.5a23.81,23.81,0,0,1-1-8.08V248.62c0-7.79-2.18-12.45-7.79-13.87v-.1c5.32-1.71,7.7-6.08,7.7-13.39v-4.09c0-10.36-4.47-15.11-15-15.11H417.76v66.51h7.41v-30h6C437.42,238.55,440,241,440,248.24Zm-14.82-39.43h6.93c5.52,0,7.79,2.66,7.79,9.12v4.75c0,6.65-2.94,9.12-8.74,9.12h-6Z"/><path d="M470.48,269.52c9.79,0,15-5.89,15-16.44v-51h-7.22v51.59c0,6.27-2.75,9.12-7.69,9.12s-7.7-2.85-7.7-9.12V202.06h-7.41v51C455.47,263.63,460.6,269.52,470.48,269.52Z"/><path d="M508.39,269.52c9.88,0,15.1-5.89,15.1-16.44V232H509.15v6.74h7.31v14.92c0,6.37-2.85,9.12-7.88,9.12s-7.79-2.75-7.79-9.12V217c0-6.27,2.85-9.12,7.79-9.12s7.88,2.85,7.88,9.12v5.89h7v-5.42c0-10.54-5.22-16.34-15.1-16.34s-15,5.8-15,16.34v35.63C493.38,263.63,498.6,269.52,508.39,269.52Z"/><path d="M270.23,343.08c0,10.55,5.41,16.44,15.2,16.44s15.29-5.89,15.29-16.44V307.45c0-10.54-5.41-16.34-15.29-16.34s-15.2,5.8-15.2,16.34Zm7.41-36.1c0-6.27,2.85-9.12,7.79-9.12s7.88,2.85,7.88,9.12v36.58c0,6.36-2.85,9.21-7.88,9.21s-7.79-2.85-7.79-9.21Z"/><path d="M338.34,312.87v-5.42c0-10.54-5.22-16.34-15.1-16.34s-15,5.8-15,16.34v35.63c0,10.55,5.22,16.44,15,16.44s15.1-5.89,15.1-16.44V322H324v6.74h7.31v14.92c0,6.37-2.85,9.12-7.88,9.12s-7.79-2.75-7.79-9.12V307c0-6.27,2.85-9.12,7.79-9.12s7.88,2.85,7.88,9.12v5.89Z"/><path d="M361.81,292.06v66.51h7.41V330h7.12c10.26,0,15-5.32,15-16.05v-5.71c0-10.73-4.75-16.15-15-16.15Zm22.13,15.68v6.56c0,6.55-2.37,8.93-7.6,8.93h-7.12V298.81h7.12C381.57,298.81,383.94,301.18,383.94,307.74Z"/><path d="M421.28,358.57h7.5a24.06,24.06,0,0,1-.95-8.08V338.62c0-7.79-2.18-12.45-7.79-13.87v-.1c5.32-1.71,7.7-6.08,7.7-13.39v-4.09c0-10.36-4.47-15.11-15-15.11H398.19v66.51h7.41v-30h6c6.27,0,8.83,2.47,8.83,9.69v12.25C420.42,355,420.71,356.67,421.28,358.57Zm-9.69-36.77h-6v-23h6.94c5.51,0,7.79,2.66,7.79,9.12v4.75C420.33,319.33,417.38,321.8,411.59,321.8Z"/><path d="M435.62,307.45v35.63c0,10.55,5.41,16.44,15.2,16.44s15.29-5.89,15.29-16.44V307.45c0-10.54-5.41-16.34-15.29-16.34S435.62,296.91,435.62,307.45ZM443,307c0-6.27,2.85-9.12,7.79-9.12s7.88,2.85,7.88,9.12v36.58c0,6.36-2.85,9.21-7.88,9.21s-7.79-2.85-7.79-9.21Z"/><path d="M474.38,358.57h15.2c10.26,0,15-5.42,15-16.15V308.21c0-10.73-4.75-16.15-15-16.15h-15.2Zm7.41-59.76h7.6c5.22,0,7.79,2.47,7.79,9V342.7c0,6.56-2.57,9.12-7.79,9.12h-7.6Z"/><path d="M527.67,352.77c-4.94,0-7.69-2.85-7.69-9.12V292.06h-7.41v51c0,10.55,5.13,16.44,15,16.44s15-5.89,15-16.44v-51h-7.22v51.59C535.37,349.92,532.61,352.77,527.67,352.77Z"/><polygon points="558.64 292.06 551.23 292.06 551.23 358.57 558.64 358.57 558.64 336.62 565.01 325.5 576.12 358.57 583.91 358.57 569.95 317.05 583.72 292.06 576.03 292.06 558.64 324.84 558.64 292.06"/><polygon points="606.14 358.57 606.14 298.81 617.92 298.81 617.92 292.06 586.95 292.06 586.95 298.81 598.73 298.81 598.73 358.57 606.14 358.57"/><rect x="624" y="292.06" width="7.41" height="66.5"/><path d="M654.87,291.11c-9.78,0-15.2,5.8-15.2,16.34v35.63c0,10.55,5.42,16.44,15.2,16.44s15.3-5.89,15.3-16.44V307.45C670.17,296.91,664.75,291.11,654.87,291.11Zm7.89,52.45c0,6.36-2.85,9.21-7.89,9.21s-7.79-2.85-7.79-9.21V307c0-6.27,2.85-9.12,7.79-9.12s7.89,2.85,7.89,9.12Z"/><polygon points="702.94 292.06 702.94 339.56 687.93 292.06 678.43 292.06 678.43 358.57 685.18 358.57 685.18 304.51 702 358.57 709.69 358.57 709.69 292.06 702.94 292.06"/></svg>