<svg id="Layer_1" data-name="Layer 1" xmlns="http://www.w3.org/2000/svg" width="800" height="800" viewBox="0 0 800 800"><path d="M318,636.52c-4.65-4.6-7.33-6.95-9.63-9.64s-4-5.51-6.63-9.12c3.52-1.9,5.65-3.44,8-4.28,20.31-7.15,62.33-17.47,70.86-17.12.28,3.55,1.3,7.39.75,11-3.11,20.43-6.52,40.8-10.07,61.16-.52,3-2.3,5.79-4,10l-19.44-15c-3.53,2.05-6.61,3.89-9.75,5.63-46.52,25.76-92.78,25.25-136.82-4.58-29.07-19.69-44.72-48.89-48.07-84-2.27-23.75-.82-47.3,6.91-70.13,11.54-34.07,34.11-58.08,68-69.68,51.47-17.63,97.71-7.84,137.42,30.15,23,22,39,48.79,54,76.36,8.78,16.06,17.38,32.32,27.52,47.51,17.2,25.77,40.8,43.66,70.88,52.27,20.23,5.8,40.1,5.57,59.39-3.9,14.95-7.33,26.5-18.36,32.9-33.56C623.52,578,623.8,546,610,514.41c-6.62-15.18-17.9-26.32-32.94-33.47-36.23-17.23-70-12.75-100.72,12.54-9.92,8.17-18,18.58-27,27.93-2.67,2.78-5.44,5.45-9.23,9.24A180.06,180.06,0,0,1,420.91,497a70.65,70.65,0,0,1,4.36-7c23.34-29,51.94-49.93,89.39-55.93,44.41-7.11,98.57,8.6,125.54,54A126.38,126.38,0,0,1,657.31,543c1.94,23.69.58,47.15-6.88,70.16-14.93,46-58.72,75-101.34,75.7C497.8,689.72,458,667.62,425.46,630c-14.26-16.47-25.22-35.16-34.79-54.68-11-22.51-23.83-43.92-39.53-63.52-16.61-20.73-37.07-36-63.78-39.69-32.41-4.44-61.07,3.76-81.12,31.55A75.64,75.64,0,0,0,195.12,528c-5.1,19.15-6.72,38.85-2.14,58.36,7,29.71,25.46,49.3,54.6,58.31a85.34,85.34,0,0,0,57.8-2.09c2.47-1,4.78-2.31,7.17-3.48C313.79,638.54,315,638,318,636.52Z"/><path d="M149.8,266.14c-3.06-22.47-1.93-43.41,14.89-60.74,6.72-6.92,13.19-14.1,19.48-21.42,10.45-12.17,9-26.57,6.7-40.85-.74-4.62-4.42-7.35-9.36-7.55-4.74-.18-8.66,2.72-10.09,8-.85,3.17-.8,6.58-1.15,9.88-.38,3.54-.75,7.09-1.08,10.23-5.85,3.66-11,2.53-15.8,1.68-12.19-24.56,1.54-48.2,27.58-48.59a75.8,75.8,0,0,1,8,.21c15.22,1.43,23.84,9.74,24.84,24.93a269,269,0,0,1,0,29,35,35,0,0,1-9,21.8c-7.89,9-16.11,17.73-24.23,26.54-7.15,7.75-10.5,16.59-8.73,27.94,12.61,4,25.55,0,37.33,2.8,3.95,8.06,3.95,8.06.85,16.27C201.76,269.15,160.14,269.32,149.8,266.14Z"/><path d="M91.55,165.76C89.7,155,88.8,145.18,97.2,136.83a63.28,63.28,0,0,0,7.78-9.07c6.2-9.12,14.48-10.75,25.49-7.29.49,3.18,1.47,6.65,1.48,10.12q.17,62.85,0,125.71c0,3.23-.57,6.46-.85,9.5-7,3.83-13.45,2.87-21.19,1-.47-3.92-1.36-8-1.38-12.17-.12-28.93-.07-57.86-.07-86.8V155.59C100.05,155.6,98.49,164.3,91.55,165.76Z"/><path d="M292.84,164.41H277.45L275,178.57H268l12.35-66.51h10l12.44,66.51h-7.5ZM291.7,158l-6.65-37.43L278.59,158Z"/><path d="M309,112.06h9.5l15,47.51V112.06h6.74v66.51h-7.69l-16.82-54.06v54.06H309Z"/><path d="M347.46,163.37v-3.71h7v4.28c0,6,2.95,8.83,7.7,8.83s7.79-2.85,7.79-8.93-2.57-10.07-10.26-16.44c-9.22-7.59-12.26-12.92-12.26-20.42,0-10,5.32-15.87,14.92-15.87S377,117,377,127.17v2.66h-7v-3.14c0-6-2.76-8.83-7.6-8.83s-7.6,2.85-7.6,8.65c0,5.5,2.66,9.31,10.54,15.77,9.12,7.6,12.07,12.92,12.07,21,0,10.36-5.42,16.25-15.11,16.25S347.46,173.63,347.46,163.37Z"/><path d="M381.28,112.06h7.51l9.59,56.44,9.6-56.44h6.84L403,178.57h-9.88Z"/><path d="M439.61,164.41H424.22l-2.47,14.16h-6.94l12.35-66.51h10l12.44,66.51h-7.5ZM438.47,158l-6.65-37.43L425.36,158Z"/><path d="M455.76,112.06h14.53c10.55,0,15,4.75,15,15.11v4.09c0,7.31-2.37,11.68-7.69,13.39v.1c5.6,1.42,7.79,6.08,7.79,13.87v11.87a23.81,23.81,0,0,0,1,8.08h-7.51c-.57-1.9-.85-3.61-.85-8.08V158.24c0-7.22-2.57-9.69-8.84-9.69h-6v30h-7.41Zm13.39,29.74c5.8,0,8.74-2.47,8.74-9.12v-4.75c0-6.46-2.28-9.12-7.79-9.12h-6.93v23Z"/><path d="M493.85,112.06h7.41v59.76h19v6.75H493.85Z"/><path d="M526.34,112.06h7.41v66.51h-7.41Z"/><path d="M542,163.08V127.45c0-10.54,5.22-16.34,15-16.34s15.1,5.8,15.1,16.34v5.42h-7V127c0-6.27-2.85-9.12-7.88-9.12s-7.79,2.85-7.79,9.12v36.67c0,6.37,2.85,9.12,7.79,9.12s7.88-2.75,7.88-9.12V148.73h-7.31V142h14.34v21.09c0,10.55-5.22,16.44-15.1,16.44S542,173.63,542,163.08Z"/><path d="M588.76,118.81H577v-6.75h31v6.75H596.17v59.76h-7.41Z"/><path d="M271,202.06H297.4v6.75h-19v22.61h15.29v6.75H278.4v30.4H271Z"/><path d="M302.72,253.08V217.45c0-10.54,5.41-16.34,15.2-16.34s15.29,5.8,15.29,16.34v35.63c0,10.55-5.41,16.44-15.29,16.44S302.72,263.63,302.72,253.08Zm23.08.48V217c0-6.27-2.85-9.12-7.88-9.12s-7.79,2.85-7.79,9.12v36.58c0,6.36,2.85,9.21,7.79,9.21S325.8,259.92,325.8,253.56Z"/><path d="M341.48,202.06H356c10.55,0,15,4.75,15,15.11v4.09c0,7.31-2.37,11.68-7.69,13.39v.1c5.6,1.42,7.79,6.08,7.79,13.87v11.87a23.81,23.81,0,0,0,.95,8.08h-7.51c-.57-1.9-.85-3.61-.85-8.08V248.24c0-7.22-2.57-9.69-8.84-9.69h-6v30h-7.41Zm13.39,29.74c5.8,0,8.74-2.47,8.74-9.12v-4.75c0-6.46-2.28-9.12-7.79-9.12h-6.93v23Z"/><path d="M379.57,202.06h14.82c10.55,0,15,4.75,15,15.11v2.75c0,7.13-2.37,11.5-7.41,13.31v.19c6,1.71,8.46,6.55,8.46,14v5.7c0,10.26-4.94,15.49-15.3,15.49H379.57Zm13.68,28.41c5.8,0,8.74-2.47,8.74-9.12v-3.42c0-6.46-2.28-9.12-7.79-9.12H387v21.66Zm1.9,31.35c5.42,0,7.89-2.56,7.89-8.93v-5.7c0-7.31-2.66-10-9.41-10H387v24.61Z"/><path d="M417.76,202.06h14.53c10.55,0,15,4.75,15,15.11v4.09c0,7.31-2.38,11.68-7.7,13.39v.1c5.61,1.42,7.79,6.08,7.79,13.87v11.87a23.81,23.81,0,0,0,1,8.08h-7.5c-.58-1.9-.86-3.61-.86-8.08V248.24c0-7.22-2.57-9.69-8.84-9.69h-6v30h-7.41Zm13.39,29.74c5.8,0,8.74-2.47,8.74-9.12v-4.75c0-6.46-2.27-9.12-7.79-9.12h-6.93v23Z"/><path d="M455.47,253.08v-51h7.41v51.59c0,6.27,2.76,9.12,7.7,9.12s7.69-2.85,7.69-9.12V202.06h7.22v51c0,10.55-5.22,16.44-15,16.44S455.47,263.63,455.47,253.08Z"/><path d="M493.38,253.08V217.45c0-10.54,5.22-16.34,15-16.34s15.1,5.8,15.1,16.34v5.42h-7V217c0-6.27-2.85-9.12-7.88-9.12s-7.79,2.85-7.79,9.12v36.67c0,6.37,2.85,9.12,7.79,9.12s7.88-2.75,7.88-9.12V238.73h-7.31V232h14.34v21.09c0,10.55-5.22,16.44-15.1,16.44S493.38,263.63,493.38,253.08Z"/><path d="M270.23,343.08V307.45c0-10.54,5.41-16.34,15.2-16.34s15.29,5.8,15.29,16.34v35.63c0,10.55-5.41,16.44-15.29,16.44S270.23,353.63,270.23,343.08Zm23.08.48V307c0-6.27-2.85-9.12-7.88-9.12s-7.79,2.85-7.79,9.12v36.58c0,6.36,2.85,9.21,7.79,9.21S293.31,349.92,293.31,343.56Z"/><path d="M308.23,343.08V307.45c0-10.54,5.22-16.34,15-16.34s15.1,5.8,15.1,16.34v5.42h-7V307c0-6.27-2.85-9.12-7.88-9.12s-7.79,2.85-7.79,9.12v36.67c0,6.37,2.85,9.12,7.79,9.12s7.88-2.75,7.88-9.12V328.73H324V322h14.34v21.09c0,10.55-5.22,16.44-15.1,16.44S308.23,353.63,308.23,343.08Z"/><path d="M361.81,292.06h14.53c10.26,0,15,5.42,15,16.15v5.71c0,10.73-4.75,16.05-15,16.05h-7.12v28.6h-7.41Zm14.53,31.17c5.23,0,7.6-2.38,7.6-8.93v-6.56c0-6.56-2.37-8.93-7.6-8.93h-7.12v24.42Z"/><path d="M398.19,292.06h14.54c10.54,0,15,4.75,15,15.11v4.09c0,7.31-2.38,11.68-7.7,13.39v.1c5.61,1.42,7.79,6.08,7.79,13.87v11.87a24.06,24.06,0,0,0,.95,8.08h-7.5c-.57-1.9-.86-3.61-.86-8.08V338.24c0-7.22-2.56-9.69-8.83-9.69h-6v30h-7.41Zm13.4,29.74c5.79,0,8.74-2.47,8.74-9.12v-4.75c0-6.46-2.28-9.12-7.79-9.12H405.6v23Z"/><path d="M435.62,343.08V307.45c0-10.54,5.41-16.34,15.2-16.34s15.29,5.8,15.29,16.34v35.63c0,10.55-5.41,16.44-15.29,16.44S435.62,353.63,435.62,343.08Zm23.08.48V307c0-6.27-2.85-9.12-7.88-9.12S443,300.71,443,307v36.58c0,6.36,2.85,9.21,7.79,9.21S458.7,349.92,458.7,343.56Z"/><path d="M474.38,292.06h15.2c10.26,0,15,5.42,15,16.15v34.21c0,10.73-4.75,16.15-15,16.15h-15.2Zm15,59.76c5.22,0,7.79-2.56,7.79-9.12V307.84c0-6.56-2.57-9-7.79-9h-7.6v53Z"/><path d="M512.57,343.08v-51H520v51.59c0,6.27,2.75,9.12,7.69,9.12s7.7-2.85,7.7-9.12V292.06h7.22v51c0,10.55-5.23,16.44-15,16.44S512.57,353.63,512.57,343.08Z"/><path d="M565,325.51l-6.37,11.11v21.95h-7.41V292.06h7.41v32.78L576,292.06h7.69l-13.77,25,14,41.52h-7.79Z"/><path d="M598.73,298.81H587v-6.75h31v6.75H606.14v59.76h-7.41Z"/><path d="M624,292.06h7.41v66.51H624Z"/><path d="M639.67,343.08V307.45c0-10.54,5.42-16.34,15.2-16.34s15.3,5.8,15.3,16.34v35.63c0,10.55-5.42,16.44-15.3,16.44S639.67,353.63,639.67,343.08Zm23.09.48V307c0-6.27-2.85-9.12-7.89-9.12s-7.79,2.85-7.79,9.12v36.58c0,6.36,2.85,9.21,7.79,9.21S662.76,349.92,662.76,343.56Z"/><path d="M678.43,292.06h9.5l15,47.51V292.06h6.75v66.51H702l-16.81-54.06v54.06h-6.75Z"/></svg>