<svg id="Layer_1" data-name="Layer 1" xmlns="http://www.w3.org/2000/svg" width="800" height="800" viewBox="0 0 800 800"><path d="M315.08,464c-33-27.44-19.38-70.19,22.18-75.13,1.06-3,2.39-6.3,3.44-9.72,8.16-26.52,29.29-39.84,58.57-36.86,21.83,2.23,41.49,23,43.64,46.83.49,5.51-.83,11.21-1.63,16.78-.5,3.53-1.58,7-2.58,11.22,4.26,1.94,7.82,3.54,11.37,5.18,41.37,19.13,43.17,72,16,96.24-10.5,9.37-22.65,15.32-37,15.36-28,.08-56,.38-83.92-.36-31.65-.84-49.8-33.38-34.77-61.32C311.77,469.62,313.31,467.09,315.08,464Z"/><path d="M286.5,679.55c12.35-2.07,352.93-1.64,360.81.35,3.59,6.31,3,12.9.3,20.5A101.17,101.17,0,0,1,637,701.47q-170.23.06-340.46,0c-3.27,0-6.54-.43-9.91-.66C282.83,693.28,282.84,686.52,286.5,679.55Z"/><path d="M284.87,655.15V634.08c4.58-.52,8.42-1.37,12.25-1.33,19.93.24,39.86.88,59.79,1,9.3.06,18.61-1,27.92-1.06q124.37-.13,248.73,0c4.56,0,9.13.5,13.49.76,4,7.14,2.58,13.54,1.3,21.36-4.77.47-9.24,1.27-13.71,1.28-37.29.1-74.58.05-111.88.05q-110.88,0-221.76,0C296.12,656.07,291.25,655.53,284.87,655.15Z"/><path d="M210.62,185.23c-.8-26.25-1.06-52.35.09-77.92,8.39-3.57,51-4.23,62.47-1.37,3.16,4.4,2.62,9.06.53,14.09-6.6,3.54-13.71,1.63-20.54,2.11-6.5.45-13,.74-20,1.14-2.54,12.41-1.94,23.41-.68,35.89,3.89-1.54,6.55-2.53,9.17-3.63,17.78-7.49,33.32,1.23,35.75,20.35.71,5.58.49,11.3.52,17,.05,11.33.22,22.66-.1,34-.42,14.77-7.42,23.57-21.65,27.3a51.1,51.1,0,0,1-12.81,1.54c-21.89,0-32.43-10.3-33.22-32.22a83.85,83.85,0,0,1,.12-12c.63-5.69,3.13-7.38,9.73-7.39s9,1.66,9.79,7.35c.57,4.28.33,8.68,1,12.92,1.35,8.13,5.47,11.93,12.26,12,7.08.05,12-4.29,12.43-12.82.59-13,.32-26,0-38.93a17.34,17.34,0,0,0-2.81-8.38c-4.46-7.08-13.19-7.37-18.51-.87a20.25,20.25,0,0,0-2,3.42C226.85,188.68,224.18,189.64,210.62,185.23Z"/><path d="M190.53,253H169.72c-.48-4.94-1.22-9.11-1.24-13.28-.11-29,0-57.91-.11-86.87,0-3.87-.36-7.74-.58-12.22-7.62,1.08-9.41,8.62-15.2,10.23-3.9-8.87-3-18,2.42-24.68,3.57-4.38,7.21-8.71,10.83-13.06,7.89-9.48,10.78-10.37,24.42-6.89.46,3,1.43,6.51,1.43,10q.15,62.91,0,125.83C191.69,245.23,191,248.45,190.53,253Z"/><path d="M521.38,494.11c-.43-5.29,3.12-7,6.06-8.82,13.73-8.34,28.24-8.46,41.78-.78,8.13,4.61,14.26,4.42,22,0,11.89-6.71,24.59-8,37.31-1.8,4.72,2.31,9.32,4.93,11.79,11.29-2.2.12-3.78.63-5.05.21-16.57-5.49-31.76-1.78-45.38,7.9-10.24,7.28-12,5.67-20-.13-13.07-9.45-27.61-12.72-43.49-8.41A30.92,30.92,0,0,1,521.38,494.11Z"/><path d="M384.87,605.65c-.36-3.73-.9-7-.94-10.23q-.18-15.46,0-30.94c.14-11.08,2.75-13.35,13.92-12.25,1.91.19,3.76,1,6.94,1.88,1.93,16.94,1.23,33.95.48,50.67C398.34,608.81,392.36,608.13,384.87,605.65Z"/><path d="M579.14,394.39c-.93.26-1.91.88-2.76.73-14.38-2.45-27,1.39-37.82,10.91-3.76,3.29-7.45,3.88-11.73,1.11-12.61-8.17-26-11.35-40.72-6.37-.47.16-1.19-.42-2.58-1,.74-1.6,1.08-3.58,2.24-4.66,8.14-7.52,18.43-11.54,28.4-7.19,12.17,5.31,22,4,33.41-1.86,8.59-4.42,18.82-3,27.76,2.1,2,1.13,4,2.17,6,3.25Z"/><path d="M631,369.19c-13.36-6.86-25.61-6.83-38.08-1.82-5.37-4.88-9.95-10.42-15.75-13.9-5.48-3.29-12.25-4.41-18.34-6.44,5-5.42,16.7-8.11,23.75-2.5,9.29,7.39,18.67,9.61,30.1,8.76,6.85-.52,12.56,4,16.57,9.74C630.05,364.18,630.1,365.86,631,369.19Z"/><path d="M332.67,98.51h7.41v59.76h19V165H332.67Z"/><path d="M365.16,98.51h7.41V165h-7.41Z"/><path d="M378.75,98.51h7.5l9.6,56.43,9.59-56.43h6.84L400.5,165h-9.88Z"/><path d="M418.46,98.51h27.26v6.75H425.87v21.66H442v6.74H425.87v24.61h19.85V165H418.46Z"/><path d="M461.11,105.26H449.33V98.51h31v6.75H468.52V165h-7.41Z"/><path d="M332.67,188.51h14.54c10.26,0,15,5.42,15,16.15v5.7c0,10.74-4.75,16.06-15,16.06h-7.13V255h-7.41Zm14.54,31.16c5.22,0,7.6-2.37,7.6-8.93v-6.55c0-6.56-2.38-8.93-7.6-8.93h-7.13v24.41Z"/><path d="M387.11,240.86H371.72L369.25,255h-6.94l12.35-66.5h10L397.08,255h-7.5Zm-15-64.79a7.6,7.6,0,1,1,7.6,7.5A7.42,7.42,0,0,1,372.1,176.07ZM386,234.4,379.32,197l-6.46,37.44Zm-9.6-58.33a3.3,3.3,0,0,0,3.33,3.51,3.37,3.37,0,0,0,3.42-3.51,3.45,3.45,0,0,0-3.42-3.61A3.38,3.38,0,0,0,376.37,176.07Z"/><path d="M418.74,188.51h7.41v59.76h19V255H418.74Z"/><path d="M473.37,240.86H458L455.51,255h-6.94l12.35-66.5h10L483.34,255h-7.5Zm-1.14-6.46L465.58,197l-6.46,37.44Z"/><path d="M489.52,188.51H499L514,236v-47.5h6.74V255h-7.69l-16.82-54v54h-6.74Z"/><path d="M529.89,188.51h15.2c10.26,0,15,5.42,15,16.15v34.2c0,10.74-4.75,16.15-15,16.15h-15.2Zm15,59.76c5.22,0,7.79-2.57,7.79-9.12V204.28c0-6.55-2.57-9-7.79-9h-7.6v53Z"/></svg>