<svg id="Layer_1" data-name="Layer 1" xmlns="http://www.w3.org/2000/svg" width="800" height="800" viewBox="0 0 800 800"><path d="M399.54,397.86c-61.86,3.7-118.41,24.66-169.26,60.26-31.27,21.9-58.87,47.6-80.37,79C191,601,292.4,679.6,427.67,679.35c132.31-.25,235.06-78.06,276-143.07C626,437.08,524.86,390.37,399.54,397.86Zm-57.93,57.59c2.5-1.9,6.21-2.67,7.91.42,1.13,2.07,1,6.15-.38,8-3.49,4.8-8.47,7.13-15.37,4.4C333.85,461.69,337.69,458.41,341.61,455.45Zm2.64,21.45c-7.32,7.33-13.61,15.16-24,19.45C320.46,479.17,332.06,469.66,344.25,476.9Zm144,161.66c-26.12,16.18-54.46,20.43-84.4,15-4.37-.79-10.06-1-11-6.87s3.34-9.21,7.57-11.93a31.87,31.87,0,0,1,23.88-4.85,217.6,217.6,0,0,1,26,6.93c7.58,2.51,14.06,2.27,20.49-3,5.49-4.54,12.05-7.15,19.46-5.79,1.52.28,2.88,1.39,6.53,3.23C493,634.49,490.83,636.92,488.2,638.56Zm47-56.15c-4.59,13.35-11.7,25.29-22.13,34.89-2.12,2-5.8,2.79-8.85,3-6.18.45-12.42.13-18.92.13-14.76-20.85-3.47-37.79,12.41-41.27A160.31,160.31,0,0,0,515,574.49c5.24-1.78,10.25-4.28,15.18-6.38C535.94,572,537.09,577,535.23,582.41ZM540,560.83c-8.34-5.41-11.45-14.41-8.59-24.85,2.76-10.09,2-11.76-8.89-17.06,0,2.13-.13,3.89,0,5.61.19,1.94.64,3.86,1.17,6.9-3.52,2.13-7,4.53-10.71,6.42-10.8,5.5-12.19,12-4.24,22.62,4.85.35,12.13-3.92,14.13,6.84-8.33,1.21-16.58,3.35-23.63-1.79-5.19-3.78-9.35-9.27-13.11-14.6-2.63-3.73-3.74-8.5-5.66-12.75-1.39-3.07-3-6-8.33-5.39-.77,2.47-1.13,5.48-2.57,7.84-3.06,5-6.17,10.19-10.22,14.36-3.76,3.86-8.35,3.11-12.37-1.46.93-2.46,1.83-4.87,2.79-7.42-.65-.72-1.16-1.73-2-2.09-2.72-1.23-5.52-2.31-8.33-3.31-5.88-2.1-10.65-5.27-13-11.5-3-8.16-11.41-9.23-17.33-13.57l-1.42,1.46c3.8,3.89,7.68,7.7,11.38,11.68,5.44,5.86,6,9.62,2.17,13.85-4.56,5.07-11.67,5.91-17,1.7-3.32-2.62-6.29-5.69-9.41-8.56l-1.73,1.39a21.39,21.39,0,0,0,9.59,14.22c5.94,3.78,10.11,8.06,5.37,16,6.38,1.84,6.55,5.77,4.69,10.42q-4,10-8,20.05l-2.81,1.07-4.14-4.81c-2.78,5.78-6.08,12.27-9.06,18.91s-7.54,11.77-14.84,13.74c-6.8,1.83-10.94-.48-12.88-7.3-1.17-4.14-1.73-8.45-2.73-12.64-2.18-9.17-9.69-14.77-15-21.81-2.9-3.87-7.4-3.51-11.92-2.1-11.35,3.54-13.47,2.86-16.39-8.51a224.82,224.82,0,0,1-6.19-35.28c-.47-5.2,2.35-10.8,4.06-16.09.8-2.46,2.53-4.62,3.65-6.58-3.35-14.61-1.84-16.36,14.79-17,6.19-10,15.2-15.89,29.2-14.46l-12-8.9c1.32-7.86,6.61-10.47,12.05-11.62,10.72-2.27,21.61-3.76,32.48-5.2,2.26-.3,4.72,1,9.21,2.11L393,469.74c7-.76,8.4-1.5,15.07-8-2.94-5.78-5.51-11.78-9-17.2-1.39-2.17-4.66-3.89-7.31-4.31-4.2-.67-8.6-.11-12.91,0-3.19.09-6.39.31-10.12.49.2-5.35,3.7-6.43,6.46-7.73,24.24-11.38,49.59-15.69,75.84-9.44,42.27,10,71.56,35.33,86.68,76.43,2.58,7,4.2,14.11.89,20.91C546,535.48,546.45,550.46,540,560.83Zm-24.72-5.4c-7.14.26-7.14.26-7.7-6.35C512.55,547.66,514.51,550,515.26,555.43Z"/><path d="M199.38,249.68c-1.65,5.81-5.92,9.08-11.6,9.24s-10.3-2.77-11.82-8.73c-1.13-4.45-1.06-9.21-1.61-13.82-.46-3.83-1-7.63-1.67-12.11H155.31c-1.06,14.1-2.91,26.9,2.79,39.25a19.82,19.82,0,0,0,6.14,7.7c12.74,9,26.64,9.54,40.91,4.3,13.1-4.8,17.49-15.83,18.48-28.39a195.5,195.5,0,0,0-.1-27c-.52-8.67-3.66-16.22-12.05-20.56-1.28-.66-2.08-2.23-3.4-3.72,2.61-2.42,5.12-4.17,6.86-6.49,2.35-3.14,5.29-6.51,5.92-10.15,2.14-12.19,2.55-24.54-1.45-36.54a22.56,22.56,0,0,0-13.26-14.17c-11.3-4.61-22.88-4.75-34,.23-14.18,6.33-21.44,28.42-14.59,42.89,9.08,2.32,9.71,2.28,17.77-1.57.33-4.12.56-8.72,1.1-13.28,1-8.14,5.16-12.48,11.71-12.4,6.23.08,11.26,4.93,12,12.42a115.8,115.8,0,0,1,.18,17c-.45,8.43-4.14,12.66-12.3,14.77-3.15.81-6.36,1.38-10,2.16v13.13c3.83.77,6.73,1.33,9.62,1.94,9.44,2,12.28,5.14,12.69,15,.3,7.31.13,14.66,0,22A27.13,27.13,0,0,1,199.38,249.68Z"/><path d="M136.68,129.11c-10.41-3.54-18.43-2.29-24.76,6.23-3.17,4.25-6.94,8-10.39,12.1-5.78,6.76-6.83,17.74-2.47,26.53,5-2.75,6.53-10.25,14.74-10.71.31,4.23.82,8.05.82,11.86.06,29.27,0,58.54.07,87.81,0,4.15.81,8.29,1.33,13.16h20.91c.49-4.53,1.13-7.74,1.13-11q.09-62.87,0-125.72C138,135.91,137.13,132.41,136.68,129.11Z"/><path d="M347.27,504.52l-19.67,8.4c8.84,3.05,16.65,5.77,24.48,8.43a58.9,58.9,0,0,0,8.6,2.58c6.07,1.05,8.77-.8,12.76-9.85l-17.51,1.5Z"/><path d="M380.94,474.81l-11.75,9.68C377.42,482.17,377.48,482.11,380.94,474.81Z"/><path d="M402.88,574.75l-1.29-.34c-.4,1.33-.8,2.66-1.19,4l1.54.54C402.26,577.55,402.57,576.15,402.88,574.75Z"/><polygon points="291.14 165.21 297.51 154.09 308.62 187.16 316.41 187.16 302.45 145.64 316.22 120.65 308.53 120.65 291.14 153.43 291.14 120.65 283.73 120.65 283.73 187.16 291.14 187.16 291.14 165.21"/><polygon points="348.9 180.41 329.9 180.41 329.9 120.65 322.49 120.65 322.49 187.16 348.9 187.16 348.9 180.41"/><rect x="354.98" y="120.65" width="7.41" height="66.5"/><polygon points="377.97 131.67 388.51 187.16 394.78 187.16 405.33 131.67 405.33 187.16 412.45 187.16 412.45 120.65 401.63 120.65 391.93 173.76 382.15 120.65 371.41 120.65 371.41 187.16 377.97 187.16 377.97 131.67"/><path d="M427.94,173h15.39l2.47,14.16h7.5l-12.44-66.51h-10l-12.35,66.51h6.94Zm7.6-43.89,6.65,37.43H429.08Z"/><rect x="473.25" y="155.61" width="19.47" height="6.08"/><rect x="283.73" y="210.65" width="7.41" height="66.5"/><polygon points="309.67 210.65 300.17 210.65 300.17 277.15 306.91 277.15 306.91 223.1 323.73 277.15 331.42 277.15 331.42 210.65 324.68 210.65 324.68 258.15 309.67 210.65"/><path d="M340.54,210.65v66.51h15.2c10.26,0,15-5.42,15-16.16V226.8c0-10.73-4.75-16.15-15-16.15Zm22.8,15.77v34.87c0,6.56-2.57,9.12-7.79,9.12H348v-53h7.6C360.77,217.4,363.34,219.87,363.34,226.42Z"/><path d="M377.21,258.25V262c0,10.27,5.13,16.16,14.82,16.16s15.1-5.89,15.1-16.25c0-8.07-2.94-13.4-12.06-21-7.89-6.46-10.55-10.26-10.55-15.77,0-5.79,2.85-8.64,7.6-8.64s7.6,2.85,7.6,8.83v3.14h7v-2.66c0-10.17-5-16.06-14.63-16.06s-14.91,5.89-14.91,15.87c0,7.5,3,12.82,12.25,20.42,7.7,6.37,10.26,10.26,10.26,16.44s-2.94,8.93-7.79,8.93-7.69-2.85-7.69-8.84v-4.27Z"/><path d="M423.09,210.65l-12.35,66.51h6.94L420.15,263h15.39L438,277.16h7.5l-12.44-66.51Zm-1.8,45.89,6.46-37.43,6.65,37.43Z"/><polygon points="462.8 277.15 462.8 217.4 474.58 217.4 474.58 210.65 443.61 210.65 443.61 217.4 455.39 217.4 455.39 277.15 462.8 277.15"/><path d="M478.67,225.57c0,7.5,3,12.82,12.25,20.42,7.7,6.37,10.26,10.26,10.26,16.44s-2.94,8.93-7.79,8.93-7.69-2.85-7.69-8.84v-4.27h-7V262c0,10.27,5.13,16.16,14.82,16.16s15.1-5.89,15.1-16.25c0-8.07-2.94-13.4-12.06-21C488.64,234.4,486,230.6,486,225.09c0-5.79,2.85-8.64,7.6-8.64s7.6,2.85,7.6,8.83v3.14h7v-2.66c0-10.17-5-16.06-14.63-16.06S478.67,215.59,478.67,225.57Z"/></svg>