<svg id="Layer_1" data-name="Layer 1" xmlns="http://www.w3.org/2000/svg" width="800" height="800" viewBox="0 0 800 800"><path d="M703.62,536.28C662.73,601.29,560,679.1,427.67,679.35,292.4,679.6,191,601,149.91,537.08c21.5-31.36,49.1-57.06,80.37-79,50.85-35.6,107.4-56.56,169.26-60.26C524.86,390.37,626,437.08,703.62,536.28Zm-310.44.87,1.73-1.39c3.12,2.87,6.09,5.94,9.41,8.56,5.34,4.21,12.45,3.37,17-1.7,3.8-4.23,3.27-8-2.17-13.85-3.7-4-7.58-7.79-11.38-11.68l1.42-1.46c5.92,4.34,14.31,5.41,17.33,13.57,2.3,6.23,7.07,9.4,13,11.5,2.81,1,5.61,2.08,8.33,3.31.81.36,1.32,1.37,2,2.09-1,2.55-1.86,5-2.79,7.42,4,4.57,8.61,5.32,12.37,1.46,4.05-4.17,7.16-9.35,10.22-14.36,1.44-2.36,1.8-5.37,2.57-7.84,5.3-.6,6.94,2.32,8.33,5.39,1.92,4.25,3,9,5.66,12.75,3.76,5.33,7.92,10.82,13.11,14.6,7.05,5.14,15.3,3,23.63,1.79-2-10.76-9.28-6.49-14.13-6.84-7.95-10.61-6.56-17.12,4.24-22.62,3.72-1.89,7.19-4.29,10.71-6.42-.53-3-1-5-1.17-6.9-.16-1.72,0-3.48,0-5.61,10.84,5.3,11.65,7,8.89,17.06-2.86,10.44.25,19.44,8.59,24.85,6.47-10.37,6-25.35-1.4-39.93,3.31-6.8,1.69-13.89-.89-20.91-15.12-41.1-44.41-66.39-86.68-76.43-26.25-6.25-51.6-1.94-75.84,9.44-2.76,1.3-6.26,2.38-6.46,7.73,3.73-.18,6.93-.4,10.12-.49,4.31-.12,8.71-.68,12.91,0,2.65.42,5.92,2.14,7.31,4.31,3.49,5.42,6.06,11.42,9,17.2-6.67,6.5-8.06,7.24-15.07,8l9.37-8.35c-4.49-1.09-7-2.41-9.21-2.11-10.87,1.44-21.76,2.93-32.48,5.2-5.44,1.15-10.73,3.76-12.05,11.62l12,8.9c-14-1.43-23,4.5-29.2,14.46-16.63.62-18.14,2.37-14.79,17-1.12,2-2.85,4.12-3.65,6.58-1.71,5.29-4.53,10.89-4.06,16.09a224.82,224.82,0,0,0,6.19,35.28c2.92,11.37,5,12.05,16.39,8.51,4.52-1.41,9-1.77,11.92,2.1,5.28,7,12.79,12.64,15,21.81,1,4.19,1.56,8.5,2.73,12.64,1.94,6.82,6.08,9.13,12.88,7.3,7.3-2,11.81-7,14.84-13.74s6.28-13.13,9.06-18.91l4.14,4.81,2.81-1.07q4-10,8-20.05c1.86-4.65,1.69-8.58-4.69-10.42,4.74-7.94.57-12.22-5.37-16A21.39,21.39,0,0,1,393.18,537.15Zm92.15,83.29c6.5,0,12.74.32,18.92-.13,3.05-.22,6.73-1.06,8.85-3,10.43-9.6,17.54-21.54,22.13-34.89,1.86-5.41.71-10.43-5.06-14.3-4.93,2.1-9.94,4.6-15.18,6.38a160.31,160.31,0,0,1-17.25,4.68C481.86,582.65,470.57,599.59,485.33,620.44Zm11.37,10.82c-3.65-1.84-5-3-6.53-3.23-7.41-1.36-14,1.25-19.46,5.79-6.43,5.32-12.91,5.56-20.49,3a217.6,217.6,0,0,0-26-6.93,31.87,31.87,0,0,0-23.88,4.85c-4.23,2.72-8.5,6.21-7.57,11.93s6.64,6.08,11,6.87c29.94,5.4,58.28,1.15,84.4-15C490.83,636.92,493,634.49,496.7,631.26ZM344.25,476.9c-12.19-7.24-23.79,2.27-24,19.45C330.64,492.06,336.93,484.23,344.25,476.9Zm-10.48-8.6c6.9,2.73,11.88.4,15.37-4.4,1.37-1.88,1.51-6,.38-8-1.7-3.09-5.41-2.32-7.91-.42C337.69,458.41,333.85,461.69,333.77,468.3Zm181.49,87.13c-.75-5.46-2.71-7.77-7.7-6.35C508.12,555.69,508.12,555.69,515.26,555.43Z"/><path d="M155.31,224.26h17.37c.62,4.48,1.21,8.28,1.67,12.11.55,4.61.48,9.37,1.61,13.82,1.52,6,6.06,8.89,11.82,8.73s9.95-3.43,11.6-9.24a27.13,27.13,0,0,0,.93-6.9c.11-7.32.28-14.67,0-22-.41-9.86-3.25-13-12.69-15-2.89-.61-5.79-1.17-9.62-1.94V190.73c3.65-.78,6.86-1.35,10-2.16,8.16-2.11,11.85-6.34,12.3-14.77a115.8,115.8,0,0,0-.18-17c-.72-7.49-5.75-12.34-12-12.42-6.55-.08-10.75,4.26-11.71,12.4-.54,4.56-.77,9.16-1.1,13.28-8.06,3.85-8.69,3.89-17.77,1.57-6.85-14.47.41-36.56,14.59-42.89,11.13-5,22.71-4.84,34-.23a22.56,22.56,0,0,1,13.26,14.17c4,12,3.59,24.35,1.45,36.54-.63,3.64-3.57,7-5.92,10.15-1.74,2.32-4.25,4.07-6.86,6.49,1.32,1.49,2.12,3.06,3.4,3.72,8.39,4.34,11.53,11.89,12.05,20.56a195.5,195.5,0,0,1,.1,27c-1,12.56-5.38,23.59-18.48,28.39-14.27,5.24-28.17,4.72-40.91-4.3a19.82,19.82,0,0,1-6.14-7.7C152.4,251.16,154.25,238.36,155.31,224.26Z"/><path d="M136.93,276.09H116c-.52-4.87-1.32-9-1.33-13.16-.1-29.27,0-58.54-.07-87.81,0-3.81-.51-7.63-.82-11.86-8.21.46-9.72,8-14.74,10.71-4.36-8.79-3.31-19.77,2.47-26.53,3.45-4.05,7.22-7.85,10.39-12.1,6.33-8.52,14.35-9.77,24.76-6.23.45,3.3,1.33,6.8,1.34,10.3q.16,62.86,0,125.72C138.06,268.35,137.42,271.56,136.93,276.09Z"/><path d="M373.44,514.08c-4,9-6.69,10.9-12.76,9.85a58.9,58.9,0,0,1-8.6-2.58c-7.83-2.66-15.64-5.38-24.48-8.43l19.67-8.4,8.66,11.06Z"/><path d="M369.19,484.49l11.75-9.68C377.48,482.11,377.42,482.17,369.19,484.49Z"/><path d="M400.4,578.41c.39-1.34.79-2.67,1.19-4l1.29.34c-.31,1.4-.63,2.8-.94,4.2Z"/><path d="M297.51,154.09l-6.37,11.12v21.95h-7.41V120.65h7.41v32.78l17.39-32.78h7.69l-13.77,25,14,41.52h-7.79Z"/><path d="M322.49,120.65h7.41v59.76h19v6.75H322.49Z"/><path d="M355,120.65h7.41v66.51H355Z"/><path d="M371.41,120.65h10.74l9.78,53.11,9.69-53.11h10.83v66.51h-7.12V131.67l-10.55,55.49h-6.27L378,131.67v55.49h-6.56Z"/><path d="M443.33,173H427.94l-2.47,14.16h-6.94l12.35-66.51h10l12.44,66.51h-7.5Zm-1.14-6.46-6.65-37.43-6.46,37.43Z"/><path d="M473.25,155.61h19.48v6.08H473.25Z"/><path d="M283.73,210.65h7.41v66.51h-7.41Z"/><path d="M300.17,210.65h9.5l15,47.5v-47.5h6.74v66.51h-7.69L306.91,223.1v54.06h-6.74Z"/><path d="M340.54,210.65h15.2c10.26,0,15,5.42,15,16.15V261c0,10.74-4.75,16.16-15,16.16h-15.2Zm15,59.76c5.22,0,7.79-2.56,7.79-9.12V226.42c0-6.55-2.57-9-7.79-9H348v53Z"/><path d="M377.21,262v-3.7h7v4.27c0,6,2.94,8.84,7.69,8.84s7.79-2.85,7.79-8.93-2.56-10.07-10.26-16.44c-9.21-7.6-12.25-12.92-12.25-20.42,0-10,5.32-15.87,14.91-15.87s14.63,5.89,14.63,16.06v2.66h-7v-3.14c0-6-2.75-8.83-7.6-8.83s-7.6,2.85-7.6,8.64c0,5.51,2.66,9.31,10.55,15.77,9.12,7.6,12.06,12.93,12.06,21,0,10.36-5.41,16.25-15.1,16.25S377.21,272.22,377.21,262Z"/><path d="M435.54,263H420.15l-2.47,14.16h-6.94l12.35-66.51h10l12.44,66.51H438Zm-1.14-6.46-6.65-37.43-6.46,37.43Z"/><path d="M455.39,217.4H443.61v-6.75h31v6.75H462.8v59.76h-7.41Z"/><path d="M478.67,262v-3.7h7v4.27c0,6,2.94,8.84,7.69,8.84s7.79-2.85,7.79-8.93-2.56-10.07-10.26-16.44c-9.21-7.6-12.25-12.92-12.25-20.42,0-10,5.32-15.87,14.91-15.87s14.63,5.89,14.63,16.06v2.66h-7v-3.14c0-6-2.75-8.83-7.6-8.83s-7.6,2.85-7.6,8.64c0,5.51,2.66,9.31,10.55,15.77,9.12,7.6,12.06,12.93,12.06,21,0,10.36-5.41,16.25-15.1,16.25S478.67,272.22,478.67,262Z"/></svg>