<svg id="Layer_1" data-name="Layer 1" xmlns="http://www.w3.org/2000/svg" width="800" height="800" viewBox="0 0 800 800"><path d="M417.82,530a77.89,77.89,0,0,0-4.74,6.93c-8.78,16.09-17.43,32.24-26.19,48.34a177.88,177.88,0,0,1-9,15.59c-4.28,6.28-10.65,5.69-13.93-1.18a30,30,0,0,1-2.1-8.66c-4.75-33-9.41-66-14.17-98.95-.45-3.12-1.51-6.15-2.78-11.21-2.47,3.58-4,5.21-4.88,7.15-8.2,18.23-16.56,36.4-24.27,54.84-3.29,7.87-8.15,11.23-16.69,11.17-36.31-.27-72.63-.13-108.94-.14a38.2,38.2,0,0,1-4-.15c-6.4-.67-9.78-3.49-9.6-8,.16-4.15,3.2-6.71,9.17-7.28,3.31-.32,6.66-.22,10-.22,30.65,0,61.31-.35,92,.15,9.83.16,15-3.33,18.67-12.45,9.42-23.14,19.8-45.89,29.94-68.73,2-4.55,4.16-9.2,7.16-13.1,4.24-5.51,11-4.24,13.16,2.35,1.43,4.39,1.93,9.11,2.57,13.73,4.38,31.68,8.65,63.38,13.06,95.06.58,4.14,1.76,8.19,3.17,14.63,3.08-3.85,4.93-5.56,6.06-7.65,10.46-19.35,20.75-38.78,31.2-58.13,2.61-4.83,4.41-11.57,11.7-10.27,6.43,1.15,6.94,7.44,7.84,12.66,5.84,33.83,11.53,67.68,17.37,101.5,1.79,10.41,3.88,20.77,5.89,31.48,5.11-.95,4.9-4.54,5.66-7,8.91-29.34,17.65-58.72,26.49-88.08Q512,463.52,536.38,382.64c2.5-8.29,4.88-16.63,7.33-24.94.95-3.19,1.84-6.41,2.93-9.55,1.44-4.13,2.87-8.59,8.05-9.19,5.76-.67,8.16,3.73,10.22,8q18.29,37.79,36.42,75.65c2.6,5.41,5.2,10.81,7.57,16.32,2.47,5.72,1.72,9.35-2,11.44-3.91,2.22-8.53.75-11.41-4.87-7.61-14.81-14.75-29.87-22.06-44.84-4.64-9.5-9.23-19-14.92-30.75-2.32,4.21-3.85,6.15-4.52,8.35q-16.28,53.58-32.35,107.2-23,76.59-46,153.19c-3.64,12.13-7.17,24.29-10.88,36.4-1,3.17-1.86,6.6-3.78,9.17-1.58,2.11-4.74,4.43-7,4.24s-4.92-3-6.55-5.2c-1.26-1.73-1.33-4.39-1.73-6.67q-11.78-68.48-23.53-137c-.53-3.1-1.45-6.14-2.18-9.21Z"/><path d="M615.3,503.74c4.81-3.61,8.84-6.47,12.68-9.55,9.34-7.49,19.25-9.89,30.62-4.58s17.1,14.59,18.64,26.47c2,15-1.45,28-13.29,38.81C650,567.67,637,581.61,623.57,595c-2.28,2.27-4.93,4.17-8,6.73-3.08-2.58-5.73-4.49-8-6.76-13.93-13.84-27.56-28-41.71-41.58-11.2-10.77-14-23.75-11.69-38.37,1.84-11.76,8.92-19.94,19.05-25.39,11.56-6.23,21.9-2.45,31.42,5C608,497.27,611.14,500.17,615.3,503.74Z"/><path d="M142.55,213.56c.46,5.17.72,9.4,1.23,13.59.55,4.6.87,9.31,2.12,13.73,1.38,4.86,5.1,7.73,10.3,8.15,4.84.38,9.49-2.64,11.61-7.84a22.51,22.51,0,0,0,1.74-7.73c.22-7.33.42-14.68-.06-22-.66-10.17-3.6-13-13.87-15.15-2.55-.53-5.08-1.18-8.56-2V180c3.42-.67,6.57-1.3,9.73-1.9,8.25-1.56,11.92-4.94,12.59-13.09a84.52,84.52,0,0,0-.31-17.92c-1-7.74-6.32-12.2-12.5-11.76s-9.77,4.53-10.65,12.38c-.59,5.21-.83,10.45-1.21,15.38-6.48,3.68-12.24,3-17.92,1.38-10.5-21.95,3.87-47.2,27.27-48.39,26.74-1.35,37.38,8.68,37.59,35.46,0,3.67,0,7.33-.08,11-.14,7.32-2.46,13.67-8,18.69a44.29,44.29,0,0,0-4.15,4.81c.24,1,.21,1.46.41,1.61C192,196.44,194.46,209,193.57,223c-.35,5.64.14,11.36-.48,17-1.83,16.38-10.24,25.65-26.46,27.81a74.33,74.33,0,0,1-22.76-.76c-9.54-1.72-16.33-8-18.37-17.66a157.34,157.34,0,0,1-3.23-26.67c-.31-8.45,2.24-10.33,11-10.24C135.83,212.48,138.43,213.05,142.55,213.56Z"/><path d="M266.55,163.79v-3.71h7v4.28c0,6,2.94,8.83,7.69,8.83s7.79-2.85,7.79-8.93-2.56-10.07-10.26-16.43c-9.21-7.6-12.25-12.92-12.25-20.43,0-10,5.32-15.86,14.91-15.86s14.63,5.89,14.63,16v2.66h-7v-3.13c0-6-2.75-8.84-7.6-8.84s-7.6,2.85-7.6,8.65c0,5.51,2.66,9.31,10.55,15.77,9.12,7.6,12.06,12.92,12.06,21,0,10.36-5.41,16.25-15.1,16.25S266.55,174.05,266.55,163.79Z"/><path d="M303.12,163.5v-51h7.41v51.58c0,6.27,2.76,9.12,7.7,9.12s7.69-2.85,7.69-9.12V112.49h7.22v51c0,10.55-5.22,16.44-15,16.44S303.12,174.05,303.12,163.5Z"/><path d="M341.79,112.49h9.5l15,47.5v-47.5H373V179h-7.69l-16.82-54.06V179h-6.74Z"/><path d="M382.16,112.49h15.2c10.26,0,15,5.41,15,16.15v34.2c0,10.73-4.75,16.15-15,16.15h-15.2Zm15,59.75c5.23,0,7.79-2.56,7.79-9.12V128.26c0-6.56-2.56-9-7.79-9h-7.6v53Z"/><path d="M420.73,112.49h7.41v28.4h15.77v-28.4h7.41V179h-7.41V147.64H428.14V179h-7.41Z"/><path d="M460.44,112.49h27.27v6.74H467.85v21.66H484v6.75H467.85v24.6h19.86V179H460.44Z"/><path d="M494.26,112.49h15.2c10.26,0,15,5.41,15,16.15v34.2c0,10.73-4.75,16.15-15,16.15h-15.2Zm15,59.75c5.22,0,7.79-2.56,7.79-9.12V128.26c0-6.56-2.57-9-7.79-9h-7.6v53Z"/><path d="M267.69,253.5V217.88c0-10.55,5.41-16.34,15.2-16.34s15.29,5.79,15.29,16.34V253.5c0,10.55-5.41,16.44-15.29,16.44S267.69,264.05,267.69,253.5Zm23.08.48V217.4c0-6.27-2.85-9.12-7.88-9.12s-7.79,2.85-7.79,9.12V254c0,6.36,2.85,9.21,7.79,9.21S290.77,260.34,290.77,254Z"/><path d="M305.69,253.5V217.88c0-10.55,5.22-16.34,15-16.34s15.1,5.79,15.1,16.34v5.41h-7V217.4c0-6.27-2.85-9.12-7.88-9.12s-7.79,2.85-7.79,9.12v36.67c0,6.37,2.85,9.12,7.79,9.12s7.88-2.75,7.88-9.12V239.16h-7.31v-6.75H335.8V253.5c0,10.55-5.22,16.44-15.1,16.44S305.69,264.05,305.69,253.5Z"/><path d="M368.1,209.23H356.32v-6.74h31v6.74H375.51V269H368.1Z"/><path d="M393.37,202.49h14.54c10.54,0,15,4.75,15,15.1v4.09c0,7.31-2.38,11.68-7.7,13.39v.1c5.61,1.42,7.79,6.08,7.79,13.87v11.87A24.06,24.06,0,0,0,424,269h-7.5c-.57-1.9-.86-3.61-.86-8.08V248.66c0-7.22-2.56-9.69-8.83-9.69h-6v30h-7.41Zm13.4,29.73c5.79,0,8.74-2.47,8.74-9.12v-4.75c0-6.46-2.28-9.12-7.79-9.12h-6.94v23Z"/><path d="M431.47,202.49h7.41V269h-7.41Z"/><path d="M445.05,202.49h7.5l9.6,56.43,9.59-56.43h6.84L466.8,269h-9.88Z"/><path d="M482.57,253.79v-3.71h7v4.28c0,6,2.95,8.83,7.7,8.83s7.79-2.85,7.79-8.93-2.57-10.07-10.26-16.43c-9.22-7.6-12.26-12.92-12.26-20.43,0-10,5.32-15.86,14.92-15.86s14.63,5.89,14.63,16.05v2.66h-7v-3.13c0-6-2.76-8.84-7.6-8.84s-7.6,2.85-7.6,8.65c0,5.51,2.66,9.31,10.54,15.77,9.12,7.6,12.07,12.92,12.07,21,0,10.36-5.42,16.25-15.11,16.25S482.57,264.05,482.57,253.79Z"/><path d="M519.53,202.49h27.26v6.74H526.94v21.66h16.15v6.75H526.94v24.6h19.85V269H519.53Z"/><path d="M553.35,202.49h7.41v59.75h19V269H553.35Z"/></svg>