<svg id="Layer_1" data-name="Layer 1" xmlns="http://www.w3.org/2000/svg" width="800" height="800" viewBox="0 0 800 800"><path d="M558.55,369.9c5.69,11.73,10.28,21.25,14.92,30.75,7.31,15,14.45,30,22.06,44.84,2.88,5.62,7.5,7.09,11.41,4.87,3.68-2.09,4.43-5.72,2-11.44-2.37-5.51-5-10.91-7.57-16.32Q583.17,384.76,564.91,347c-2.06-4.26-4.46-8.66-10.22-8-5.18.6-6.61,5.06-8.05,9.19-1.09,3.14-2,6.36-2.93,9.55-2.45,8.31-4.83,16.65-7.33,24.94Q512,463.54,487.61,544.41c-8.84,29.36-17.58,58.74-26.49,88.08-.76,2.5-.55,6.09-5.66,7-2-10.71-4.1-21.07-5.89-31.48-5.84-33.82-11.53-67.67-17.37-101.5-.9-5.22-1.41-11.51-7.84-12.66-7.29-1.3-9.09,5.44-11.7,10.27-10.45,19.35-20.74,38.78-31.2,58.13-1.13,2.09-3,3.8-6.06,7.65-1.41-6.44-2.59-10.49-3.17-14.63-4.41-31.68-8.68-63.38-13.06-95.06-.64-4.62-1.14-9.34-2.57-13.73-2.16-6.59-8.92-7.86-13.16-2.35-3,3.9-5.14,8.55-7.16,13.1-10.14,22.84-20.52,45.59-29.94,68.73-3.71,9.12-8.84,12.61-18.67,12.45-30.64-.5-61.3-.17-92-.15-3.33,0-6.68-.1-10,.22-6,.57-9,3.13-9.17,7.28-.18,4.47,3.2,7.29,9.6,8a38.2,38.2,0,0,0,4,.15c36.31,0,72.63-.13,108.94.14,8.54.06,13.4-3.3,16.69-11.17,7.71-18.44,16.07-36.61,24.27-54.84.87-1.94,2.41-3.57,4.88-7.15,1.27,5.06,2.33,8.09,2.78,11.21,4.76,33,9.42,66,14.17,98.95a30,30,0,0,0,2.1,8.66c3.28,6.87,9.65,7.46,13.93,1.18a177.88,177.88,0,0,0,9-15.59c8.76-16.1,17.41-32.25,26.19-48.34a77.89,77.89,0,0,1,4.74-6.93l2.15.38c.73,3.07,1.65,6.11,2.18,9.21q11.81,68.48,23.53,137c.4,2.28.47,4.94,1.73,6.67,1.63,2.25,4.2,5,6.55,5.2s5.43-2.13,7-4.24c1.92-2.57,2.81-6,3.78-9.17,3.71-12.11,7.24-24.27,10.88-36.4q23-76.6,46-153.19Q537.8,431.84,554,378.25C554.7,376.05,556.23,374.11,558.55,369.9Z"/><path d="M677.24,516.08c-1.54-11.88-7.25-21.15-18.64-26.47s-21.28-2.91-30.62,4.58c-3.84,3.08-7.87,5.94-12.68,9.55-4.16-3.57-7.32-6.47-10.68-9.12-9.52-7.47-19.86-11.25-31.42-5C563.07,495.05,556,503.23,554.15,515c-2.3,14.62.49,27.6,11.69,38.37C580,567,593.62,581.1,607.55,594.94c2.28,2.27,4.93,4.18,8,6.76,3.08-2.56,5.73-4.46,8-6.73C637,581.61,650,567.67,664,554.89,675.79,544.07,679.19,531.05,677.24,516.08Z"/><path d="M193.09,240c.62-5.61.13-11.33.48-17,.89-14-1.58-26.56-13.79-35.4-.2-.15-.17-.62-.41-1.61a44.29,44.29,0,0,1,4.15-4.81c5.59-5,7.91-11.37,8-18.69.06-3.67.11-7.33.08-11-.21-26.78-10.85-36.81-37.59-35.46-23.4,1.19-37.77,26.44-27.27,48.39,5.68,1.59,11.44,2.3,17.92-1.38.38-4.93.62-10.17,1.21-15.38.88-7.85,4.53-11.95,10.65-12.38s11.46,4,12.5,11.76a84.52,84.52,0,0,1,.31,17.92c-.67,8.15-4.34,11.53-12.59,13.09-3.16.6-6.31,1.23-9.73,1.9v14.39c3.48.81,6,1.46,8.56,2,10.27,2.12,13.21,5,13.87,15.15.48,7.3.28,14.65.06,22a22.51,22.51,0,0,1-1.74,7.73c-2.12,5.2-6.77,8.22-11.61,7.84-5.19-.42-8.92-3.29-10.3-8.15-1.25-4.42-1.57-9.13-2.12-13.73-.51-4.19-.77-8.42-1.23-13.59-4.12-.51-6.72-1.08-9.31-1.11-8.73-.09-11.28,1.79-11,10.24a157.34,157.34,0,0,0,3.23,26.67c2,9.64,8.83,15.94,18.37,17.66a74.33,74.33,0,0,0,22.76.76C182.85,265.62,191.26,256.35,193.09,240Z"/><path d="M281.37,179.94c9.69,0,15.1-5.89,15.1-16.25,0-8.07-2.94-13.39-12.06-21-7.89-6.46-10.55-10.26-10.55-15.77,0-5.8,2.85-8.65,7.6-8.65s7.6,2.85,7.6,8.84v3.13h7v-2.66c0-10.16-5-16-14.63-16s-14.91,5.89-14.91,15.86c0,7.51,3,12.83,12.25,20.43,7.7,6.36,10.26,10.26,10.26,16.43s-2.94,8.93-7.79,8.93-7.69-2.85-7.69-8.83v-4.28h-7v3.71C266.55,174.05,271.68,179.94,281.37,179.94Z"/><path d="M318.13,179.94c9.79,0,15-5.89,15-16.44v-51h-7.22v51.58c0,6.27-2.75,9.12-7.69,9.12s-7.7-2.85-7.7-9.12V112.49h-7.41v51C303.12,174.05,308.25,179.94,318.13,179.94Z"/><polygon points="348.53 124.93 365.35 178.99 373.04 178.99 373.04 112.48 366.3 112.48 366.3 159.99 351.29 112.48 341.79 112.48 341.79 178.99 348.53 178.99 348.53 124.93"/><path d="M412.37,162.84v-34.2c0-10.74-4.75-16.15-15-16.15h-15.2V179h15.2C407.62,179,412.37,173.57,412.37,162.84Zm-22.8,9.4v-53h7.6c5.23,0,7.79,2.47,7.79,9v34.86c0,6.56-2.56,9.12-7.79,9.12Z"/><polygon points="428.14 147.64 443.91 147.64 443.91 178.99 451.32 178.99 451.32 112.48 443.91 112.48 443.91 140.89 428.14 140.89 428.14 112.48 420.73 112.48 420.73 178.99 428.14 178.99 428.14 147.64"/><polygon points="487.71 172.24 467.85 172.24 467.85 147.64 484 147.64 484 140.89 467.85 140.89 467.85 119.23 487.71 119.23 487.71 112.48 460.44 112.48 460.44 178.99 487.71 178.99 487.71 172.24"/><path d="M524.47,162.84v-34.2c0-10.74-4.75-16.15-15-16.15h-15.2V179h15.2C519.72,179,524.47,173.57,524.47,162.84Zm-22.8,9.4v-53h7.6c5.22,0,7.79,2.47,7.79,9v34.86c0,6.56-2.57,9.12-7.79,9.12Z"/><path d="M282.89,201.54c-9.79,0-15.2,5.79-15.2,16.34V253.5c0,10.55,5.41,16.44,15.2,16.44s15.29-5.89,15.29-16.44V217.88C298.18,207.33,292.77,201.54,282.89,201.54ZM290.77,254c0,6.36-2.85,9.21-7.88,9.21s-7.79-2.85-7.79-9.21V217.4c0-6.27,2.85-9.12,7.79-9.12s7.88,2.85,7.88,9.12Z"/><path d="M335.8,223.29v-5.41c0-10.55-5.22-16.34-15.1-16.34s-15,5.79-15,16.34V253.5c0,10.55,5.22,16.44,15,16.44s15.1-5.89,15.1-16.44V232.41H321.46v6.75h7.31v14.91c0,6.37-2.85,9.12-7.88,9.12s-7.79-2.75-7.79-9.12V217.4c0-6.27,2.85-9.12,7.79-9.12s7.88,2.85,7.88,9.12v5.89Z"/><polygon points="375.51 268.99 375.51 209.23 387.29 209.23 387.29 202.49 356.32 202.49 356.32 209.23 368.1 209.23 368.1 268.99 375.51 268.99"/><path d="M393.37,202.49V269h7.41V239h6c6.27,0,8.83,2.47,8.83,9.69v12.25c0,4.47.29,6.18.86,8.08H424a24.06,24.06,0,0,1-.95-8.08V249c0-7.79-2.18-12.45-7.79-13.87v-.1c5.32-1.71,7.7-6.08,7.7-13.39v-4.09c0-10.35-4.47-15.1-15-15.1Zm22.14,15.86v4.75c0,6.65-2.95,9.12-8.74,9.12h-6v-23h6.94C413.23,209.23,415.51,211.89,415.51,218.35Z"/><rect x="431.47" y="202.49" width="7.41" height="66.5"/><polygon points="456.92 268.99 466.8 268.99 478.58 202.49 471.74 202.49 462.15 258.92 452.55 202.49 445.05 202.49 456.92 268.99"/><path d="M482.57,250.08v3.71c0,10.26,5.13,16.15,14.82,16.15s15.11-5.89,15.11-16.25c0-8.07-2.95-13.39-12.07-21-7.88-6.46-10.54-10.26-10.54-15.77,0-5.8,2.85-8.65,7.6-8.65s7.6,2.85,7.6,8.84v3.13h7v-2.66c0-10.16-5-16.05-14.63-16.05s-14.92,5.89-14.92,15.86c0,7.51,3,12.83,12.26,20.43,7.69,6.36,10.26,10.26,10.26,16.43s-2.95,8.93-7.79,8.93-7.7-2.85-7.7-8.83v-4.28Z"/><polygon points="546.79 209.23 546.79 202.49 519.53 202.49 519.53 268.99 546.79 268.99 546.79 262.24 526.94 262.24 526.94 237.64 543.09 237.64 543.09 230.89 526.94 230.89 526.94 209.23 546.79 209.23"/><polygon points="579.76 262.24 560.76 262.24 560.76 202.49 553.35 202.49 553.35 268.99 579.76 268.99 579.76 262.24"/></svg>