<svg id="Layer_1" data-name="Layer 1" xmlns="http://www.w3.org/2000/svg" width="800" height="800" viewBox="0 0 800 800"><path d="M546.14,313.56q-41.44-.27-82.9-.37c-3.71,0-6.69,2-6.94,5.86-.5,7.86-1.83,15.85,1.91,24.85,5.24.25,10.78.32,16.29.83s11.84-1.86,17,2.56c-4.75,8.26-32.09,35.44-39.35,39.3a7.12,7.12,0,0,1-1.92-.48c-2-1.13-4-2.32-6-3.58-21.33-13.66-44.47-20.21-70-20C305.91,362.9,243,426,257.33,505.24c9.34,51.61,41.26,83.61,91.52,97.62,3.78,1.06,7.51,2.25,11.78,3.54,1.34,12,2.37,23.31-1,35.58l-34.35,1.55c-2.18,11.39-2.63,21.33.16,31.44,11.72,4,23.95-1.14,35.45,4.18.6,10.74,1.19,21.17,1.78,31.68,9.81,2.89,18.46,2.22,26.94,1.11,2.08-.27,4.76-3.66,5.31-6,.95-4.13.52-8.6.55-12.93.11-15.57.78-16.18,16.42-16.39,6.5-.09,13-.57,20-.89,2.2-11.43,2.83-21.36-.51-32.13l-33.14-1.68c-3.55-10.1-3.61-26.58-.61-35.74a9.73,9.73,0,0,1,2.36-1.63c3.47-1.15,7-2.23,10.5-3.16,27.28-7.19,49.34-22.76,65-45.58,29.12-42.5,31.41-87.29,6.73-133-1.69-3.12-3-6.43-4.28-9.1,7.42-11.8,32-35.16,39.54-37.57,4.82,9.69-1.16,21.24,4.78,31.31,9.14,1,18.2,1.95,26.87-.66,3.16-10.89,2.72-84.3-.34-92.05C547.93,314.33,547,313.57,546.14,313.56ZM376.63,575c-45.89,1.73-90.62-37.51-91.07-90.79-.41-49.93,42.62-92.45,93.2-91.37,52.26,1.12,89,45.21,89.38,91.9C468.52,532.07,425,577.49,376.63,575Z"/><path d="M115.66,140.51c-5,1-9.82,3.3-16.14,5.5.52-11.85-1.86-22.91,2-34.82l39.33-1.47c3-6.79,3.28-12.07.15-17.12-10.84-2.87-53.83-2.36-61.39.62-2.48,7.28-3.66,47.17-2,71.46.19,2.84,1.17,5.62,1.92,9.06H97.31c1.48-3.73,2.27-6.27,3.46-8.61a11.21,11.21,0,0,1,12.4-6.26c4.88.86,8,3.85,8.41,9.73.84,10.93,1.4,21.91,1.54,32.88a48.59,48.59,0,0,1-2,13.79c-2.18,7.74-10.34,10.82-16.53,5.92-2.83-2.24-4.84-6.27-5.87-9.88-1.17-4.07-.68-8.58-1.17-12.87-.76-6.58-4.49-9.24-11.92-8.8-6.93.41-9.73,3-9.4,10a138.35,138.35,0,0,0,2.49,21.79c2.5,12,10.5,19.28,22.71,20.57a90.65,90.65,0,0,0,20.89-.12c13-1.66,21.9-9.94,22.57-22.89a510.14,510.14,0,0,0,0-57.87C144,145.84,130.86,137.35,115.66,140.51Z"/><path d="M421.81,495q-44.46-.11-88.92,0c-3.14,0-6.28,1.12-9.49,1.73-1.93,8.73-2.72,16.42.3,23.78,11.28,3.05,98,2.52,106.58-.8,1.52-7.33,2.5-15-1-23.56C426.34,495.7,424.07,495,421.81,495Z"/><path d="M336.17,474.52q40.45.12,80.91,0c13.38,0,15-1.75,14.43-15,0-.34,0-.67,0-1-.5-7.73-2-9.35-9.46-9.94-1.66-.13-3.33-.08-5-.09-27,0-53.94,0-80.91,0-3.91,0-7.82.6-12.34,1-2.53,8.85-3.12,16.16.46,24.09C328.34,474,332.25,474.51,336.17,474.52Z"/><polygon points="244.36 147.81 225.36 147.81 225.36 88.06 217.95 88.06 217.95 154.56 244.36 154.56 244.36 147.81"/><rect x="250.43" y="88.06" width="7.41" height="66.5"/><path d="M281.12,155.51c9.88,0,15.1-5.89,15.1-16.44V118H281.88v6.75h7.31v14.91c0,6.37-2.85,9.12-7.88,9.12s-7.79-2.75-7.79-9.12V103c0-6.27,2.85-9.12,7.79-9.12s7.88,2.85,7.88,9.12v5.89h7v-5.41c0-10.55-5.22-16.34-15.1-16.34s-15,5.79-15,16.34v35.62C266.11,149.62,271.33,155.51,281.12,155.51Z"/><polygon points="331.47 147.81 311.61 147.81 311.61 123.21 327.76 123.21 327.76 116.46 311.61 116.46 311.61 94.8 331.47 94.8 331.47 88.06 304.2 88.06 304.2 154.56 331.47 154.56 331.47 147.81"/><path d="M351.13,155.51c9.69,0,15.11-5.89,15.11-16.25,0-8.07-2.95-13.39-12.07-21-7.88-6.46-10.54-10.26-10.54-15.77,0-5.8,2.85-8.65,7.6-8.65s7.6,2.85,7.6,8.84v3.13h7v-2.66c0-10.16-5-16-14.63-16S336.31,93,336.31,103c0,7.51,3,12.83,12.26,20.43,7.69,6.36,10.26,10.26,10.26,16.43s-2.95,8.93-7.79,8.93-7.7-2.85-7.7-8.83v-4.28h-7v3.71C336.31,149.62,341.44,155.51,351.13,155.51Z"/><polygon points="381.91 154.56 389.32 154.56 389.32 94.8 401.1 94.8 401.1 88.06 370.13 88.06 370.13 94.8 381.91 94.8 381.91 154.56"/><rect x="407.18" y="88.06" width="7.41" height="66.5"/><polygon points="450.02 147.81 431.02 147.81 431.02 88.06 423.62 88.06 423.62 154.56 450.02 154.56 450.02 147.81"/><polygon points="482.51 147.81 463.51 147.81 463.51 88.06 456.1 88.06 456.1 154.56 482.51 154.56 482.51 147.81"/><rect x="488.59" y="88.06" width="7.41" height="66.5"/><polygon points="511.77 100.5 528.59 154.56 536.28 154.56 536.28 88.06 529.54 88.06 529.54 135.56 514.53 88.06 505.03 88.06 505.03 154.56 511.77 154.56 511.77 100.5"/><path d="M559.65,87.11c-9.78,0-15,5.79-15,16.34v35.62c0,10.55,5.23,16.44,15,16.44s15.11-5.89,15.11-16.44V118H560.41v6.75h7.32v14.91c0,6.37-2.85,9.12-7.89,9.12s-7.79-2.75-7.79-9.12V103c0-6.27,2.85-9.12,7.79-9.12s7.89,2.85,7.89,9.12v5.89h7v-5.41C574.76,92.9,569.53,87.11,559.65,87.11Z"/><polygon points="258.99 242.56 258.99 176.06 248.16 176.06 238.47 229.16 228.68 176.06 217.95 176.06 217.95 242.56 224.5 242.56 224.5 187.08 235.05 242.56 241.32 242.56 251.86 187.08 251.86 242.56 258.99 242.56"/><polygon points="295.27 182.8 295.27 176.06 268.01 176.06 268.01 242.56 295.27 242.56 295.27 235.81 275.42 235.81 275.42 211.21 291.57 211.21 291.57 204.46 275.42 204.46 275.42 182.8 295.27 182.8"/><polygon points="328.24 235.81 309.24 235.81 309.24 176.06 301.83 176.06 301.83 242.56 328.24 242.56 328.24 235.81"/><polygon points="360.73 235.81 341.73 235.81 341.73 176.06 334.32 176.06 334.32 242.56 360.73 242.56 360.73 235.81"/><polygon points="394.07 235.81 374.22 235.81 374.22 211.21 390.37 211.21 390.37 204.46 374.22 204.46 374.22 182.8 394.07 182.8 394.07 176.06 366.81 176.06 366.81 242.56 394.07 242.56 394.07 235.81"/><polygon points="400.63 176.06 400.63 242.56 407.18 242.56 407.18 187.08 417.73 242.56 424 242.56 434.54 187.08 434.54 242.56 441.67 242.56 441.67 176.06 430.84 176.06 421.15 229.16 411.36 176.06 400.63 176.06"/><polygon points="490.97 176.06 473.58 208.83 473.58 176.06 466.18 176.06 466.18 242.56 473.58 242.56 473.58 220.61 479.95 209.5 491.07 242.56 498.86 242.56 484.89 201.04 498.67 176.06 490.97 176.06"/><path d="M506.36,245l1.81-4.56a15.35,15.35,0,0,0,9.88,3c9.88,0,15.29-5.89,15.29-16.44V191.45a20.24,20.24,0,0,0-2-9.5l2.57-6.56-4.18-1.8L528,178.05a16.35,16.35,0,0,0-10-2.94c-9.79,0-15.21,5.79-15.21,16.34v35.62a20,20,0,0,0,2,9.41l-2.66,6.74Zm19.57-17.48c0,6.36-2.85,9.21-7.88,9.21-3.23,0-5.61-1.23-6.84-4l14.72-37.24ZM510.26,191c0-6.27,2.84-9.12,7.79-9.12,3.32,0,5.7,1.24,6.93,3.8L510.26,222.8Z"/><polygon points="566.12 223.56 551.11 176.06 541.61 176.06 541.61 242.56 548.35 242.56 548.35 188.5 565.16 242.56 572.86 242.56 572.86 176.06 566.12 176.06 566.12 223.56"/><polygon points="606.49 223.56 591.48 176.06 581.98 176.06 581.98 242.56 588.72 242.56 588.72 188.5 605.54 242.56 613.23 242.56 613.23 176.06 606.49 176.06 606.49 223.56"/><polygon points="622.35 242.56 649.62 242.56 649.62 235.81 629.76 235.81 629.76 211.21 645.91 211.21 645.91 204.46 629.76 204.46 629.76 182.8 649.62 182.8 649.62 176.06 622.35 176.06 622.35 242.56"/><polygon points="680.68 223.56 665.67 176.06 656.17 176.06 656.17 242.56 662.92 242.56 662.92 188.5 679.73 242.56 687.43 242.56 687.43 176.06 680.68 176.06 680.68 223.56"/><polygon points="723.81 182.8 723.81 176.06 696.54 176.06 696.54 242.56 723.81 242.56 723.81 235.81 703.95 235.81 703.95 211.21 720.11 211.21 720.11 204.46 703.95 204.46 703.95 182.8 723.81 182.8"/></svg>