<svg id="Layer_1" data-name="Layer 1" xmlns="http://www.w3.org/2000/svg" width="800" height="800" viewBox="0 0 800 800"><path d="M397.59,606.14c-3,9.16-2.94,25.64.61,35.74l33.14,1.68c3.34,10.77,2.71,20.7.51,32.13-7,.32-13.47.8-20,.89-15.64.21-16.31.82-16.42,16.39,0,4.33.4,8.8-.55,12.93-.55,2.38-3.23,5.77-5.31,6-8.48,1.11-17.13,1.78-26.94-1.11-.59-10.51-1.18-20.94-1.78-31.68-11.5-5.32-23.73-.16-35.45-4.18-2.79-10.11-2.34-20.05-.16-31.44L359.62,642c3.38-12.27,2.35-23.59,1-35.58-4.27-1.29-8-2.48-11.78-3.54-50.26-14-82.18-46-91.52-97.62C243,426,305.91,362.9,374.22,362.48c25.51-.16,48.65,6.39,70,20,1.95,1.26,4,2.45,6,3.58a7.12,7.12,0,0,0,1.92.48c7.26-3.86,34.6-31,39.35-39.3-5.12-4.42-11.32-2-17-2.56s-11.05-.58-16.29-.83c-3.74-9-2.41-17-1.91-24.85.25-3.9,3.23-5.86,6.94-5.86q41.44.06,82.9.37c.9,0,1.79.77,2.58,1.14,3.06,7.75,3.5,81.16.34,92.05-8.67,2.61-17.73,1.71-26.87.66-5.94-10.07,0-21.62-4.78-31.31-7.58,2.41-32.12,25.77-39.54,37.57,1.25,2.67,2.59,6,4.28,9.1,24.68,45.71,22.39,90.5-6.73,133-15.63,22.82-37.69,38.39-65,45.58-3.53.93-7,2-10.5,3.16A9.73,9.73,0,0,0,397.59,606.14Zm-21-31.17c48.41,2.52,91.89-42.9,91.51-90.26-.37-46.69-37.12-90.78-89.38-91.9-50.58-1.08-93.61,41.44-93.2,91.37C286,537.46,330.74,576.7,376.63,575Z"/><path d="M97.31,173.74H79.59c-.75-3.44-1.73-6.22-1.92-9.06-1.68-24.29-.5-64.18,2-71.46,7.56-3,50.55-3.49,61.39-.62,3.13,5.05,2.82,10.33-.15,17.12l-39.33,1.47c-3.9,11.91-1.52,23-2,34.82,6.32-2.2,11.11-4.46,16.14-5.5,15.2-3.16,28.31,5.33,29.25,20.65a510.14,510.14,0,0,1,0,57.87c-.67,12.95-9.61,21.23-22.57,22.89a90.65,90.65,0,0,1-20.89.12c-12.21-1.29-20.21-8.57-22.71-20.57a138.35,138.35,0,0,1-2.49-21.79c-.33-7.06,2.47-9.63,9.4-10,7.43-.44,11.16,2.22,11.92,8.8.49,4.29,0,8.8,1.17,12.87,1,3.61,3,7.64,5.87,9.88,6.19,4.9,14.35,1.82,16.53-5.92a48.59,48.59,0,0,0,2-13.79c-.14-11-.7-21.95-1.54-32.88-.46-5.88-3.53-8.87-8.41-9.73a11.21,11.21,0,0,0-12.4,6.26C99.58,167.47,98.79,170,97.31,173.74Z"/><path d="M429.32,496.18c3.46,8.57,2.48,16.23,1,23.56-8.55,3.32-95.3,3.85-106.58.8-3-7.36-2.23-15-.3-23.78,3.21-.61,6.35-1.71,9.49-1.73q44.46-.19,88.92,0C424.07,495,426.34,495.7,429.32,496.18Z"/><path d="M323.78,449.56c4.52-.37,8.43-1,12.34-1,27-.09,53.94,0,80.91,0,1.66,0,3.33,0,5,.09,7.44.59,9,2.21,9.46,9.94,0,.33,0,.66,0,1,.53,13.23-1.05,14.95-14.43,15q-40.45.07-80.91,0c-3.92,0-7.83-.56-11.93-.87C320.66,465.72,321.25,458.41,323.78,449.56Z"/><path d="M218,88.06h7.41v59.75h19v6.75H218Z"/><path d="M250.43,88.06h7.41v66.5h-7.41Z"/><path d="M266.11,139.07V103.45c0-10.55,5.22-16.34,15-16.34s15.1,5.79,15.1,16.34v5.41h-7V103c0-6.27-2.85-9.12-7.88-9.12s-7.79,2.85-7.79,9.12v36.67c0,6.37,2.85,9.12,7.79,9.12s7.88-2.75,7.88-9.12V124.73h-7.31V118h14.34v21.09c0,10.55-5.22,16.44-15.1,16.44S266.11,149.62,266.11,139.07Z"/><path d="M304.2,88.06h27.27V94.8H311.61v21.66h16.15v6.75H311.61v24.6h19.86v6.75H304.2Z"/><path d="M336.31,139.36v-3.71h7v4.28c0,6,3,8.83,7.7,8.83s7.79-2.85,7.79-8.93-2.57-10.07-10.26-16.43c-9.22-7.6-12.26-12.92-12.26-20.43,0-10,5.32-15.86,14.92-15.86s14.63,5.89,14.63,16v2.66h-7v-3.13c0-6-2.76-8.84-7.6-8.84s-7.6,2.85-7.6,8.65c0,5.51,2.66,9.31,10.54,15.77,9.12,7.6,12.07,12.92,12.07,21,0,10.36-5.42,16.25-15.11,16.25S336.31,149.62,336.31,139.36Z"/><path d="M381.91,94.8H370.13V88.06h31V94.8H389.32v59.76h-7.41Z"/><path d="M407.18,88.06h7.41v66.5h-7.41Z"/><path d="M423.61,88.06H431v59.75h19v6.75H423.61Z"/><path d="M456.1,88.06h7.41v59.75h19v6.75H456.1Z"/><path d="M488.59,88.06H496v66.5h-7.41Z"/><path d="M505,88.06h9.5l15,47.5V88.06h6.74v66.5h-7.69L511.77,100.5v54.06H505Z"/><path d="M544.64,139.07V103.45c0-10.55,5.23-16.34,15-16.34s15.11,5.79,15.11,16.34v5.41h-7V103c0-6.27-2.85-9.12-7.89-9.12s-7.79,2.85-7.79,9.12v36.67c0,6.37,2.85,9.12,7.79,9.12s7.89-2.75,7.89-9.12V124.73h-7.32V118h14.35v21.09c0,10.55-5.23,16.44-15.11,16.44S544.64,149.62,544.64,139.07Z"/><path d="M218,176.06h10.73l9.79,53.1,9.69-53.1H259v66.5h-7.13V187.08l-10.54,55.48h-6.27L224.5,187.08v55.48H218Z"/><path d="M268,176.06h27.26v6.74H275.42v21.66h16.15v6.75H275.42v24.6h19.85v6.75H268Z"/><path d="M301.83,176.06h7.41v59.75h19v6.75H301.83Z"/><path d="M334.32,176.06h7.41v59.75h19v6.75H334.32Z"/><path d="M366.81,176.06h27.26v6.74H374.22v21.66h16.15v6.75H374.22v24.6h19.85v6.75H366.81Z"/><path d="M400.63,176.06h10.73l9.79,53.1,9.69-53.1h10.83v66.5h-7.13V187.08L424,242.56h-6.27l-10.55-55.48v55.48h-6.55Z"/><path d="M480,209.5l-6.36,11.11v21.95h-7.41v-66.5h7.41v32.77L491,176.06h7.7l-13.78,25,14,41.52h-7.79Z"/><path d="M531.34,182a20.24,20.24,0,0,1,2,9.5v35.62c0,10.55-5.41,16.44-15.29,16.44a15.35,15.35,0,0,1-9.88-3L506.36,245l-4.18-1.81,2.66-6.74a20,20,0,0,1-2-9.41V191.45c0-10.55,5.42-16.34,15.21-16.34a16.35,16.35,0,0,1,10,2.94l1.71-4.46,4.18,1.8ZM510.26,222.8,525,185.65c-1.23-2.56-3.61-3.8-6.93-3.8-4.95,0-7.79,2.85-7.79,9.12Zm15.67-27.27-14.72,37.24c1.23,2.76,3.61,4,6.84,4,5,0,7.88-2.85,7.88-9.21Z"/><path d="M541.6,176.06h9.5l15,47.5v-47.5h6.75v66.5h-7.69L548.35,188.5v54.06H541.6Z"/><path d="M582,176.06h9.5l15,47.5v-47.5h6.74v66.5h-7.69L588.72,188.5v54.06H582Z"/><path d="M622.35,176.06h27.27v6.74H629.76v21.66h16.15v6.75H629.76v24.6h19.86v6.75H622.35Z"/><path d="M656.17,176.06h9.5l15,47.5v-47.5h6.75v66.5h-7.7L662.92,188.5v54.06h-6.75Z"/><path d="M696.54,176.06h27.27v6.74H704v21.66H720.1v6.75H704v24.6h19.86v6.75H696.54Z"/></svg>